<svg id="eq4fkJMitdO1" xmlns="http://www.w3.org/2000/svg" xmlns:xlink="http://www.w3.org/1999/xlink" viewBox="0 0 48 48" shape-rendering="geometricPrecision" text-rendering="geometricPrecision"><style><![CDATA[#eq4fkJMitdO2_tr {animation: eq4fkJMitdO2_tr__tr 6000ms linear infinite normal forwards}@keyframes eq4fkJMitdO2_tr__tr { 0% {transform: translate(24px,24.000023px) rotate(0deg)} 6.666667% {transform: translate(24px,24.000023px) rotate(-20.845644deg)} 13.333333% {transform: translate(24px,24.000023px) rotate(2.035521deg)} 16.666667% {transform: translate(24px,24.000023px) rotate(0deg)} 100% {transform: translate(24px,24.000023px) rotate(0deg)}}]]></style><g id="eq4fkJMitdO2_tr" transform="translate(24,24.000023) rotate(0)"><g id="eq4fkJMitdO2" transform="translate(-24,-24.000023)"><path id="eq4fkJMitdO3" d="M38.986400,18.353800C25.418800,12.311600,14.221000,15.831300,9.184950,18.119100C8.414730,19.937600,8,21.990800,8,24.102600C8,25.451900,8.177740,26.742400,8.473980,27.974300C11.021600,27.974300,15.050400,28.560900,17.301900,31.728700C19.257000,34.485800,19.731000,37.360200,19.731000,39.413400C21.093700,39.765400,22.515600,40,23.996800,40C25.418800,40,26.781400,39.824000,28.144100,39.472000C28.144100,37.418900,28.618100,34.485800,30.573300,31.787300C32.883900,28.560900,37.031300,28.033000,39.519700,28.033000C39.815900,26.801100,39.993600,25.510500,39.993600,24.161300C40.052900,22.049500,39.697400,20.113600,38.986400,18.353800ZM24.056100,26.683800C22.515600,26.683800,21.212200,25.451900,21.212200,23.868000C21.212200,22.342800,22.456400,21.052200,24.056100,21.052200C25.596500,21.052200,26.899900,22.284100,26.899900,23.868000C26.840700,25.451900,25.596500,26.683800,24.056100,26.683800Z" fill="rgb(211,220,234)" stroke="none" stroke-width="1"/><path id="eq4fkJMitdO4" d="M24.029700,0C10.765800,0,0,10.779100,0,23.999900C0,37.220600,10.765800,47.999800,23.970300,47.999800C37.234200,48.059300,48,37.280200,48,23.999900C48,10.719500,37.234200,0,24.029700,0ZM24.029700,42.342200C13.918200,42.342200,5.710040,34.123900,5.710040,23.999900C5.710040,13.875900,13.918200,5.657540,24.029700,5.657540C34.141300,5.657540,42.349400,13.875900,42.349400,23.999900C42.349400,34.123900,34.141300,42.342200,24.029700,42.342200Z" fill="rgb(211,220,234)" stroke="none" stroke-width="1"/></g></g></svg>