<?xml version="1.0" encoding="utf-8"?>
<!-- Generator: Adobe Illustrator 25.0.0, SVG Export Plug-In . SVG Version: 6.00 Build 0)  -->
<svg version="1.1" id="Layer_1" xmlns="http://www.w3.org/2000/svg" xmlns:xlink="http://www.w3.org/1999/xlink" x="0px" y="0px"
	 viewBox="0 0 398.2 80.1" style="enable-background:new 0 0 398.2 80.1;" xml:space="preserve">
<style type="text/css">
	.st0{fill:url(#SVGID_1_);}
	.st1{fill:url(#SVGID_2_);}
	.st2{fill:url(#SVGID_3_);}
	.st3{fill:url(#SVGID_4_);}
	.st4{fill:url(#SVGID_5_);}
	.st5{fill:url(#SVGID_6_);}
	.st6{fill:url(#SVGID_7_);}
	.st7{fill:url(#SVGID_8_);}
	.st8{fill:url(#SVGID_9_);}
	.st9{fill:url(#SVGID_10_);}
	.st10{fill:url(#SVGID_11_);}
	.st11{fill:url(#SVGID_12_);}
	.st12{fill:url(#SVGID_13_);}
	.st13{fill:url(#SVGID_14_);}
	.st14{fill:url(#SVGID_15_);}
	.st15{fill:url(#SVGID_16_);}
	.st16{fill:url(#SVGID_17_);}
	.st17{fill:url(#SVGID_18_);}
	.st18{fill:url(#SVGID_19_);}
	.st19{fill:#D9D9D9;}
	.st20{fill:url(#SVGID_20_);stroke:#000000;stroke-width:1.7431;}
	.st21{fill:url(#SVGID_21_);stroke:#000000;stroke-width:1.7431;}
	.st22{fill:url(#SVGID_22_);stroke:#000000;stroke-width:1.7431;}
	.st23{fill:url(#SVGID_23_);}
	.st24{fill:url(#SVGID_24_);}
	.st25{fill:url(#SVGID_25_);}
	.st26{fill:url(#SVGID_26_);}
	.st27{fill:#FFF6F2;}
	.st28{fill:#FEEDE6;}
	.st29{fill:#FEE6DC;}
	.st30{fill:#FDDED2;}
	.st31{fill:#FDD6C8;}
	.st32{fill:#FCCEBE;}
	.st33{fill:#FBC6B5;}
	.st34{fill:#FABEAB;}
	.st35{fill:#FAB6A2;}
	.st36{fill:#F9AE99;}
	.st37{fill:#F8A690;}
	.st38{fill:#F79F88;}
	.st39{fill:#F69881;}
	.st40{fill:#F69079;}
	.st41{fill:#F58972;}
	.st42{fill:#F4826B;}
	.st43{fill:#F47A64;}
	.st44{fill:#F47B65;}
	.st45{fill:#F47C65;}
	.st46{fill:#F47D66;}
	.st47{fill:#F47D67;}
	.st48{fill:#F47E67;}
	.st49{fill:#F47F68;}
	.st50{fill:#F47F69;}
	.st51{fill:#F48069;}
	.st52{fill:#F4816A;}
	.st53{fill:#F4836C;}
	.st54{fill:#F5846D;}
	.st55{fill:#F5856E;}
	.st56{fill:#F5866F;}
	.st57{fill:#F58770;}
	.st58{fill:#F58870;}
	.st59{fill:#F58871;}
	.st60{fill:#F58A73;}
	.st61{fill:#F58B73;}
	.st62{fill:#F58B74;}
	.st63{fill:#F58C75;}
	.st64{fill:#F58D75;}
	.st65{fill:#F68E76;}
	.st66{fill:#F68E77;}
	.st67{fill:#F68F78;}
	.st68{fill:#FEEFE8;}
	.st69{fill:#FEE8E0;}
	.st70{fill:#FDE2D7;}
	.st71{fill:#FDDBCF;}
	.st72{fill:#FCD5C7;}
	.st73{fill:#FCCFBF;}
	.st74{fill:#FBC8B7;}
	.st75{fill:#FBC2B0;}
	.st76{fill:#FABBA7;}
	.st77{fill:#F9B4A0;}
	.st78{fill:#F8A892;}
	.st79{fill:#F8A28B;}
	.st80{fill:#F79C85;}
	.st81{fill:#F6967F;}
	.st82{fill:#F69078;}
	.st83{fill:#FEE8DF;}
	.st84{fill:#FDE0D5;}
	.st85{fill:#FDD9CC;}
	.st86{fill:#FCD2C3;}
	.st87{fill:#FBCBBA;}
	.st88{fill:#FBC4B3;}
	.st89{fill:#FABDAA;}
	.st90{fill:#F9AF9A;}
	.st91{fill:#F8AA95;}
	.st92{fill:#F8A791;}
	.st93{fill:#F8A993;}
	.st94{fill:#F8A994;}
	.st95{fill:#F8A590;}
	.st96{fill:#F8A58F;}
	.st97{fill:#F8A48E;}
	.st98{fill:#F8A38D;}
	.st99{fill:#F8A28C;}
	.st100{fill:#F7A18A;}
	.st101{fill:#F7A08A;}
	.st102{fill:#F79F89;}
	.st103{fill:#F79E87;}
	.st104{fill:#F79D86;}
	.st105{fill:#F79C86;}
	.st106{fill:#F79B84;}
	.st107{fill:#F79A83;}
	.st108{fill:#F79982;}
	.st109{fill:#F69780;}
	.st110{fill:#FEF0E9;}
	.st111{fill:#FEE9E1;}
	.st112{fill:#FDE3D9;}
	.st113{fill:#FDDDD1;}
	.st114{fill:#FDD7CA;}
	.st115{fill:#FCD1C2;}
	.st116{fill:#FCCBBB;}
	.st117{fill:#FBC5B4;}
	.st118{fill:#FBBFAD;}
	.st119{fill:#FAB9A6;}
	.st120{fill:#F9B39F;}
	.st121{fill:#F9AD98;}
	.st122{fill:#F6917A;}
	.st123{fill:#F47A63;}
	.st124{fill:#F37963;}
	.st125{fill:#F37862;}
	.st126{fill:#F37761;}
	.st127{fill:#F37661;}
	.st128{fill:#F37660;}
	.st129{fill:#F3755F;}
	.st130{fill:#F3745F;}
	.st131{fill:#F3735E;}
	.st132{fill:#F3735D;}
	.st133{fill:#F3725D;}
	.st134{fill:#F3715C;}
	.st135{fill:#F3705B;}
	.st136{fill:#F36F5B;}
	.st137{fill:#F36F5A;}
	.st138{fill:#FFFFFF;}
	.st139{fill:url(#SVGID_27_);}
	.st140{fill:url(#SVGID_28_);}
	.st141{fill:url(#SVGID_29_);}
	.st142{fill:#ED1C2E;}
	.st143{fill:url(#SVGID_30_);}
	.st144{fill:url(#SVGID_31_);}
	.st145{fill:url(#SVGID_32_);}
	.st146{fill:url(#SVGID_33_);}
	.st147{fill:url(#SVGID_34_);}
	.st148{fill:url(#SVGID_35_);}
	.st149{fill:url(#SVGID_36_);}
	.st150{fill:url(#SVGID_37_);}
	.st151{fill:url(#SVGID_38_);}
	.st152{fill:url(#SVGID_39_);}
	.st153{fill:url(#SVGID_40_);}
	.st154{fill:url(#SVGID_41_);}
	.st155{fill:url(#SVGID_42_);}
	.st156{fill:url(#SVGID_43_);}
	.st157{fill:url(#SVGID_44_);}
	.st158{fill:url(#SVGID_45_);}
	.st159{fill:url(#SVGID_46_);}
</style>
<g>
	<g>
		<g>
			
				<linearGradient id="SVGID_1_" gradientUnits="userSpaceOnUse" x1="75.7772" y1="23.901" x2="75.7772" y2="-519.069" gradientTransform="matrix(0.1684 0 0 -0.1684 220.0044 1.6135)">
				<stop  offset="0" style="stop-color:#E8E8E8"/>
				<stop  offset="1" style="stop-color:#4F4F4F"/>
			</linearGradient>
			<path class="st0" d="M232.2,18.7l-6.6,22.4c0.7,0.1,1,1.5,1,2.5c-0.1,1.4,0.1,32.1,0.1,33c0,0.6,0.3,1.4,0.8,2L240,61.7V13.2
				L232.2,18.7z"/>
			
				<linearGradient id="SVGID_2_" gradientUnits="userSpaceOnUse" x1="95.7355" y1="124.6275" x2="188.1228" y2="-284.9944" gradientTransform="matrix(0.1684 0 0 -0.1684 220.0044 1.6135)">
				<stop  offset="0" style="stop-color:#E8E8E8"/>
				<stop  offset="1" style="stop-color:#4F4F4F"/>
			</linearGradient>
			<path class="st1" d="M255.8,4.2c0-0.7-0.1-1.3-0.3-1.7L240,13.3v48.5l0.1-0.2l15.6,15.9c0.1-0.7,0.1-1.5,0.1-2.6
				C255.9,71.5,256,7.4,255.8,4.2z"/>
		</g>
		<g>
			<g>
				
					<linearGradient id="SVGID_3_" gradientUnits="userSpaceOnUse" x1="421.7282" y1="58.5515" x2="400.8122" y2="-114.0104" gradientTransform="matrix(0.1684 0 0 -0.1684 220.0044 1.6135)">
					<stop  offset="0" style="stop-color:#E8E8E8"/>
					<stop  offset="1" style="stop-color:#4F4F4F"/>
				</linearGradient>
				<path class="st2" d="M299.8,53.8c-0.1-0.4-0.1-1-0.1-1.6c0.1-2-0.1-20.9-0.1-23.5c0-0.5,0-1,0.1-1.4c-8.7-7.6-17-11.5-27.7-11.5
					c-0.3,1.3-0.5,2.7-0.5,4.1c0,0,0.1,37.7,0.1,41.1c0.2,3,1.1,5.8,2.5,8.2C291,64,297.4,57.5,299.8,53.8z"/>
				
					<linearGradient id="SVGID_4_" gradientUnits="userSpaceOnUse" x1="641.2349" y1="-280.2713" x2="641.2349" y2="-469.3939" gradientTransform="matrix(0.1684 0 0 -0.1684 220.0044 1.6135)">
					<stop  offset="0" style="stop-color:#E8E8E8"/>
					<stop  offset="1" style="stop-color:#4F4F4F"/>
				</linearGradient>
				<path class="st3" d="M375.3,55.2c-7,0-72.5,0.1-73.8,0.1c-0.9,0-1.4-0.4-1.7-1.4C297.4,57.6,291,64,274,69.3
					c3.3,6.1,9.6,10.2,17,10.2c4.2,0,86-0.2,87.8-0.1c2.6,0.1,2.8-1.3,3-3.2c0.1-2,0.5-14.8,0-17.3
					C381.1,55.6,381.2,55.2,375.3,55.2z"/>
				
					<linearGradient id="SVGID_5_" gradientUnits="userSpaceOnUse" x1="618.6383" y1="42.0678" x2="658.1489" y2="-189.1854" gradientTransform="matrix(0.1684 0 0 -0.1684 220.0044 1.6135)">
					<stop  offset="0" style="stop-color:#E8E8E8"/>
					<stop  offset="1" style="stop-color:#4F4F4F"/>
				</linearGradient>
				<path class="st4" d="M299.7,27.3c0.3-1.6,1.2-2,2.5-2.1c7.2,0.1,73.2,0,76,0c2.5,0,2.8-0.5,3.4-3.6c0.6-3.1,0.4-14.4,0.3-16.1
					c-0.3-3.2-1.3-4.9-4.9-4.9c-4,0-85.8,0.1-87.5,0.2c-6.7,0.3-15.3,6-17.5,15C282.7,15.8,291,19.8,299.7,27.3z"/>
			</g>
			<g>
				
					<linearGradient id="SVGID_6_" gradientUnits="userSpaceOnUse" x1="-46.5506" y1="158.1208" x2="-46.5506" y2="-499.891" gradientTransform="matrix(0.1684 0 0 -0.1684 220.0044 1.6135)">
					<stop  offset="0" style="stop-color:#E8E8E8"/>
					<stop  offset="1" style="stop-color:#4F4F4F"/>
				</linearGradient>
				<path class="st5" d="M203.4,78.4c0.3-0.4,0.8-1,1.4-1.9c2.2-2.7,18.1-32,19.9-34.7c0.4-0.6,0.7-0.8,1-0.8l6.6-22.4l-40.2,42.6
					L203.4,78.4z"/>
				
					<linearGradient id="SVGID_7_" gradientUnits="userSpaceOnUse" x1="-281.4081" y1="158.1164" x2="-281.4081" y2="-499.8909" gradientTransform="matrix(0.1684 0 0 -0.1684 220.0044 1.6135)">
					<stop  offset="0" style="stop-color:#E8E8E8"/>
					<stop  offset="1" style="stop-color:#4F4F4F"/>
				</linearGradient>
				<path class="st6" d="M159.6,40.9c0.6-0.3,1.4-0.1,1.9,0.9c1.1,2.1,18.2,32.5,19.7,34.9c0.5,0.9,1.1,1.5,1.7,1.9l10.7-14.9
					l-41.9-46.3L159.6,40.9z"/>
				
					<linearGradient id="SVGID_8_" gradientUnits="userSpaceOnUse" x1="15.459" y1="12.7085" x2="23.6408" y2="-206.3177" gradientTransform="matrix(0.1684 0 0 -0.1684 220.0044 1.6135)">
					<stop  offset="0" style="stop-color:#E8E8E8"/>
					<stop  offset="1" style="stop-color:#4F4F4F"/>
				</linearGradient>
				<path class="st7" d="M251.6,0.7c-1.8-0.1-29.9-0.1-31.2,0s-3.5,0-5.8,3.6c-1.2,1.8-4.5,7.5-8.1,14c-4.9,8.7-10.3,18.5-11.5,21.1
					c-1.1,2.4-1.6,2.1-1.9,2.2c-0.1,0-0.2,0-0.3,0l-0.7,19.6l40.2-42.6l23.3-16.2C255.1,1.1,254,0.8,251.6,0.7z"/>
				
					<linearGradient id="SVGID_9_" gradientUnits="userSpaceOnUse" x1="-367.8984" y1="-2.3882" x2="-317.3478" y2="-223.761" gradientTransform="matrix(0.1684 0 0 -0.1684 220.0044 1.6135)">
					<stop  offset="0" style="stop-color:#E8E8E8"/>
					<stop  offset="1" style="stop-color:#4F4F4F"/>
				</linearGradient>
				<path class="st8" d="M190.9,39.1c-0.7-1.5-6.6-12.2-11.6-21.2c-3.8-6.8-7.1-12.7-7.5-13.3c-0.8-1.3-2.4-4.5-6.4-4.3
					c-0.5,0-29.2-0.1-30.7,0.1c-0.9,0.1-1.7,0.3-2.4,0.6l19.5,16.5L192,61.3l0.7-19.6C192.3,41.6,191.8,41.1,190.9,39.1z"/>
			</g>
			<g>
				
					<linearGradient id="SVGID_10_" gradientUnits="userSpaceOnUse" x1="-159.674" y1="96.2692" x2="-159.674" y2="-499.898" gradientTransform="matrix(0.1684 0 0 -0.1684 220.0044 1.6135)">
					<stop  offset="0" style="stop-color:#E8E8E8"/>
					<stop  offset="1" style="stop-color:#4F4F4F"/>
				</linearGradient>
				<path class="st9" d="M182.9,78.7c1.1,0.8,2.2,1.1,3.1,1c1.3-0.1,12.2,0,14.6-0.1c1.7-0.1,2-0.2,2.8-1.2L194,62.5L182.9,78.7z"/>
				
					<linearGradient id="SVGID_11_" gradientUnits="userSpaceOnUse" x1="128.6275" y1="96.234" x2="128.6275" y2="-499.8953" gradientTransform="matrix(0.1684 0 0 -0.1684 220.0044 1.6135)">
					<stop  offset="0" style="stop-color:#E8E8E8"/>
					<stop  offset="1" style="stop-color:#4F4F4F"/>
				</linearGradient>
				<path class="st10" d="M227.5,78.6c0.6,0.7,1.4,1.3,2.5,1.3c3.5,0,22,0.1,22.6,0c2.4-0.3,3.1-1,3.3-2.4l-15.6-15.9L227.5,78.6z"
					/>
				
					<linearGradient id="SVGID_12_" gradientUnits="userSpaceOnUse" x1="-448.5696" y1="96.2619" x2="-448.5696" y2="-499.8964" gradientTransform="matrix(0.1684 0 0 -0.1684 220.0044 1.6135)">
					<stop  offset="0" style="stop-color:#E8E8E8"/>
					<stop  offset="1" style="stop-color:#4F4F4F"/>
				</linearGradient>
				<path class="st11" d="M130.2,78.3c0.5,0.9,1.2,1.4,2.3,1.4c2.8,0.1,21.6,0.1,23.5,0c2-0.1,2.6-0.8,2.8-1.8L143.9,63L130.2,78.3z
					"/>
				
					<linearGradient id="SVGID_13_" gradientUnits="userSpaceOnUse" x1="-447.7646" y1="12.0343" x2="-447.7646" y2="-454.0316" gradientTransform="matrix(0.1684 0 0 -0.1684 220.0044 1.6135)">
					<stop  offset="0" style="stop-color:#E8E8E8"/>
					<stop  offset="1" style="stop-color:#4F4F4F"/>
				</linearGradient>
				<path class="st12" d="M132.3,1c-0.4,0.2-0.8,0.4-1.1,0.7c-0.9,0.7-1.3,1.8-1.4,3.3c0.1,1.8-0.1,68.9,0,71.2
					c0,0.9,0.2,1.6,0.5,2.2l13.6-15.3L158.8,78l0,0c0.1-0.5,0.1-1.1,0.1-1.8c0.4-6.4,0.1-32.3-0.1-33.3c-0.2-0.9,0.2-1.6,0.7-1.9
					l-7.8-23.5L132.3,1z"/>
			</g>
			<g>
				
					<linearGradient id="SVGID_14_" gradientUnits="userSpaceOnUse" x1="-1137.5881" y1="-250.4057" x2="-1316.6294" y2="-250.4085" gradientTransform="matrix(0.1684 0 0 -0.1684 220.0044 1.6135)">
					<stop  offset="0" style="stop-color:#E8E8E8"/>
					<stop  offset="1" style="stop-color:#4F4F4F"/>
				</linearGradient>
				<path class="st13" d="M29.2,53.9c0.2-6.6-0.1-22.1-0.1-26.5L0.8,15.7c-0.3,1.3-0.4,2.5-0.4,3.5c0.1,2.4-0.3,22,0.1,39
					C0.7,64.1,2.4,68.6,5,71.9l24.2-17.5C29.2,54.3,29.2,54.1,29.2,53.9z"/>
				
					<linearGradient id="SVGID_15_" gradientUnits="userSpaceOnUse" x1="-651.2286" y1="1.7628" x2="-651.2286" y2="-133.9839" gradientTransform="matrix(0.1684 0 0 -0.1684 220.0044 1.6135)">
					<stop  offset="0" style="stop-color:#E8E8E8"/>
					<stop  offset="1" style="stop-color:#4F4F4F"/>
				</linearGradient>
				<path class="st14" d="M113.6,24.4c0.8-0.2,1.2-0.8,1.2-2c0,0,0.1-15.1,0-18.4c0-0.5-0.1-1-0.2-1.3l-8.7,11L113.6,24.4z"/>
				
					<linearGradient id="SVGID_16_" gradientUnits="userSpaceOnUse" x1="-963.4152" y1="10.1711" x2="-963.4152" y2="-130.6496" gradientTransform="matrix(0.1684 0 0 -0.1684 220.0044 1.6135)">
					<stop  offset="0" style="stop-color:#E8E8E8"/>
					<stop  offset="1" style="stop-color:#4F4F4F"/>
				</linearGradient>
				<path class="st15" d="M29.1,26.7c0-0.6,0.2-2.3,2.3-2.3c5.1,0,79.9,0.1,81.3,0.1c0.4,0,0.7,0,1-0.1L106,13.7l8.7-11
					c-0.7-2-3-2.1-5-2.2C102.4,0.6,21,0.8,19.9,0.8C7.6,1.6,2.3,9.7,0.9,15.6l28.3,11.7C29.1,27.2,29.1,26.9,29.1,26.7z"/>
				
					<linearGradient id="SVGID_17_" gradientUnits="userSpaceOnUse" x1="-709.9265" y1="-158.3856" x2="-709.9265" y2="-413.0515" gradientTransform="matrix(0.1684 0 0 -0.1684 220.0044 1.6135)">
					<stop  offset="0" style="stop-color:#E8E8E8"/>
					<stop  offset="1" style="stop-color:#4F4F4F"/>
				</linearGradient>
				<path class="st16" d="M114,29.7l-21.6,16l-6.3,7.5c0.1,0.7,0.1,1.5,0.1,2.1l24.9,16.2c3.5-5.7,3.6-12.6,3.7-14.1
					c0.1-2.6,0.1-22.7,0-25.2C114.9,31,114.5,30.2,114,29.7z"/>
				
					<linearGradient id="SVGID_18_" gradientUnits="userSpaceOnUse" x1="-961.3368" y1="-280.2655" x2="-961.3368" y2="-468.5159" gradientTransform="matrix(0.1684 0 0 -0.1684 220.0044 1.6135)">
					<stop  offset="0" style="stop-color:#E8E8E8"/>
					<stop  offset="1" style="stop-color:#4F4F4F"/>
				</linearGradient>
				<path class="st17" d="M86.3,55.3c0,0.7-0.5,0.9-1.1,0.9c0,0-53.6,0-54.8,0c-1,0-1.2-0.6-1.2-1.7L5,72c4.1,5.3,10.3,7.5,15.3,7.5
					c9.7,0,57-0.1,75.2,0.1c8.3,0.1,13.1-3.7,15.8-8.2L86.3,55.3C86.3,55.2,86.3,55.3,86.3,55.3z"/>
			</g>
			<g>
				
					<linearGradient id="SVGID_19_" gradientUnits="userSpaceOnUse" x1="-796.5506" y1="-149.7328" x2="-796.5506" y2="-304.7722" gradientTransform="matrix(0.1684 0 0 -0.1684 220.0044 1.6135)">
					<stop  offset="0" style="stop-color:#E8E8E8"/>
					<stop  offset="1" style="stop-color:#4F4F4F"/>
				</linearGradient>
				<path class="st18" d="M111.8,28.7c-8.2-0.4-43.5-0.4-48,0c-2.7,0.2-6,2.3-6,5.6l9.6,3.4l-8.3,11.7c1.2,1.7,3,2.4,5.4,2.4
					c0,0,19.5,0,20,0s1.4,0,1.5,0.8c0,0.1,0,0.3,0.1,0.5l6.3-7.5l21.6-16C113.4,29,112.6,28.7,111.8,28.7z"/>
				<path class="st19" d="M57.9,34.3C57.9,34.4,57.9,34.4,57.9,34.3c0,2.6-0.2,7,0.2,11.4c0.1,1.6,0.6,2.8,1.2,3.8l8.3-11.7
					L57.9,34.3z"/>
			</g>
		</g>
	</g>
	
		<linearGradient id="SVGID_20_" gradientUnits="userSpaceOnUse" x1="-965.9884" y1="4.7287" x2="-965.9884" y2="-575.1387" gradientTransform="matrix(0.1684 0 0 -0.1684 220.0044 1.6135)">
		<stop  offset="0.18" style="stop-color:#ED1C2E"/>
		<stop  offset="0.3926" style="stop-color:#EB1C2E"/>
		<stop  offset="0.5049" style="stop-color:#E31B2C"/>
		<stop  offset="0.5938" style="stop-color:#D51929"/>
		<stop  offset="0.6704" style="stop-color:#C21726"/>
		<stop  offset="0.7391" style="stop-color:#A91421"/>
		<stop  offset="0.8021" style="stop-color:#8B101B"/>
		<stop  offset="0.8609" style="stop-color:#660C14"/>
		<stop  offset="0.9162" style="stop-color:#3C070C"/>
		<stop  offset="0.9669" style="stop-color:#0D0203"/>
		<stop  offset="0.98" style="stop-color:#000000"/>
	</linearGradient>
	<path class="st20" d="M107.3,6c0.7,0,2.3-0.3,2.5,2.5c0.1,2.9,0,8.1,0,9.3s-0.8,1.8-2.1,1.9c-1.3,0-77.6,0-77.6,0
		c-4.1,0-6.1,3.1-6,6c0.1,3.2,0.2,29.2,0.2,29.9c0.2,2.8,1.9,5.7,6.2,5.8c4.6,0.1,52,0.1,54.6,0c2.9-0.1,5.9-1.8,6-6.3
		c0-4.5,0.1-6.1,0-6.8c0-0.7-0.1-1.4-1.6-1.5c-1.6,0-22.8,0-24.5,0c-1.7,0-2.2-0.6-2.4-2.4c-0.1-1.8-0.1-7.9-0.1-8.9
		c0.1-1.4,0.5-1.9,2.6-1.9c1.6,0,41.7-0.1,42.8-0.1c1.1,0,1.8,0.1,1.9,2.5s0,21.3,0,22.6c0,4.6-3.5,15.3-15.4,15.6
		c-11.9,0.4-72.6,0.2-73.8,0.2c-2.3,0-14.3-2.7-15.4-15.3c-0.4-4-0.3-35.7-0.3-37.6c0-3,3.3-15.5,15.5-15.8
		C32.7,5.7,105.5,6,107.3,6z"/>
	
		<linearGradient id="SVGID_21_" gradientUnits="userSpaceOnUse" x1="631.3168" y1="4.7282" x2="631.3168" y2="-575.1388" gradientTransform="matrix(0.1684 0 0 -0.1684 220.0044 1.6135)">
		<stop  offset="0.18" style="stop-color:#ED1C2E"/>
		<stop  offset="0.3926" style="stop-color:#EB1C2E"/>
		<stop  offset="0.5049" style="stop-color:#E31B2C"/>
		<stop  offset="0.5938" style="stop-color:#D51929"/>
		<stop  offset="0.6704" style="stop-color:#C21726"/>
		<stop  offset="0.7391" style="stop-color:#A91421"/>
		<stop  offset="0.8021" style="stop-color:#8B101B"/>
		<stop  offset="0.8609" style="stop-color:#660C14"/>
		<stop  offset="0.9162" style="stop-color:#3C070C"/>
		<stop  offset="0.9669" style="stop-color:#0D0203"/>
		<stop  offset="0.98" style="stop-color:#000000"/>
	</linearGradient>
	<path class="st21" d="M276.1,22.8c-0.1-7.4,5.7-16.1,15.8-16.3c10.1-0.2,80.3-0.1,82-0.1c1.7,0.1,2.9,0.7,2.8,2.8s0,6.2-0.1,8.3
		s-0.3,2.5-2.8,2.6c-2.5,0.1-68.4,0-72.9,0s-6.7,3.4-6.6,6.1s0.2,27.4,0.4,29.1c0.2,1.7,1.1,5.4,5.7,5.4c4.6,0.1,72.3-0.1,73.9-0.1
		s2.2,1,2.3,3c0.1,2,0,6.9-0.1,8.5s-0.4,2.1-2.7,2.2c-2.3,0.1-73.5,0.5-82.4,0.3S276,67.3,276,58.3C276,49.1,276.2,27.4,276.1,22.8z
		"/>
	
		<linearGradient id="SVGID_22_" gradientUnits="userSpaceOnUse" x1="-160.3999" y1="4.7287" x2="-160.3999" y2="-575.137" gradientTransform="matrix(0.1684 0 0 -0.1684 220.0044 1.6135)">
		<stop  offset="0.18" style="stop-color:#ED1C2E"/>
		<stop  offset="0.3926" style="stop-color:#EB1C2E"/>
		<stop  offset="0.5049" style="stop-color:#E31B2C"/>
		<stop  offset="0.5938" style="stop-color:#D51929"/>
		<stop  offset="0.6704" style="stop-color:#C21726"/>
		<stop  offset="0.7391" style="stop-color:#A91421"/>
		<stop  offset="0.8021" style="stop-color:#8B101B"/>
		<stop  offset="0.8609" style="stop-color:#660C14"/>
		<stop  offset="0.9162" style="stop-color:#3C070C"/>
		<stop  offset="0.9669" style="stop-color:#0D0203"/>
		<stop  offset="0.98" style="stop-color:#000000"/>
	</linearGradient>
	<path class="st22" d="M134.9,8.4c0-2.7,2-2.1,2.6-2.2c0.6,0,26.6-0.1,27.6,0s1.4,0.7,2.4,2.4s23.5,41.6,24,42.6
		c0.7,1.3,1.7,2.2,2.8,0.4c1.1-1.9,24.3-43,25-44.1c0.7-1,1.4-1.1,2.4-1.1c1.1,0,27.6,0,27.6,0c1.3,0.1,1.8,0.8,1.9,2.6
		c0.1,1.7,0,63.8,0,63.8c0,1-0.4,2.1-2,2.1s-15.4,0-15.4,0c-0.8,0-1.7,0-1.7-2.8s0-50.4,0-50.4s-0.4-1.8-1.4,0s-18,33.7-29.7,52.6
		c-0.3,0.3-0.6,0.6-1.5,0.6c-1.6,0-13.1,0-13.1,0c-0.6,0-0.9,0.1-1.6-1.1c-0.7-1.1-28.8-51.6-29.5-52.6c-0.8-1-1.6-0.7-1.6,0.5
		c0,6.2,0,49.9,0.1,51c0.1,1,0,2.1-2,2.2s-15,0.1-15.9-0.2c-0.9-0.3-0.9-0.9-1-1.9C134.7,71.9,134.9,11.2,134.9,8.4z"/>
	<g>
		<g>
			
				<linearGradient id="SVGID_23_" gradientUnits="userSpaceOnUse" x1="-1023.5713" y1="208.5158" x2="-1008.1819" y2="-130.372" gradientTransform="matrix(0.1684 0 0 -0.1684 227.6509 21.1408)">
				<stop  offset="0" style="stop-color:#FFFFFF"/>
				<stop  offset="1" style="stop-color:#ED1C2E"/>
			</linearGradient>
			<path class="st23" d="M107.9,35.5L107.9,35.5H65.1c-0.4,0-0.7,0-0.9,0.1v0.1c0,0.9,0,7,0.1,8.7c0,0.4,0.1,0.5,0.1,0.6
				c0.1,0,0.2,0,0.5,0h2.8c10.1,0,20.6,0,21.7,0c2.1,0.1,3.2,1.1,3.3,3v0.1c0.1,0.7,0.1,2,0,6.9c-0.1,5.8-4.2,7.9-7.7,8
				c-2.7,0.1-50.3,0-54.7,0c-5.5-0.1-7.7-4.1-7.9-7.4c0-0.4-0.1-4.9-0.1-15.1c0-6.6-0.1-13.4-0.1-14.9c0-2.1,0.8-4.1,2.2-5.5
				c1.4-1.5,3.4-2.2,5.6-2.2c26.3,0,76.3,0,77.6,0c0.2,0,0.3,0,0.4-0.1c0,0,0,0,0-0.1c0-0.3,0-1,0-1.7c0-2,0.1-5.4,0-7.5
				c0-0.5-0.1-0.7-0.1-0.9c-0.1,0-0.2,0-0.3,0c-0.1,0-0.2,0-0.3,0c-2.4-0.1-75.4-0.3-86.7,0C9.3,8,6.7,19.6,6.7,21.8
				c0,2.6-0.1,33.7,0.3,37.5c1.1,12.3,13.5,13.6,13.6,13.6h1.3c18.5,0,62.5,0.1,72.4-0.2c11.3-0.4,13.7-11,13.7-13.9v-1.7
				c0-4.7,0-18.8,0-20.8C107.9,36,107.9,35.7,107.9,35.5z"/>
		</g>
		<g>
			
				<linearGradient id="SVGID_24_" gradientUnits="userSpaceOnUse" x1="127.1637" y1="76.8458" x2="127.1637" y2="76.8458" gradientTransform="matrix(0.1684 0 0 -0.1684 227.6509 21.1408)">
				<stop  offset="0" style="stop-color:#FFFFFF"/>
				<stop  offset="1" style="stop-color:#ED1C2E"/>
			</linearGradient>
			<path class="st24" d="M249.1,8.2L249.1,8.2L249.1,8.2L249.1,8.2z"/>
			
				<linearGradient id="SVGID_25_" gradientUnits="userSpaceOnUse" x1="-223.0427" y1="244.8668" x2="-207.6534" y2="-94.02" gradientTransform="matrix(0.1684 0 0 -0.1684 227.6509 21.1408)">
				<stop  offset="0" style="stop-color:#FFFFFF"/>
				<stop  offset="1" style="stop-color:#ED1C2E"/>
			</linearGradient>
			<path class="st25" d="M249.3,9.1c0-0.5-0.1-0.8-0.1-0.9c0,0,0,0-0.1,0c-10.6,0-26.6-0.1-27.4-0.1c-0.9,0-0.9,0-1,0.3
				c-0.5,0.8-10.9,19.3-17.9,31.5l-7.1,12.5c-0.9,1.6-2.1,1.9-2.9,1.9c-0.8,0-2.1-0.4-3.1-2.4c-0.5-1-22.9-40.7-23.9-42.5
				c-0.4-0.7-0.8-1.4-1-1.6c-1.6-0.1-26.3,0-27.3,0l0,0c-0.2,0-0.4,0-0.6,0c-0.1,0-0.2,0-0.3,0c0,0.1,0,0.2,0,0.4v13.7
				c0,17.4-0.1,49.7-0.1,50.7v0.1c0,0.1,0,0.2,0,0.3c2.3,0.2,12.8,0.2,15.1,0.1c0.2,0,0.3,0,0.4,0c0-0.1,0-0.2,0-0.3
				c-0.1-1.2-0.1-50.6-0.1-51.1c0-2.1,1.3-2.7,1.7-2.8s1.8-0.4,3,1.2c0.4,0.6,6.4,11.2,19.4,34.6c5.1,9.1,9.9,17.6,10.2,18.2
				c0.1,0.1,0.1,0.2,0.2,0.2l0,0h13.1c0.1,0,0.1,0,0.1,0c10-16.1,23.6-41.4,28.1-49.7c0.8-1.5,1.3-2.4,1.4-2.7
				c0.9-1.6,2-1.8,2.7-1.7c1,0.2,1.7,1,2,2.2v0.2v0.2c0,1.9,0,47.6,0,50.4c0,0.5,0,0.8,0.1,1h15.3c0.1,0,0.2,0,0.2,0
				c0-0.1,0-0.2,0-0.3C249.4,55.7,249.4,10.7,249.3,9.1z"/>
		</g>
		<g>
			
				<linearGradient id="SVGID_26_" gradientUnits="userSpaceOnUse" x1="571.2239" y1="280.9364" x2="586.6133" y2="-57.952" gradientTransform="matrix(0.1684 0 0 -0.1684 227.6509 21.1408)">
				<stop  offset="0" style="stop-color:#FFFFFF"/>
				<stop  offset="1" style="stop-color:#ED1C2E"/>
			</linearGradient>
			<path class="st26" d="M374.8,63.6c0-0.8-0.2-1.1-0.2-1.2c0,0-0.1,0-0.3,0h-5.5c-16,0-64.6,0.1-68.4,0.1c-4.1-0.1-6.9-2.7-7.4-7
				c-0.1-1.2-0.2-9.9-0.3-21.3c0-4-0.1-7.1-0.1-8c-0.1-1.9,0.8-3.9,2.2-5.4c1.1-1.1,3.1-2.5,6.2-2.5h8c18.8,0,62.9,0,64.9,0
				c0.5,0,0.8,0,1-0.1c0-0.3,0.1-0.7,0.1-0.9c0.1-1.2,0.1-3.2,0.1-4.9c0-1.3,0-2.4,0-3.3c0-0.7,0-1-1.1-1C372.2,8,302.2,8,292.2,8.2
				c-8.8,0.2-14.1,7.7-14.1,14.6c0,2.8,0,12,0,20.9v14.5c0,8.1,5.9,14.4,13.6,14.6c8.6,0.2,79.3-0.2,82.3-0.3c0.5,0,0.8-0.1,0.9-0.1
				c0-0.1,0-0.2,0-0.4C374.8,70.4,374.9,65.5,374.8,63.6z"/>
		</g>
	</g>
	<path class="st27" d="M8.8,15.7c1.7-4.3,6.7-7.2,11.2-7.6h86.8c0.5,0.1,0.6,0.4,0.9,1.8c-0.3-0.8-0.3-0.9-0.9-0.9H63.5H20.1
		C17.4,8.9,12.4,10.3,8.8,15.7z"/>
	<path class="st27" d="M335.1,9h-43.8c-2.5,0-6.9,1.3-11.2,6.7c2.1-4.3,6.7-7.2,11.1-7.5h81.7c0.9-0.1,1.4-0.1,1.5,1.7
		c-0.6-0.6-0.7-0.8-1.5-0.8h-37.8V9z"/>
	<g>
		<path class="st28" d="M291.3,9.1c-2.4,0-6.9,1.2-11.3,6.6c2.1-4.3,6.7-7.1,11.2-7.5h81.7c0.8-0.1,1.4-0.1,1.5,1.7
			c-0.6-0.6-0.7-0.8-1.5-0.8h-37.8C335.1,9.1,291.3,9.1,291.3,9.1z"/>
		<path class="st29" d="M291.3,9.1c-2.4,0-7,1.2-11.3,6.6c2.1-4.2,6.7-7,11.2-7.4h81.7c0.8-0.1,1.4,0,1.5,1.6
			c-0.6-0.6-0.7-0.8-1.5-0.8h-37.8C335.1,9.1,291.3,9.1,291.3,9.1z"/>
		<path class="st30" d="M291.3,9.3c-2.3,0-7,1.1-11.3,6.5c2.1-4.2,6.8-7,11.2-7.4h81.7c0.8-0.1,1.4,0,1.6,1.6
			c-0.6-0.6-0.8-0.8-1.6-0.8h-37.8L291.3,9.3L291.3,9.3z"/>
		<path class="st31" d="M291.3,9.3c-2.2,0-7,1.1-11.3,6.4c2.1-4.2,6.8-6.9,11.2-7.3h81.7c0.8-0.1,1.4,0,1.6,1.6
			c-0.6-0.6-0.8-0.8-1.6-0.7h-37.8C335.1,9.3,291.3,9.3,291.3,9.3z"/>
		<path class="st32" d="M291.3,9.4c-2.2,0-7,1-11.3,6.4c2.1-4.1,6.8-6.9,11.2-7.3h81.7c0.8-0.1,1.4,0.1,1.6,1.6
			c-0.6-0.6-0.8-0.7-1.6-0.7H335C335,9.4,291.3,9.4,291.3,9.4z"/>
		<path class="st33" d="M291.3,9.5c-2.1,0-7,1-11.3,6.3c2.1-4.1,6.8-6.8,11.2-7.2h81.7c0.8-0.1,1.5,0.1,1.6,1.6
			c-0.6-0.6-0.8-0.7-1.6-0.7H335H291.3z"/>
		<path class="st34" d="M291.3,9.6c-2,0-7.1,0.9-11.4,6.3c2.1-4.1,6.8-6.8,11.3-7.2h81.7c0.8-0.1,1.5,0.1,1.6,1.6
			c-0.6-0.6-0.9-0.7-1.6-0.7H335C335,9.6,291.3,9.6,291.3,9.6z"/>
		<path class="st35" d="M291.3,9.7c-1.9,0-7.1,0.8-11.4,6.2c2.2-4,6.8-6.7,11.3-7.1h81.7c0.7-0.1,1.5,0.2,1.6,1.6
			c-0.6-0.6-0.9-0.7-1.6-0.7H335C335,9.7,291.3,9.7,291.3,9.7z"/>
		<path class="st36" d="M291.3,9.8c-1.9,0-7.1,0.8-11.4,6.2c2.2-4,6.8-6.7,11.3-7.1h81.7c0.7-0.1,1.5,0.2,1.6,1.6
			c-0.6-0.6-0.9-0.7-1.6-0.7H335H291.3z"/>
		<path class="st37" d="M291.3,9.9c-1.8,0-7.1,0.7-11.4,6.1c2.2-4,6.8-6.6,11.3-7h81.7c0.7-0.1,1.5,0.2,1.6,1.6
			c-0.6-0.6-0.9-0.7-1.6-0.7H335H291.3z"/>
		<path class="st38" d="M291.3,10c-1.7,0-7.1,0.7-11.4,6.1c2.2-3.9,6.9-6.6,11.3-6.9h81.7c0.7-0.1,1.5,0.3,1.6,1.6
			c-0.6-0.6-1-0.7-1.6-0.7H335h-43.7V10z"/>
		<path class="st39" d="M291.3,10.1c-1.6,0-7.1,0.6-11.4,6c2.2-3.9,6.9-6.5,11.3-6.9h81.7c0.7-0.1,1.5,0.3,1.6,1.6
			c-0.6-0.6-1-0.7-1.6-0.7H335H291.3z"/>
		<path class="st40" d="M291.3,10.2c-1.6,0-7.2,0.6-11.5,6c2.2-3.9,6.9-6.4,11.4-6.8h81.7c0.6-0.1,1.6,0.3,1.7,1.6
			c-0.6-0.6-1-0.7-1.7-0.7H335L291.3,10.2L291.3,10.2z"/>
		<path class="st41" d="M291.2,10.3c-1.5,0-7.2,0.5-11.5,5.9c2.2-3.8,6.9-6.4,11.4-6.8h81.7c0.6-0.1,1.6,0.4,1.7,1.5
			c-0.6-0.6-1-0.7-1.7-0.7h-37.9h-43.7V10.3z"/>
		<path class="st42" d="M291.2,10.4c-1.4,0-7.2,0.5-11.5,5.9c2.2-3.8,6.9-6.3,11.4-6.7h81.8c0.6-0.1,1.6,0.4,1.7,1.5
			c-0.6-0.6-1.1-0.7-1.7-0.7H335H291.2z"/>
	</g>
	<path class="st27" d="M152.8,9.2c-6.9,0-14.1,0-14.1,0c-1.7-0.2-1.8,2.2-1.8,2.2c-0.2-2.5,0.4-3.3,1.5-3.3h25.4
		c1,0,1.3,0.9,1.7,1.7c-0.6-0.4-0.6-0.6-1.5-0.6C163.8,9.2,158.2,9.2,152.8,9.2z"/>
	<path class="st43" d="M249.3,16.3c0.1-1.7-1.3-1.7-3-1.7l-29.7,1.2c-0.2,0-0.1,0.2-1.1,1.7c0.6-0.4,1.7-0.8,2.6-0.8
		c-0.1,0,28.6-1.2,28.6-1.2C247.9,15.4,249.3,16.3,249.3,16.3z"/>
	<path class="st27" d="M233.1,9.3c6.9,0,14.1-0.1,14.1-0.1c1.1,0,1.8,2.2,1.8,2.2c0-3.1-0.4-3.3-1.5-3.3l-25.7,0.1
		c-1,0-1.3,0.7-1.6,1.7c0.6-0.4,1.5-0.6,2.4-0.6C222.9,9.3,227.8,9.3,233.1,9.3z"/>
	<g>
		<path class="st44" d="M215.7,17.2c0.6-0.4,1.7-0.8,2.6-0.8c0,0,5.1-0.2,10.9-0.4c7.2-0.3,15.7-0.6,17.3-0.7c0.2,0,0.3,0,0.3,0
			c1.1,0,2.5,0.9,2.5,0.9c0.1-1.7-1.2-1.8-2.9-1.8l0,0L217,15.5h-0.1C216.5,15.6,216.6,15.8,215.7,17.2z"/>
		<path class="st45" d="M215.8,17c0.6-0.4,1.7-0.8,2.6-0.8c0,0,5.1-0.2,10.9-0.4c7.2-0.3,15.6-0.6,17.2-0.7c0.2,0,0.3,0,0.3,0
			c1.1,0,2.5,1,2.5,1c0.1-1.7-1.2-1.8-2.8-1.8c0,0,0,0-0.1,0l-29.3,1.1H217C216.7,15.3,216.7,15.6,215.8,17z"/>
		<path class="st46" d="M215.9,16.8c0.6-0.4,1.7-0.8,2.6-0.8c0,0,5.1-0.2,10.9-0.4c7.2-0.3,15.6-0.6,17-0.6c0.2,0,0.3,0,0.3,0
			c1.1,0,2.5,1,2.5,1c0.1-1.8-1.1-1.9-2.8-1.9h-0.1l-29.2,1H217C216.8,15.1,216.8,15.4,215.9,16.8z"/>
		<path class="st47" d="M216,16.6c0.6-0.4,1.7-0.8,2.6-0.8c0,0,5.1-0.2,10.9-0.4c7.2-0.3,15.5-0.6,16.9-0.6c0.2,0,0.3,0,0.3,0
			c1.1,0,2.4,1,2.4,1c0.1-1.8-1.1-1.9-2.7-1.9h-0.1l-29.1,1h-0.1C216.9,14.9,216.9,15.2,216,16.6z"/>
		<path class="st48" d="M216.2,16.3c0.6-0.4,1.7-0.8,2.6-0.8c0,0,5.1-0.2,10.9-0.4c7.2-0.2,15.5-0.5,16.8-0.6c0.2,0,0.3,0,0.3,0
			c1.1,0,2.4,1.1,2.4,1.1c0.1-1.8-1.1-2-2.6-2h-0.1l-29,1h-0.1C217.1,14.7,217,15,216.2,16.3z"/>
		<path class="st49" d="M216.3,16.1c0.6-0.4,1.7-0.8,2.6-0.8c0.1,0,5.1-0.2,10.9-0.4c7.1-0.2,15.4-0.5,16.7-0.6c0.2,0,0.3,0,0.3,0
			c1.1,0.1,2.4,1.1,2.4,1.1c0.1-1.9-1.1-2-2.6-2.1h-0.1l-28.9,0.9h-0.1C217.2,14.5,217.1,14.8,216.3,16.1z"/>
		<path class="st50" d="M216.4,15.9c0.6-0.4,1.7-0.8,2.6-0.8c0.1,0,5.2-0.2,11-0.3c7.1-0.2,15.4-0.5,16.6-0.5c0.2,0,0.3,0,0.3,0
			c1.1,0.1,2.3,1.2,2.3,1.2c0.1-1.9-1-2.1-2.5-2.1h-0.1l-28.8,0.9h-0.1C217.3,14.3,217.2,14.6,216.4,15.9z"/>
		<path class="st51" d="M216.6,15.7c0.6-0.4,1.8-0.7,2.6-0.7c0.1,0,5.2-0.2,11-0.3c7.1-0.2,15.3-0.5,16.5-0.5c0.2,0,0.3,0,0.3,0
			c1.1,0.1,2.3,1.2,2.3,1.2c0.1-1.9-1-2.1-2.5-2.2h-0.1L218,14h-0.1C217.4,14,217.3,14.4,216.6,15.7z"/>
		<path class="st52" d="M216.7,15.5c0.6-0.4,1.7-0.7,2.6-0.7c0.1,0,5.2-0.1,11-0.3c7.1-0.2,15.3-0.5,16.4-0.5c0.2,0,0.3,0,0.3,0
			c1.1,0.1,2.2,1.3,2.2,1.3c0.1-2-1-2.2-2.4-2.2c0,0-0.1,0-0.2,0L218,13.9h-0.1C217.6,13.8,217.4,14.2,216.7,15.5z"/>
		<path class="st42" d="M216.8,15.3c0.6-0.4,1.8-0.7,2.6-0.7c0.1,0,5.2-0.1,11-0.3c7.1-0.2,15.2-0.4,16.3-0.5c0.2,0,0.2,0,0.3,0
			c1.1,0.1,2.2,1.3,2.2,1.3c0.1-2-0.9-2.2-2.3-2.3c-0.1,0-0.1,0-0.2,0l-28.4,0.8h-0.1C217.7,13.6,217.6,14,216.8,15.3z"/>
		<path class="st42" d="M216.9,15.1c0.6-0.4,1.8-0.7,2.6-0.7c0.1,0,5.2-0.1,11-0.3c7.1-0.2,15.2-0.4,16.2-0.5c0.1,0,0.2,0,0.3,0
			c1.1,0.1,2.2,1.4,2.2,1.4c0.1-2-0.9-2.3-2.3-2.3c-0.1,0-0.1,0-0.2,0l-28.3,0.7h-0.1C217.8,13.4,217.7,13.8,216.9,15.1z"/>
		<path class="st53" d="M217.1,14.8c0.6-0.4,1.8-0.7,2.6-0.7c0.1,0,5.2-0.1,11-0.3c7-0.2,15.1-0.4,16.1-0.4c0.1,0,0.2,0,0.3,0
			c1.1,0.1,2.1,1.4,2.1,1.4c0.1-2.1-0.9-2.3-2.2-2.4c-0.1,0-0.1,0-0.2,0l-28.2,0.7h-0.1C218,13.2,217.8,13.6,217.1,14.8z"/>
		<path class="st54" d="M217.2,14.6c0.6-0.4,1.8-0.7,2.6-0.7c0.2,0,5.3-0.1,11-0.3c7-0.2,15.1-0.4,16-0.4c0.1,0,0.2,0,0.3,0
			c1.1,0.1,2.1,1.4,2.1,1.4c0.1-2.1-0.8-2.4-2.1-2.4c-0.1,0-0.1,0-0.2,0l-28.1,0.6h-0.1C218.1,13,217.9,13.4,217.2,14.6z"/>
		<path class="st55" d="M217.3,14.4c0.6-0.4,1.8-0.7,2.6-0.7c0.2,0,5.3-0.1,11-0.2c7-0.2,15-0.3,15.9-0.4c0.1,0,0.2,0,0.3,0
			c1.1,0.1,2.1,1.5,2.1,1.5c0.1-2.1-0.8-2.4-2.1-2.5c-0.1,0-0.2,0-0.2,0l-28,0.6h-0.1C218.2,12.7,218,13.2,217.3,14.4z"/>
		<path class="st55" d="M217.5,14.2c0.6-0.4,1.8-0.7,2.6-0.7c0.2,0,5.3-0.1,11-0.2c7-0.1,15-0.3,15.8-0.4c0.1,0,0.2,0,0.3,0
			c1.1,0.1,2,1.5,2,1.5c0.1-2.2-0.8-2.5-2-2.5c-0.1,0-0.2,0-0.3,0L219,12.5h-0.1C218.3,12.5,218.1,13,217.5,14.2z"/>
		<path class="st56" d="M217.6,14c0.6-0.4,1.8-0.7,2.6-0.7c0.2,0,5.3-0.1,11-0.2c7-0.1,14.9-0.3,15.7-0.3c0.1,0,0.2,0,0.3,0
			c1.1,0.2,2,1.6,2,1.6c0.1-2.2-0.7-2.5-1.9-2.6c-0.1,0-0.2,0-0.3,0l-27.8,0.5h-0.1C218.5,12.3,218.2,12.8,217.6,14z"/>
		<path class="st57" d="M217.7,13.7c0.6-0.4,1.8-0.7,2.6-0.7c0.2,0,5.3-0.1,11-0.2c7-0.1,14.9-0.3,15.5-0.3c0.1,0,0.2,0,0.3,0
			c1.1,0.2,2,1.6,2,1.6c0.1-2.2-0.7-2.6-1.9-2.6c-0.1,0-0.2,0-0.3,0L219.3,12h-0.1C218.6,12.1,218.3,12.6,217.7,13.7z"/>
		<path class="st58" d="M217.8,13.5c0.6-0.4,1.8-0.7,2.7-0.7c0.2,0,5.3-0.1,11-0.2c6.9-0.1,14.8-0.3,15.4-0.3c0.1,0,0.2,0,0.3,0
			c1.1,0.2,1.9,1.7,1.9,1.7c0.1-2.3-0.7-2.6-1.8-2.7c-0.1,0-0.2,0-0.3,0l-27.6,0.4h-0.1C218.7,11.9,218.4,12.4,217.8,13.5z"/>
		<path class="st59" d="M218,13.3c0.6-0.4,1.8-0.7,2.7-0.7c0.3,0,5.4-0.1,11-0.2c6.9-0.1,14.8-0.2,15.3-0.3c0.1,0,0.2,0,0.3,0
			c1,0.2,1.9,1.7,1.9,1.7c0.1-2.3-0.6-2.7-1.7-2.7c-0.1,0-0.2,0-0.3,0l-27.6,0.5h-0.1C218.9,11.7,218.5,12.2,218,13.3z"/>
		<path class="st41" d="M218.1,13.1c0.6-0.4,1.8-0.7,2.7-0.7c0.3,0,5.4-0.1,11-0.1c6.9-0.1,14.7-0.2,15.2-0.2c0.1,0,0.2,0,0.3,0
			c1,0.2,1.9,1.7,1.9,1.7c0.1-2.3-0.6-2.7-1.7-2.8c-0.1,0-0.2,0-0.3,0l-27.3,0.4h-0.1C219,11.4,218.6,12,218.1,13.1z"/>
		<path class="st60" d="M218.2,12.9c0.6-0.4,1.8-0.7,2.7-0.7c0.3,0,5.4-0.1,11-0.1c6.9-0.1,14.7-0.2,15.1-0.2c0.1,0,0.2,0,0.3,0
			c1,0.2,1.8,1.8,1.8,1.8c0-2.3-0.6-2.8-1.6-2.8c-0.1,0-0.2,0-0.3,0L220,11.2h-0.1C219.1,11.2,218.7,11.8,218.2,12.9z"/>
		<path class="st61" d="M218.4,12.7c0.6-0.4,1.8-0.6,2.7-0.6c0.3,0,5.4-0.1,11-0.1c6.9-0.1,14.6-0.2,15-0.2c0.1,0,0.2,0,0.3,0
			c1,0.2,1.8,1.8,1.8,1.8c0-2.4-0.5-2.8-1.5-2.9c-0.1,0-0.2,0-0.4,0L220.2,11h-0.1C219.3,11,218.8,11.6,218.4,12.7z"/>
		<path class="st62" d="M218.5,12.5c0.6-0.4,1.8-0.6,2.7-0.6c0.3,0,5.4,0,11-0.1c6.8-0.1,14.6-0.2,14.9-0.2c0.1,0,0.2,0,0.3,0
			c1,0.2,1.8,1.9,1.8,1.9c0-2.4-0.5-2.9-1.5-2.9c-0.1,0-0.2,0-0.4,0l-27,0.2h-0.1C219.4,10.8,218.9,11.4,218.5,12.5z"/>
		<path class="st63" d="M218.6,12.2c0.6-0.4,1.8-0.6,2.7-0.6c0.3,0,5.5,0,11-0.1c6.8-0.1,14.5-0.1,14.8-0.1c0.1,0,0.2,0,0.3,0
			c1,0.2,1.7,1.9,1.7,1.9c0-2.4-0.5-2.9-1.4-3c-0.1,0-0.3,0-0.4,0l-26.9,0.2h-0.1C219.5,10.6,219,11.2,218.6,12.2z"/>
		<path class="st64" d="M218.7,12c0.6-0.4,1.8-0.6,2.7-0.6c0.3,0,5.5,0,11-0.1c6.8-0.1,14.5-0.1,14.7-0.1c0.1,0,0.2,0,0.3,0
			c1,0.2,1.7,2,1.7,2c0-2.5-0.4-3-1.3-3.1c-0.1,0-0.3,0-0.4,0l-26.8,0.2h-0.1C219.6,10.4,219.1,11,218.7,12z"/>
		<path class="st65" d="M218.9,11.8c0.6-0.4,1.8-0.6,2.7-0.6c0.4,0,5.5,0,11-0.1c6.8,0,14.4-0.1,14.6-0.1c0.1,0,0.2,0,0.3,0
			c1,0.3,1.6,2,1.6,2c0-2.5-0.4-3-1.3-3.1c-0.1,0-0.3,0-0.4,0L220.7,10h-0.1C219.8,10.1,219.3,10.8,218.9,11.8z"/>
		<path class="st66" d="M219,11.6c0.6-0.4,1.8-0.6,2.7-0.6c0.4,0,5.5,0,11,0c6.8,0,14.4-0.1,14.5-0.1s0.2,0,0.3,0
			c1,0.3,1.6,2.1,1.6,2.1c0-2.5-0.4-3.1-1.2-3.2c-0.1,0-0.3,0-0.4,0l-26.6,0.1h-0.1C219.9,9.9,219.4,10.6,219,11.6z"/>
		<path class="st67" d="M219.1,11.4c0.6-0.4,1.8-0.6,2.7-0.6c0.4,0,5.5,0,11.1,0c6.8,0,14.3,0,14.4,0s0.2,0,0.3,0
			c1,0.3,1.6,2.1,1.6,2.1c0-2.6-0.3-3.1-1.1-3.2c-0.1,0-0.3,0-0.5,0h-26.5H221C220,9.7,219.5,10.4,219.1,11.4z"/>
	</g>
	<g>
		<path class="st68" d="M233.1,9.4c6.8,0,14.1-0.1,14.1-0.1c1.2,0,1.8,2.2,1.8,2.2c0-3.1-0.4-3.3-1.5-3.3l-25.8,0.1
			c-1,0-1.3,0.7-1.6,1.7c0.6-0.4,1.5-0.6,2.4-0.6C222.9,9.4,227.8,9.4,233.1,9.4z"/>
		<path class="st69" d="M233.1,9.4c6.8,0,14.1-0.1,14.1-0.1c1.2,0,1.8,2.2,1.8,2.2c0-3.1-0.4-3.3-1.5-3.3l-25.8,0.1
			c-1,0-1.3,0.7-1.6,1.7c0.6-0.4,1.5-0.6,2.4-0.6C222.8,9.5,227.7,9.5,233.1,9.4z"/>
		<path class="st70" d="M233.1,9.5c6.8,0,14.1-0.1,14.1-0.1c1.2,0,1.8,2.2,1.8,2.2c0-3.1-0.4-3.3-1.5-3.3l-25.8,0.1
			c-1,0-1.3,0.7-1.6,1.7c0.6-0.4,1.5-0.6,2.4-0.6C222.8,9.5,227.7,9.5,233.1,9.5z"/>
		<path class="st71" d="M233.1,9.6c6.8,0,14.1-0.1,14.1-0.1c1.1,0,1.8,2.2,1.8,2.2c0-3.1-0.4-3.3-1.5-3.3l-25.9,0.1
			c-1,0-1.3,0.7-1.6,1.7c0.6-0.4,1.5-0.6,2.4-0.6C222.8,9.6,227.7,9.6,233.1,9.6z"/>
		<path class="st72" d="M233.1,9.7c6.8,0,14.1-0.1,14.1-0.1c1.2,0,1.8,2.2,1.8,2.2c0-3.1-0.4-3.3-1.5-3.3l-25.9,0.1
			c-1,0-1.3,0.7-1.6,1.7c0.6-0.4,1.5-0.6,2.4-0.6C222.7,9.7,227.7,9.7,233.1,9.7z"/>
		<path class="st73" d="M233.1,9.8c6.8,0,14.1-0.1,14.1-0.1c1.1,0,1.8,2.2,1.8,2.2c0-3.1-0.4-3.3-1.5-3.3h-25.9
			c-1,0-1.3,0.7-1.6,1.7c0.6-0.4,1.5-0.6,2.4-0.6C222.7,9.8,227.7,9.8,233.1,9.8z"/>
		<path class="st74" d="M233.1,9.8c6.8,0,14.1-0.1,14.1-0.1c1.2,0,1.8,2.2,1.8,2.2c0-3.1-0.4-3.3-1.5-3.3h-26
			c-0.9,0-1.3,0.7-1.6,1.7c0.6-0.4,1.5-0.6,2.4-0.6C222.7,9.9,227.6,9.8,233.1,9.8z"/>
		<path class="st75" d="M233.1,9.9c6.8,0,14.2-0.1,14.2-0.1c1.2,0,1.8,2.2,1.8,2.2c0-3.1-0.4-3.3-1.5-3.3h-26c-1,0-1.3,0.7-1.6,1.7
			c0.6-0.4,1.5-0.6,2.4-0.6C222.6,9.9,227.6,9.9,233.1,9.9z"/>
		<path class="st76" d="M233.1,10c6.8,0,14.2-0.1,14.2-0.1c1.1,0,1.8,2.2,1.8,2.2c0-3.1-0.4-3.3-1.5-3.3h-26.1c-1,0-1.3,0.7-1.6,1.7
			c0.6-0.4,1.5-0.6,2.4-0.6C222.6,10,227.6,10,233.1,10z"/>
		<path class="st77" d="M233.1,10.1c6.8,0,14.2-0.1,14.2-0.1c1.2,0,1.8,2.2,1.8,2.2c0-3.1-0.4-3.3-1.5-3.3h-26.1
			c-1,0-1.3,0.7-1.6,1.7c0.6-0.4,1.5-0.6,2.4-0.6C222.6,10.1,227.6,10.1,233.1,10.1z"/>
		<path class="st36" d="M233,10.2c6.8,0,14.2,0,14.2,0c1.2,0,1.8,2.2,1.8,2.2c0-3.1-0.4-3.3-1.5-3.3h-26.1c-1,0-1.3,0.7-1.6,1.7
			c0.6-0.4,1.5-0.6,2.4-0.6C222.5,10.2,227.6,10.2,233,10.2z"/>
		<path class="st78" d="M233,10.2c6.8,0,14.2,0,14.2,0c1.2,0,1.8,2.2,1.8,2.2c0-3.1-0.4-3.3-1.5-3.3h-26.2c-1,0-1.3,0.7-1.6,1.7
			c0.6-0.4,1.5-0.6,2.4-0.6C222.5,10.2,227.6,10.2,233,10.2z"/>
		<path class="st79" d="M233,10.3c6.8,0,14.2,0,14.2,0c1.2,0,1.8,2.2,1.8,2.2c0-3.1-0.4-3.3-1.5-3.3h-26.2c-1,0-1.3,0.7-1.6,1.7
			c0.6-0.4,1.5-0.6,2.4-0.6C222.4,10.3,227.5,10.3,233,10.3z"/>
		<path class="st80" d="M233,10.4c6.8,0,14.2,0,14.2,0c1.1,0,1.8,2.2,1.8,2.2c0-3.1-0.4-3.3-1.5-3.3h-26.3c-1,0-1.3,0.7-1.6,1.7
			c0.6-0.4,1.5-0.6,2.4-0.6C222.4,10.4,227.5,10.4,233,10.4z"/>
		<path class="st81" d="M233,10.5c6.8,0,14.3,0,14.3,0c1.2,0,1.8,2.2,1.8,2.2c0-3.1-0.4-3.3-1.5-3.3h-26.3c-1,0-1.3,0.7-1.6,1.7
			c0.6-0.4,1.5-0.6,2.4-0.6C222.4,10.5,227.5,10.5,233,10.5z"/>
		<path class="st82" d="M233,10.5c6.7,0,14.3,0,14.3,0c1.1,0,1.8,2.2,1.8,2.2c0-3.1-0.4-3.3-1.5-3.3h-26.4c-1,0-1.6,0.7-1.9,1.7
			c0.6-0.4,1.8-0.6,2.7-0.6C222.3,10.6,227.5,10.6,233,10.5z"/>
	</g>
	<g>
		<path class="st68" d="M20,8.2h86.8c0.5,0.1,0.7,0.3,0.9,1.8c-0.3-0.8-0.4-0.9-0.9-0.9H63.5H20.1c-2.5,0-7.6,1.2-11.3,6.7
			C10.5,11.5,15.5,8.6,20,8.2z"/>
		<path class="st83" d="M20,8.3h86.7c0.6,0.1,0.8,0.3,1,1.8c-0.4-0.8-0.4-0.9-1-0.9H63.5H20.1c-2.4,0-7.6,1.2-11.3,6.6
			C10.5,11.6,15.5,8.7,20,8.3z"/>
		<path class="st84" d="M20,8.4h86.7c0.6,0.1,0.9,0.2,1.1,1.7c-0.4-0.7-0.5-0.9-1.1-0.9H63.5H20.1c-2.3,0-7.6,1.1-11.3,6.5
			C10.6,11.7,15.5,8.9,20,8.4z"/>
		<path class="st85" d="M20,8.6h86.6c0.6,0.1,1,0.2,1.1,1.7c-0.4-0.7-0.5-0.8-1.1-0.8h-43H20.1c-2.2,0-7.5,1-11.3,6.4
			C10.6,11.7,15.5,9,20,8.6z"/>
		<path class="st86" d="M20,8.7h86.6c0.6,0.1,1.1,0.1,1.2,1.7c-0.4-0.7-0.6-0.8-1.2-0.8h-43H20.1c-2.1,0-7.5,0.9-11.4,6.3
			C10.6,11.8,15.5,9.1,20,8.7z"/>
		<path class="st87" d="M20,8.8h86.5c0.6,0.1,1.2,0.1,1.2,1.7c-0.4-0.7-0.7-0.8-1.2-0.8h-43H20.1c-2,0-7.5,0.8-11.4,6.2
			C10.6,11.9,15.5,9.2,20,8.8z"/>
		<path class="st88" d="M20,9h86.4c0.6,0.1,1.2,0,1.3,1.7c-0.5-0.7-0.7-0.8-1.3-0.8H63.5H20.1c-1.9,0-7.4,0.8-11.4,6.2
			C10.7,12,15.5,9.4,20,9z"/>
		<path class="st89" d="M20,9.1h86.4c0.6,0.1,1.3,0,1.4,1.7c-0.5-0.7-0.8-0.8-1.4-0.8H63.5H20.1c-1.8,0-7.4,0.7-11.4,6.1
			C10.7,12.1,15.5,9.5,20,9.1z"/>
		<path class="st35" d="M20,9.2h86.3c0.7,0.1,1.4-0.1,1.4,1.6c-0.5-0.6-0.9-0.8-1.4-0.8H63.5H20.1c-1.7,0-7.3,0.6-11.4,6
			C10.7,12.2,15.5,9.6,20,9.2z"/>
		<path class="st90" d="M20,9.3h86.3c0.7,0.1,1.5-0.1,1.5,1.6c-0.5-0.6-0.9-0.7-1.5-0.7H63.5H20.1c-1.6,0-7.3,0.5-11.5,5.9
			C10.7,12.3,15.5,9.7,20,9.3z"/>
		<path class="st91" d="M20,9.5h86.2c0.7,0.1,1.6-0.2,1.6,1.6c-0.5-0.6-1-0.7-1.6-0.7H63.5H20.1c-1.5,0-7.3,0.4-11.5,5.8
			C10.8,12.4,15.5,9.9,20,9.5z"/>
	</g>
	<path class="st78" d="M20,9.6h86.2c0.7,0.1,1.7-0.2,1.6,1.6c-0.6-0.6-1-0.7-1.6-0.7H63.5H20.1c-1.4,0-7.2,0.4-11.5,5.7
		C10.8,12.5,15.5,10,20,9.6z"/>
	<g>
		<path class="st92" d="M19.9,9.8l86.2-0.1c0.7,0.1,1.7-0.2,1.6,1.6c-0.6-0.6-1-0.7-1.6-0.7H63.5L20,10.7l0,0
			c-1.4,0-7.3,0.4-11.5,5.6C10.7,12.6,15.4,10.2,19.9,9.8z"/>
		<path class="st78" d="M19.9,10l86.2-0.2c0.7,0.1,1.7-0.2,1.6,1.6c-0.6-0.6-1.1-0.7-1.6-0.7l-42.6,0.1L20,10.9l0,0
			c-1.4,0-7.3,0.4-11.5,5.5C10.7,12.8,15.4,10.4,19.9,10z"/>
		<path class="st78" d="M19.9,10.2l86.2-0.3c0.7,0.1,1.7-0.3,1.7,1.6c-0.6-0.6-1.1-0.7-1.7-0.7L63.5,11L20,11.2l0,0
			c-1.4,0-7.4,0.3-11.5,5.4C10.6,12.9,15.4,10.6,19.9,10.2z"/>
		<path class="st93" d="M19.9,10.4l86.3-0.4c0.7,0.1,1.8-0.3,1.7,1.6c-0.6-0.6-1.1-0.7-1.7-0.7l-42.6,0.2l-43.5,0.2l0,0
			c-1.3,0-7.4,0.3-11.5,5.3C10.6,13.1,15.4,10.8,19.9,10.4z"/>
		<path class="st94" d="M19.8,10.6l86.3-0.5c0.7,0.1,1.8-0.3,1.7,1.6c-0.6-0.6-1.1-0.7-1.7-0.7l-42.6,0.3L20,11.6l0,0
			c-1.3,0-7.5,0.3-11.6,5.2C10.5,13.2,15.3,11,19.8,10.6z"/>
	</g>
	<g>
		<path class="st91" d="M19.8,10.8l86.3-0.6c0.7,0.1,1.8-0.3,1.7,1.6c-0.6-0.6-1.1-0.7-1.7-0.7l-42.6,0.3l-43.6,0.3l0,0
			c-1.3,0-7.5,0.3-11.6,5.1C10.4,13.4,15.3,11.2,19.8,10.8z"/>
	</g>
	<g>
		<path class="st94" d="M19.8,11l86.3-0.8c0.7,0.1,1.8-0.3,1.7,1.6c-0.6-0.6-1.1-0.7-1.7-0.7l-42.6,0.4l-43.6,0.4l0,0
			c-1.3,0-7.6,0.3-11.6,5C10.4,13.5,15.3,11.4,19.8,11z"/>
		<path class="st93" d="M19.7,11.2l86.4-0.9c0.7,0.1,1.8-0.3,1.7,1.6c-0.6-0.6-1.1-0.7-1.7-0.7l-42.6,0.4l-43.7,0.5l0,0
			c-1.3,0-7.7,0.3-11.6,4.9C10.3,13.7,15.2,11.6,19.7,11.2z"/>
		<path class="st78" d="M19.7,11.4l86.4-1c0.7,0.1,1.8-0.3,1.7,1.6c-0.6-0.6-1.1-0.7-1.7-0.7l-42.5,0.5l-43.7,0.5l0,0
			c-1.3,0-7.7,0.3-11.6,4.9C10.2,13.9,15.2,11.8,19.7,11.4z"/>
		<path class="st92" d="M19.7,11.6l86.4-1.1c0.7,0.1,1.8-0.3,1.7,1.6c-0.6-0.6-1.1-0.7-1.7-0.7L63.6,12l-43.8,0.6l0,0
			c-1.3,0-7.8,0.3-11.6,4.8C10.2,14,15.2,12,19.7,11.6z"/>
		<path class="st37" d="M19.7,11.8l86.5-1.3c0.7,0.1,1.8-0.3,1.7,1.6c-0.6-0.6-1.1-0.7-1.7-0.7L63.7,12l-43.8,0.7h-0.1
			c-1.3,0-7.9,0.3-11.7,4.7C10.1,14.2,15.2,12.2,19.7,11.8z"/>
		<path class="st95" d="M19.6,12l86.5-1.4c0.7,0.1,1.8-0.3,1.7,1.6c-0.6-0.6-1.1-0.7-1.7-0.7l-42.4,0.7l-43.9,0.7h-0.1
			c-1.3,0-7.9,0.3-11.7,4.6C10,14.4,15.1,12.4,19.6,12z"/>
		<path class="st96" d="M19.6,12.2l86.5-1.5c0.7,0.1,1.8-0.3,1.7,1.6c-0.6-0.6-1.1-0.7-1.7-0.7l-42.4,0.7l-44,0.8h-0.1
			c-1.3,0-8,0.3-11.7,4.5C10,14.5,15.1,12.6,19.6,12.2z"/>
		<path class="st97" d="M19.6,12.5l86.6-1.6c0.7,0.1,1.8-0.3,1.7,1.6c-0.6-0.6-1.1-0.7-1.7-0.7l-42.4,0.8l-44,0.8h-0.1
			c-1.3,0-8.1,0.3-11.7,4.4C9.9,14.7,15.1,12.8,19.6,12.5z"/>
		<path class="st98" d="M19.5,12.7l86.6-1.8c0.7,0.1,1.8-0.3,1.7,1.6c-0.6-0.6-1.1-0.7-1.7-0.7l-42.3,0.8l-44.1,0.9h-0.1
			c-1.3,0-8.1,0.3-11.7,4.3C9.8,14.8,15,13,19.5,12.7z"/>
		<path class="st99" d="M19.5,12.9l86.6-1.9c0.7,0.1,1.8-0.3,1.7,1.6c-0.6-0.6-1.1-0.7-1.7-0.7l-42.3,0.9l-44.1,1h-0.1
			c-1.3,0-8.2,0.3-11.7,4.2C9.8,15,15,13.3,19.5,12.9z"/>
		<path class="st79" d="M19.5,13.1l86.7-2c0.7,0.1,1.8-0.3,1.7,1.6c-0.6-0.6-1.1-0.7-1.7-0.7l-42.3,1l-44.2,1h-0.1
			c-1.3,0-8.3,0.4-11.8,4.1C9.7,15.2,15,13.5,19.5,13.1z"/>
		<path class="st100" d="M19.4,13.3l86.7-2.1c0.7,0.1,1.8-0.3,1.7,1.6c-0.6-0.6-1.1-0.7-1.7-0.7l-42.3,1l-44.3,1.1h-0.1
			c-1.3,0-8.3,0.4-11.8,4C9.6,15.3,14.9,13.7,19.4,13.3z"/>
		<path class="st101" d="M19.4,13.5l86.7-2.3c0.7,0.1,1.8-0.3,1.7,1.6c-0.6-0.6-1.1-0.7-1.7-0.7l-42.2,1.1l-44.3,1.2h-0.1
			c-1.3,0-8.4,0.4-11.8,3.9C9.6,15.5,14.9,13.9,19.4,13.5z"/>
		<path class="st102" d="M19.4,13.7l86.7-2.4c0.7,0.1,1.8-0.3,1.7,1.6c-0.6-0.6-1.1-0.7-1.7-0.7l-42.2,1.2l-44.3,1.2h-0.1
			c-1.3,0-8.4,0.4-11.8,3.8C9.5,15.7,14.9,14.1,19.4,13.7z"/>
		<path class="st38" d="M19.4,13.9l86.8-2.5c0.7,0.1,1.8-0.3,1.7,1.6c-0.6-0.6-1.1-0.7-1.7-0.7L64,13.5l-44.4,1.3h-0.1
			c-1.3,0-8.5,0.4-11.8,3.7C9.4,15.8,14.9,14.3,19.4,13.9z"/>
		<path class="st103" d="M19.3,14.1l86.8-2.7c0.7,0.1,1.8-0.3,1.7,1.6c-0.6-0.6-1.1-0.7-1.7-0.7L64,13.6L19.5,15h-0.1
			c-1.3,0-8.6,0.4-11.8,3.6C9.3,16,14.8,14.5,19.3,14.1z"/>
		<path class="st104" d="M19.3,14.3l86.8-2.8c0.7,0.1,1.8-0.3,1.7,1.6c-0.6-0.6-1.1-0.7-1.7-0.7L64,13.7l-44.5,1.4h-0.1
			c-1.3,0-8.6,0.4-11.9,3.5C9.3,16.1,14.8,14.7,19.3,14.3z"/>
		<path class="st105" d="M19.3,14.5l86.9-2.9c0.7,0.1,1.8-0.3,1.7,1.6c-0.6-0.6-1.1-0.7-1.7-0.7l-42.1,1.4l-44.6,1.5h-0.1
			c-1.3,0-8.7,0.4-11.9,3.4C9.2,16.3,14.8,14.9,19.3,14.5z"/>
		<path class="st80" d="M19.2,14.7l86.9-3c0.7,0.1,1.8-0.3,1.7,1.6c-0.6-0.6-1.1-0.7-1.7-0.7l-42,1.5l-44.6,1.5h-0.2
			c-1.3,0-8.8,0.4-11.9,3.3C9.1,16.5,14.7,15.1,19.2,14.7z"/>
		<path class="st106" d="M19.2,14.9l86.9-3.2c0.7,0.1,1.8-0.3,1.7,1.6c-0.6-0.6-1.1-0.7-1.7-0.7l-42,1.5l-44.7,1.6h-0.1
			c-1.3,0-8.8,0.4-11.9,3.2C9.1,16.6,14.7,15.3,19.2,14.9z"/>
		<path class="st107" d="M19.2,15.1l87-3.3c0.7,0.1,1.8-0.3,1.7,1.6c-0.6-0.6-1.1-0.7-1.7-0.7l-42,1.6L19.4,16h-0.1
			c-1.3,0-8.9,0.4-11.9,3.1C9,16.8,14.7,15.5,19.2,15.1z"/>
		<path class="st108" d="M19.2,15.3l87-3.4c0.7,0.1,1.8-0.3,1.7,1.6c-0.6-0.6-1.1-0.7-1.7-0.7l-41.9,1.6l-44.8,1.8h-0.1
			c-1.3,0-9,0.4-11.9,3C8.9,17,14.6,15.7,19.2,15.3z"/>
		<path class="st108" d="M19.1,15.6l87-3.5c0.7,0.1,1.8-0.3,1.7,1.6c-0.6-0.6-1.1-0.7-1.7-0.7l-41.9,1.6l-44.9,1.8h-0.1
			c-1.3,0-9,0.4-12,2.9C8.9,17.1,14.6,15.9,19.1,15.6z"/>
		<path class="st39" d="M19.1,15.8l87.1-3.7c0.7,0.1,1.8-0.3,1.7,1.6c-0.6-0.6-1.1-0.7-1.7-0.7l-41.9,1.7l-45,1.9h-0.1
			c-1.3,0-9.1,0.4-12,2.8C8.8,17.3,14.6,16.2,19.1,15.8z"/>
		<path class="st109" d="M19.1,16l87.1-3.8c0.7,0.1,1.8-0.3,1.7,1.6c-0.6-0.6-1.1-0.7-1.7-0.7l-41.9,1.8l-45,2h-0.1
			c-1.3,0-9.2,0.4-12,2.7C8.7,17.4,14.6,16.4,19.1,16z"/>
	</g>
	<path class="st81" d="M7.1,19.7c1.5-2.1,7.4-3.1,11.9-3.5l87.1-3.9c0.7,0.1,1.8-0.3,1.7,1.6c-0.6-0.6-1.1-0.7-1.7-0.7l-87,3.9
		C17.9,17.1,9.9,17.4,7.1,19.7z"/>
	<g>
		<path class="st110" d="M138.5,8.2H164c1,0,1.3,0.8,1.7,1.7c-0.6-0.4-0.6-0.6-1.5-0.6c0,0-0.1,0-0.2,0c-1,0-6.1,0-11.1,0
			c-6.9,0-14.1,0-14.1,0c-1.6-0.2-1.8,1.9-1.8,2.2l0,0C136.8,8.9,137.3,8.2,138.5,8.2z"/>
		<path class="st111" d="M138.5,8.3H164c1,0,1.3,0.8,1.7,1.7c-0.6-0.4-0.6-0.6-1.5-0.6c-0.1,0-0.2,0-0.3,0c-1,0-6.1,0-11.1,0
			c-6.8,0-14.1,0-14.1,0c-1.6-0.2-1.8,2-1.8,2.2l0,0C136.8,9,137.3,8.2,138.5,8.3z"/>
		<path class="st112" d="M138.5,8.4H164c1,0,1.3,0.8,1.7,1.7c-0.6-0.4-0.6-0.6-1.5-0.6c-0.1,0-0.2,0-0.3,0c-1,0-6.1,0-11.1,0
			c-6.8,0-14.1,0-14.1,0c-1.5-0.2-1.8,2-1.8,2.2l0,0C136.8,9,137.3,8.3,138.5,8.4z"/>
		<path class="st113" d="M138.5,8.4h25.6c1,0,1.2,0.8,1.7,1.7c-0.6-0.4-0.7-0.6-1.5-0.6c-0.1,0-0.2,0-0.4,0c-0.9,0-6,0-11.1,0
			c-6.8,0-14.1,0-14.1,0c-1.5-0.2-1.8,2-1.8,2.2l0,0C136.8,9.1,137.3,8.4,138.5,8.4z"/>
		<path class="st114" d="M138.5,8.5h25.6c0.9,0,1.2,0.8,1.7,1.7c-0.6-0.4-0.7-0.6-1.5-0.6c-0.1,0-0.2,0-0.4,0c-0.9,0-6,0-11.1,0
			c-6.8,0-14.1,0-14.1,0c-1.5-0.2-1.8,2-1.8,2.2l0,0C136.8,9.1,137.3,8.5,138.5,8.5z"/>
		<path class="st115" d="M138.5,8.6h25.7c0.9,0,1.2,0.8,1.7,1.7c-0.5-0.4-0.7-0.6-1.5-0.6c-0.1,0-0.3,0-0.4,0c-0.8,0-6,0-11.1,0
			c-6.8,0-14.1,0-14.1,0c-1.4-0.1-1.8,2-1.8,2.2l0,0C136.8,9.2,137.3,8.6,138.5,8.6z"/>
		<path class="st116" d="M138.5,8.7h25.7c1,0,1.2,0.8,1.7,1.7c-0.5-0.4-0.7-0.6-1.5-0.6c-0.1,0-0.3,0-0.5,0c-0.8,0-5.9,0-11.1,0
			c-6.8,0-14.1,0-14.1,0c-1.4-0.1-1.8,2-1.8,2.2l0,0C136.8,9.2,137.4,8.7,138.5,8.7z"/>
		<path class="st117" d="M138.5,8.8h25.8c1,0,1.2,0.8,1.7,1.7c-0.5-0.4-0.8-0.5-1.5-0.6c-0.2,0-0.3,0-0.5,0c-0.8,0-5.9,0-11.1,0
			c-6.8,0-14.1,0-14.1,0c-1.4-0.1-1.8,2.1-1.8,2.2l0,0C136.8,9.3,137.4,8.7,138.5,8.8z"/>
		<path class="st118" d="M138.5,8.8h25.8c0.9,0,1.2,0.8,1.7,1.7c-0.5-0.4-0.8-0.5-1.5-0.6c-0.2,0-0.4,0-0.6,0c-0.7,0-5.8,0-11.1,0
			c-6.8,0-14.1,0-14.1,0c-1.4-0.1-1.8,2.1-1.8,2.2l0,0C136.8,9.3,137.4,8.8,138.5,8.8z"/>
		<path class="st119" d="M138.5,8.9h25.9c0.9,0,1.2,0.7,1.7,1.7c-0.5-0.4-0.8-0.5-1.5-0.6c-0.2,0-0.4,0-0.6,0c-0.7,0-5.8,0-11.1,0
			c-6.8,0-14.1,0-14.1,0c-1.3-0.1-1.8,2.1-1.8,2.2l0,0C136.9,9.4,137.4,8.9,138.5,8.9z"/>
		<path class="st120" d="M138.5,9h25.9c1,0,1.2,0.7,1.7,1.7c-0.5-0.3-0.8-0.5-1.5-0.6c-0.2,0-0.4,0-0.7,0c-0.6,0-5.8,0-11.1,0
			c-6.8,0-14.1,0-14.1,0c-1.3-0.1-1.8,2.1-1.8,2.2l0,0C136.9,9.4,137.4,9,138.5,9z"/>
		<path class="st121" d="M138.5,9.1h25.9c1,0,1.2,0.7,1.7,1.7c-0.5-0.3-0.8-0.5-1.5-0.6c-0.2,0-0.5,0-0.7,0c-0.6,0-5.7,0-11.1,0
			c-6.8,0-14.1,0-14.1,0c-1.3-0.1-1.8,2.1-1.9,2.2l0,0C136.9,9.5,137.4,9.1,138.5,9.1z"/>
		<path class="st78" d="M138.5,9.2h26c1,0,1.2,0.7,1.7,1.7c-0.5-0.3-0.9-0.5-1.5-0.6c-0.2,0-0.5,0-0.7,0c-0.6,0-5.7,0-11.1,0
			c-6.8,0-14.1,0-14.1,0c-1.3,0-1.9,2.1-1.9,2.2l0,0C136.9,9.5,137.4,9.2,138.5,9.2z"/>
		<path class="st79" d="M138.5,9.3h26c1,0,1.2,0.7,1.7,1.7c-0.5-0.3-0.9-0.5-1.5-0.5c-0.3,0-0.5,0-0.8,0c-0.5,0-5.7,0-11.1,0
			c-6.8,0-14.1,0-14.1,0c-1.2,0-1.9,2.2-1.9,2.2l0,0C136.9,9.6,137.4,9.3,138.5,9.3z"/>
		<path class="st105" d="M138.5,9.3h26.1c0.9,0,1.2,0.7,1.7,1.7c-0.4-0.3-0.9-0.5-1.5-0.5c-0.3,0-0.5-0.1-0.8-0.1
			c-0.5,0-5.6,0-11.1,0c-6.8,0-14.1,0-14.1,0c-1.2,0-1.9,2.2-1.9,2.2l0,0C136.9,9.6,137.4,9.3,138.5,9.3z"/>
		<path class="st81" d="M138.5,9.4h26.1c1,0,1.2,0.7,1.7,1.7c-0.4-0.3-0.9-0.5-1.5-0.5c-0.3,0-0.6-0.1-0.9-0.1c-0.4,0-5.6,0-11.1,0
			c-6.8,0-14.1,0-14.1,0c-1.2,0-1.9,2.2-1.9,2.2l0,0C136.9,9.7,137.4,9.4,138.5,9.4z"/>
	</g>
	<path class="st122" d="M136.8,12.9c0-3.1,0.7-3.4,1.8-3.4h26.6c0.7,0,1,0.6,1.7,1.7c-0.6-0.4-1.6-0.6-2.5-0.6c-0.4,0-6,0-11.5,0
		c-6.7,0-14.1,0-14.1,0C137.7,10.6,136.8,12.9,136.8,12.9z"/>
	<g>
		<path class="st40" d="M138.8,11.2c-0.8,0-1.4,1-1.7,1.6c-0.2,0.3-0.3,0.6-0.3,0.5c0-1.9,0.4-2.6,0.9-3c0.3-0.2,0.6-0.3,1-0.3
			l26.8-0.1c0.7,0,1.1,0.6,1.7,1.7c-0.5-0.5-1.5-0.6-2.5-0.6h-0.1c-0.8,0-6.1,0-11.4,0C146.3,11.2,138.8,11.2,138.8,11.2z"/>
	</g>
	<g>
		<path class="st82" d="M138.7,10.5l26.9-0.2c0.7,0,1.1,0.6,1.7,1.7c-0.5-0.5-1.5-0.6-2.5-0.6h-0.1h-0.1c-1,0-6.1,0-11.3,0.1
			c-6.9,0-14.3,0.1-14.4,0.1h-0.1c-0.7,0.1-1.3,1-1.6,1.5c0,0.1-0.1,0.1-0.1,0.1c-0.1,0.2-0.2,0.4-0.2,0.3c0-1.9,0.4-2.6,0.9-2.9
			C138,10.6,138.3,10.5,138.7,10.5z"/>
		<path class="st67" d="M138.8,10.9l27-0.2c0.7,0,1.1,0.6,1.7,1.7c-0.5-0.5-1.6-0.6-2.5-0.6h-0.1c-0.1,0-0.1,0-0.2,0
			c-1,0-6.1,0.1-11.3,0.1C146.5,12,139,12,138.8,12h-0.1c-0.7,0.1-1.4,1-1.7,1.5c0,0.1-0.1,0.1-0.1,0.1c-0.1,0.2-0.2,0.3-0.2,0.3
			c0-1.8,0.4-2.5,1-2.8C138,11,138.4,10.9,138.8,10.9z"/>
		<path class="st66" d="M138.8,11.4l27.2-0.3c0.7,0,1.1,0.6,1.7,1.7c-0.5-0.5-1.6-0.6-2.6-0.6H165c-0.1,0-0.1,0-0.2,0
			c-0.9,0-6,0.1-11.3,0.1c-6.9,0.1-14.5,0.2-14.7,0.2h-0.1c-0.8,0.1-1.4,1-1.7,1.5c0,0.1-0.1,0.1-0.1,0.1c-0.1,0.2-0.2,0.3-0.2,0.2
			c0-1.8,0.4-2.5,1-2.8C138.1,11.4,138.4,11.4,138.8,11.4z"/>
		<path class="st65" d="M138.9,11.8l27.3-0.4c0.7,0,1.1,0.6,1.7,1.7c-0.5-0.5-1.6-0.6-2.6-0.6c0,0-0.1,0-0.2,0c-0.1,0-0.2,0-0.2,0
			c-0.8,0-5.9,0.1-11.2,0.2c-6.9,0.1-14.6,0.2-14.9,0.2c-0.1,0-0.1,0-0.1,0c-0.8,0.1-1.4,1-1.7,1.5c0,0.1-0.1,0.1-0.1,0.1
			c-0.1,0.1-0.2,0.2-0.1,0.2c0-1.8,0.5-2.4,1.1-2.7C138.1,11.8,138.5,11.8,138.9,11.8z"/>
		<path class="st64" d="M138.9,12.2l27.4-0.5c0.7,0,1.1,0.6,1.7,1.7c-0.5-0.4-1.6-0.6-2.6-0.6h-0.1c-0.1,0-0.2,0-0.3,0
			c-0.7,0-5.8,0.1-11.2,0.2c-7,0.1-14.7,0.3-15.1,0.3c-0.1,0-0.1,0-0.1,0c-0.8,0.1-1.4,1-1.7,1.5l-0.1,0.1c-0.1,0.1-0.1,0.2-0.1,0.1
			c0-1.8,0.5-2.4,1.1-2.7C138.2,12.2,138.5,12.2,138.9,12.2z"/>
		<path class="st63" d="M139,12.6l27.6-0.5c0.6,0,1.1,0.6,1.7,1.7c-0.5-0.4-1.6-0.6-2.6-0.6c-0.1,0-0.1,0-0.2,0c-0.1,0-0.2,0-0.3,0
			c-0.7,0-5.8,0.1-11.2,0.2c-7,0.1-14.8,0.3-15.2,0.3c-0.1,0-0.1,0-0.1,0c-0.8,0.1-1.5,1-1.7,1.5c0,0.1-0.1,0.1-0.1,0.1
			c-0.1,0.1-0.1,0.1-0.1,0.1c0-1.8,0.5-2.3,1.2-2.6C138.2,12.6,138.6,12.6,139,12.6z"/>
		<path class="st62" d="M139,13l27.7-0.6c0.6,0,1.2,0.6,1.7,1.7c-0.5-0.4-1.7-0.6-2.6-0.6c0,0-0.1,0-0.2,0c-0.1,0-0.2,0-0.3,0
			c-0.6,0-5.7,0.1-11.2,0.3c-7,0.2-14.9,0.4-15.4,0.4c-0.1,0-0.1,0-0.1,0c-0.8,0.1-1.5,1-1.7,1.4c0,0.1-0.1,0.1-0.1,0.1
			c-0.1,0.1-0.1,0.1-0.1,0c0.1-1.8,0.5-2.3,1.2-2.5C138.3,13,138.6,13,139,13z"/>
		<path class="st61" d="M139,13.4l27.8-0.7c0.6,0,1.2,0.7,1.7,1.7c-0.5-0.4-1.7-0.6-2.7-0.6c0,0-0.1,0-0.2,0c-0.1,0-0.2,0-0.3,0
			c-0.5,0-5.6,0.1-11.1,0.3c-7,0.2-15,0.4-15.6,0.4c-0.1,0-0.1,0-0.1,0c-0.9,0-1.5,1-1.7,1.4c0,0.1-0.1,0.1-0.1,0.1
			c-0.1,0-0.1,0-0.1,0c0.1-1.8,0.6-2.2,1.3-2.5C138.3,13.4,138.7,13.4,139,13.4z"/>
		<path class="st60" d="M139.1,13.8l28-0.8c0.6,0,1.2,0.7,1.8,1.7c-0.5-0.4-1.7-0.6-2.7-0.6c-0.1,0-0.1,0-0.2,0c-0.1,0-0.3,0-0.4,0
			c-0.4,0-5.6,0.1-11.1,0.3c-7.1,0.2-15.1,0.4-15.7,0.5c-0.1,0-0.1,0-0.1,0c-0.9,0-1.5,1-1.8,1.4l-0.1,0.1c0,0-0.1,0-0.1-0.1
			c0.1-1.7,0.6-2.2,1.3-2.4C138.4,13.9,138.7,13.8,139.1,13.8z"/>
		<path class="st41" d="M139.1,14.2l28.1-0.8c0.6,0,1.2,0.7,1.8,1.7c-0.5-0.4-1.7-0.6-2.7-0.6c-0.1,0-0.1,0-0.2,0
			c-0.1,0-0.3,0-0.4,0c-0.4,0-5.5,0.2-11.1,0.3c-7.1,0.2-15.2,0.5-15.9,0.5c-0.1,0-0.1,0-0.1,0c-0.9,0-1.6,1-1.8,1.4
			c0,0.1-0.1,0.1-0.1,0.1s-0.1-0.1-0.1-0.2c0.1-1.7,0.6-2.2,1.4-2.3C138.4,14.3,138.8,14.2,139.1,14.2z"/>
		<path class="st59" d="M139.2,14.6l28.2-0.9c0.6,0,1.2,0.7,1.8,1.8c-0.5-0.4-1.7-0.6-2.7-0.6c-0.1,0-0.1,0-0.2,0
			c-0.2,0-0.3,0-0.4,0c-0.3,0-5.4,0.2-11.1,0.4c-7.1,0.2-15.3,0.5-16.1,0.6c-0.1,0-0.1,0-0.1,0c-0.9,0-1.6,1-1.8,1.4
			c0,0,0,0.1-0.1,0.1c0,0-0.1-0.1,0-0.2c0.1-1.7,0.7-2.1,1.4-2.3C138.5,14.7,138.8,14.6,139.2,14.6z"/>
		<path class="st58" d="M139.2,15l28.4-1c0.6,0,1.2,0.7,1.8,1.8c-0.5-0.4-1.8-0.6-2.8-0.6c-0.1,0-0.1,0-0.2,0c-0.2,0-0.3,0-0.4,0
			c-0.2,0-5.3,0.2-11.1,0.4c-7.2,0.3-15.3,0.6-16.2,0.6c-0.1,0-0.1,0-0.1,0c-0.9,0-1.6,1-1.8,1.4c0,0,0,0.1-0.1,0.1
			c0-0.1,0-0.1,0-0.3c0.1-1.7,0.7-2.1,1.5-2.2C138.5,15.1,138.9,15.1,139.2,15z"/>
		<path class="st57" d="M139.3,15.4l28.5-1c0.6,0,1.2,0.7,1.8,1.8c-0.5-0.4-1.8-0.6-2.8-0.6c-0.1,0-0.1,0-0.2,0c-0.2,0-0.3,0-0.5,0
			c-0.1,0-5.3,0.2-11,0.4c-7.2,0.3-15.4,0.6-16.4,0.7c-0.1,0-0.1,0-0.1,0c-0.9,0-1.6,1-1.8,1.4c0,0,0,0.1-0.1,0.1c0-0.1,0-0.2,0-0.3
			c0.1-1.7,0.7-2,1.5-2.2C138.6,15.5,138.9,15.5,139.3,15.4z"/>
		<path class="st56" d="M139.3,15.8l28.6-1.1c0.5,0,1.2,0.7,1.8,1.8c-0.5-0.4-1.8-0.6-2.8-0.6c-0.1,0-0.1,0-0.2,0
			c-0.2,0-0.4,0-0.5,0s-5.2,0.2-11,0.5c-7.2,0.3-15.5,0.7-16.6,0.7c-0.1,0-0.1,0-0.1,0c-1,0-1.7,1-1.8,1.3v0.1c0-0.1,0-0.2,0-0.4
			c0.1-1.7,0.7-2,1.6-2.1C138.6,15.9,139,15.9,139.3,15.8z"/>
	</g>
	<path class="st56" d="M136.7,18.8c0-2.7,1.3-2.4,2.7-2.6l28.8-1.2c0.5,0,1.3,0.7,1.8,1.8c-0.6-0.4-2.6-0.7-3.5-0.7l-27.8,1.3
		C137.4,17.4,136.7,18.8,136.7,18.8z"/>
	<g>
		<path class="st52" d="M279.7,16.3c1.9-3.2,5.6-5.5,9.5-6.3c0.6-0.1,1.3-0.2,1.9-0.3l81.8-0.1c0.6-0.1,1.6,0.4,1.7,1.5
			c-0.6-0.6-1.1-0.7-1.7-0.7l-37.8,0.2h-43.9c-0.1,0-0.3,0-0.4,0C288.9,10.7,283.6,11.5,279.7,16.3z"/>
		<path class="st51" d="M279.7,16.4c1.8-3.2,5.6-5.4,9.5-6.2c0.6-0.1,1.2-0.2,1.8-0.3l81.9-0.3c0.6-0.1,1.6,0.4,1.7,1.5
			c-0.6-0.6-1.1-0.7-1.7-0.7l-37.7,0.1l-44,0.2c-0.1,0-0.3,0-0.4,0C288.9,11,283.4,11.7,279.7,16.4z"/>
		<path class="st50" d="M279.6,16.5c1.8-3.2,5.6-5.3,9.6-6c0.6-0.1,1.2-0.2,1.8-0.3l81.9-0.4c0.6-0.1,1.6,0.4,1.7,1.5
			c-0.6-0.6-1.1-0.7-1.7-0.7l-37.7,0.2L291,11c-0.1,0-0.3,0-0.4,0C288.8,11.2,283.3,11.9,279.6,16.5z"/>
		<path class="st49" d="M279.6,16.6c1.8-3.2,5.6-5.2,9.6-5.9c0.6-0.1,1.1-0.2,1.7-0.3l82-0.5c0.6-0.1,1.6,0.4,1.7,1.5
			c-0.6-0.6-1.1-0.7-1.7-0.7L335.3,11L291,11.3c-0.1,0-0.3,0-0.4,0C288.8,11.4,283.2,12.1,279.6,16.6z"/>
		<path class="st48" d="M279.5,16.6c1.8-3.2,5.6-5.1,9.7-5.8c0.5-0.1,1.1-0.2,1.6-0.3l82.1-0.6c0.6-0.1,1.6,0.4,1.7,1.5
			c-0.6-0.6-1.1-0.7-1.7-0.7L335.4,11l-44.5,0.4c-0.1,0-0.3,0-0.4,0C288.7,11.6,283,12.3,279.5,16.6z"/>
		<path class="st47" d="M279.5,16.7c1.7-3.2,5.6-5,9.7-5.7c0.5-0.1,1-0.2,1.6-0.2l82.1-0.8c0.6-0.1,1.6,0.4,1.7,1.5
			c-0.6-0.6-1.1-0.7-1.7-0.7l-37.4,0.4l-44.6,0.5c-0.1,0-0.3,0-0.4,0C288.7,11.8,282.9,12.5,279.5,16.7z"/>
		<path class="st46" d="M279.5,16.8c1.7-3.2,5.6-4.9,9.8-5.5c0.5-0.1,1-0.2,1.5-0.2l82.2-0.9c0.6-0.1,1.6,0.4,1.7,1.5
			c-0.6-0.6-1.1-0.7-1.7-0.7l-37.3,0.4L291,12c-0.1,0-0.3,0-0.4,0C288.7,12.1,282.7,12.7,279.5,16.8z"/>
		<path class="st45" d="M279.4,16.9c1.7-3.1,5.6-4.8,9.8-5.4c0.5-0.1,1-0.2,1.4-0.2l82.2-1c0.6-0.1,1.6,0.4,1.7,1.5
			c-0.6-0.6-1.1-0.7-1.7-0.7l-37.2,0.5l-44.9,0.6c-0.1,0-0.3,0-0.4,0C288.6,12.3,282.6,12.9,279.4,16.9z"/>
		<path class="st44" d="M279.4,16.9c1.7-3.1,5.6-4.7,9.9-5.3c0.4-0.1,0.9-0.2,1.3-0.2l82.3-1.1c0.6-0.1,1.6,0.4,1.7,1.5
			c-0.6-0.6-1.1-0.7-1.7-0.7l-37.1,0.5l-45,0.7c-0.1,0-0.3,0-0.4,0C288.6,12.5,282.5,13.1,279.4,16.9z"/>
		<path class="st43" d="M279.3,17c1.6-3.1,5.6-4.6,9.9-5.2c0.4-0.1,0.9-0.2,1.3-0.2l82.4-1.3c0.6-0.1,1.6,0.4,1.7,1.5
			c-0.6-0.6-1.1-0.7-1.7-0.7l-37.1,0.6l-45.2,0.8c-0.1,0-0.3,0-0.4,0C288.6,12.7,282.3,13.3,279.3,17z"/>
		<path class="st123" d="M279.3,17.1c1.6-3.1,5.6-4.5,10-5c0.4-0.1,0.8-0.1,1.2-0.2l82.4-1.4c0.6-0.1,1.6,0.4,1.7,1.5
			c-0.6-0.6-1.1-0.7-1.7-0.7l-37,0.7l-45.3,0.9c-0.1,0-0.3,0-0.4,0C288.5,13,282.2,13.4,279.3,17.1z"/>
		<path class="st124" d="M279.2,17.2c1.6-3.1,5.6-4.4,10-4.9c0.4-0.1,0.8-0.1,1.1-0.2l82.5-1.5c0.6-0.1,1.6,0.4,1.7,1.5
			c-0.6-0.6-1.1-0.7-1.7-0.7l-36.9,0.7l-45.4,1c-0.1,0-0.4,0-0.4,0C288.5,13.2,282,13.6,279.2,17.2z"/>
		<path class="st125" d="M279.2,17.2c1.5-3.1,5.6-4.3,10-4.8c0.3-0.1,0.7-0.1,1.1-0.2l82.5-1.6c0.6-0.1,1.6,0.4,1.7,1.5
			c-0.6-0.6-1.1-0.7-1.7-0.6L336,12.3l-45.6,1c-0.1,0-0.4,0-0.4,0C288.4,13.4,281.9,13.8,279.2,17.2z"/>
		<path class="st126" d="M279.1,17.3c1.5-3.1,5.6-4.2,10.1-4.7c0.3-0.1,0.7-0.1,1-0.1l82.6-1.8c0.6-0.1,1.6,0.4,1.7,1.5
			c-0.6-0.6-1.1-0.7-1.7-0.7l-36.7,0.8l-45.7,1.3c-0.1,0-0.4,0-0.4,0C288.4,13.6,281.8,14,279.1,17.3z"/>
		<path class="st127" d="M279.1,17.4c1.5-3.1,5.6-4.1,10.1-4.5c0.3-0.1,0.6-0.1,0.9-0.1l82.7-1.9c0.6-0.1,1.6,0.4,1.7,1.5
			c-0.6-0.6-1.1-0.6-1.7-0.6l-36.6,0.8l-45.9,1.2h-0.4C288.4,13.8,281.6,14.2,279.1,17.4z"/>
		<path class="st127" d="M279.1,17.4c1.5-3,5.6-4,10.2-4.4c0.3-0.1,0.6-0.1,0.8-0.1l82.7-2c0.6-0.1,1.6,0.4,1.7,1.5
			c-0.6-0.6-1.1-0.6-1.7-0.6l-36.6,1l-46,1.3h-0.4C288.3,14.1,281.5,14.4,279.1,17.4z"/>
		<path class="st128" d="M279,17.5c1.4-3,5.6-3.9,10.2-4.3c0.2-0.1,0.5-0.1,0.8-0.1l82.8-2.2c0.6-0.1,1.6,0.4,1.7,1.5
			c-0.6-0.6-1.1-0.6-1.7-0.6l-36.5,1l-46.1,1.4h-0.4C288.3,14.3,281.3,14.6,279,17.5z"/>
		<path class="st129" d="M279,17.6c1.4-3,5.7-3.8,10.3-4.1c0.2,0,0.5-0.1,0.7-0.1l82.8-2.3c0.6-0.1,1.6,0.4,1.7,1.5
			c-0.6-0.6-1.1-0.6-1.7-0.6l-36.4,1.1l-46.3,1.4c0,0-0.4,0-0.5,0C288.2,14.5,281.2,14.8,279,17.6z"/>
		<path class="st130" d="M278.9,17.7c1.4-3,5.7-3.7,10.3-4c0.2,0,0.5-0.1,0.6-0.1l82.9-2.4c0.6-0.1,1.6,0.4,1.7,1.5
			c-0.6-0.6-1.1-0.6-1.7-0.6l-36.3,1.1L290,14.7c0,0-0.4,0-0.5,0C288.2,14.7,281.1,15,278.9,17.7z"/>
		<path class="st131" d="M278.9,17.7c1.2-2.7,5.8-3.6,10.4-3.9c0.2,0,0.4-0.1,0.6-0.1l83-2.5c0.6-0.1,1.6,0.4,1.7,1.5
			c-0.6-0.6-1.1-0.6-1.7-0.6l-36.2,1.2l-46.6,1.6c0,0-0.4,0-0.5,0C288.2,14.9,280.9,15.2,278.9,17.7z"/>
		<path class="st132" d="M278.9,17.8c1.3-3,5.7-3.5,10.4-3.8c0.1,0,0.4-0.1,0.5-0.1l83-2.7c0.6-0.1,1.6,0.4,1.7,1.5
			c-0.6-0.6-1.1-0.6-1.7-0.6l-36.1,1.3L290,15.1c0,0-0.4,0-0.5,0C288.1,15.2,280.8,15.4,278.9,17.8z"/>
		<path class="st133" d="M278.8,17.9c1.3-3,5.7-3.4,10.5-3.6c0.1,0,0.3,0,0.4,0l83.1-2.8c0.6-0.1,1.6,0.4,1.7,1.5
			c-0.6-0.6-1.1-0.6-1.7-0.6l-36,1.3L290,15.5c0,0-0.4,0-0.5,0C288.1,15.4,280.6,15.6,278.8,17.9z"/>
		<path class="st134" d="M278.8,18c1.3-3,5.7-3.3,10.5-3.5c0.1,0,0.3,0,0.4,0l83.2-2.9c0.6-0.1,1.6,0.5,1.7,1.5
			c-0.6-0.6-1.1-0.6-1.7-0.6l-36,1.4l-47,1.8c0,0-0.4,0-0.5,0C288,15.6,280.5,15.8,278.8,18z"/>
		<path class="st135" d="M278.7,18c1.3-2.9,5.7-3.2,10.6-3.4c0.1,0,0.2,0,0.3,0l83.2-3c0.6-0.1,1.6,0.5,1.7,1.5
			c-0.6-0.6-1.1-0.6-1.7-0.6l-35.9,1.4l-47.1,1.9h-0.5C288,15.8,280.4,16,278.7,18z"/>
		<path class="st136" d="M278.7,18.1c1.2-2.9,5.7-3.1,10.6-3.3h0.2l83.3-3.2c0.6-0.1,1.6,0.5,1.7,1.5c-0.6-0.6-1.1-0.6-1.7-0.6
			L337,14l-47.3,2h-0.5C288,16.1,280.2,16.2,278.7,18.1z"/>
	</g>
	<path class="st137" d="M278.6,18.2c1.2-2.9,5.7-3,10.7-3.1l83.5-3.3c0.6-0.1,1.6,0.5,1.7,1.5c-0.6-0.6-1.1-0.6-1.7-0.6l-83.6,3.6
		C287.9,16.3,280.1,16.4,278.6,18.2z"/>
	<g>
		<path class="st138" d="M20.4,3.9c11.4-0.3,84.5-0.1,87,0l0,0l0,0l0,0l0,0l0,0l0,0l0,0h0.1c1.5,0,2.6,0.3,3.3,0.9
			c-0.7-0.8-1.7-1.4-3.3-1.4h-0.1c-2.6-0.1-75.6-0.3-87,0C14.1,3.5,9.8,6.7,7,10.4C9.8,6.9,14.2,4,20.4,3.9z"/>
		<path class="st138" d="M27.3,57.7c0.6,0.8,1.3,1.5,3.1,1.6c4.4,0.1,51.8,0.1,54.5,0c0.9,0,1.4-0.4,2-0.7c-0.5,0.3-1.3,0.2-2,0.3
			c-2.7,0.1-50.1,0-54.5,0C29,58.8,27.9,58.4,27.3,57.7z"/>
		<path class="st138" d="M107.8,31.2H86.4H71.7h-4.8h-1.4h-0.4H65l0,0l0,0l0,0c-1.8,0-3.1,0.6-3.9,1.5c1-1,2.7-1.1,3.9-1.1h42.8
			c0.8,0,1.7,0,2.2,0.3C109.4,31.6,108.8,31.2,107.8,31.2z"/>
	</g>
	<g>
		<path class="st138" d="M169.7,8.1c-1.1-1.9-2.4-3.7-4.5-3.9c-1.5-0.2-27.8,0-28,0V3.8c0.1,0,0.1,0,0.2,0v0.4h-0.1
			c-0.6,0-2.3-0.3-3.4,0.8c1.3-1.2,2.8-1.3,3.5-1.2h0.1v0.4c0,0,0,0-0.1,0V3.8c0.2,0,26.5-0.1,28,0C167.6,3.9,168.6,6.2,169.7,8.1z"
			/>
		
			<linearGradient id="SVGID_27_" gradientUnits="userSpaceOnUse" x1="-167.9876" y1="-30.0145" x2="-167.9876" y2="-283.6978" gradientTransform="matrix(0.1684 0 0 -0.1684 220.0044 1.6135)">
			<stop  offset="0" style="stop-color:#E8E8E8"/>
			<stop  offset="1" style="stop-color:#4F4F4F"/>
		</linearGradient>
		<path class="st139" d="M213.8,12.2c-3.2,5.7-8.5,15.5-14.4,26l-6.3,11.2l-0.2,0.3l-0.2-0.3c-3.5-6.3-19.4-35-23-41.2
			c3.5,6.2,20.3,35.6,23.3,41h-0.4l6.3-11.2C204.8,27.6,210.5,17.9,213.8,12.2z"/>
		
			<linearGradient id="SVGID_28_" gradientUnits="userSpaceOnUse" x1="-70.3605" y1="-100.89" x2="-70.3605" y2="-354.5659" gradientTransform="matrix(0.1684 0 0 -0.1684 226.064 17.6735)">
			<stop  offset="0" style="stop-color:#E8E8E8"/>
			<stop  offset="1" style="stop-color:#4F4F4F"/>
		</linearGradient>
		<path class="st140" d="M204.1,75.3c1.4-2.4,5.5-9.4,5.5-9.4c5.8-10.3,11.6-20,14.8-25.8c-3.2,5.7-8.5,15.5-14.4,26l-5.5,9.5
			L204.1,75.3z"/>
		
			<linearGradient id="SVGID_29_" gradientUnits="userSpaceOnUse" x1="-258.4918" y1="-110.4613" x2="-258.4918" y2="-364.1429" gradientTransform="matrix(0.1684 0 0 -0.1684 215.3453 19.843)">
			<stop  offset="0" style="stop-color:#E8E8E8"/>
			<stop  offset="1" style="stop-color:#4F4F4F"/>
		</linearGradient>
		<path class="st141" d="M181.8,76.1c-4-7.2-16.8-30.2-20.2-36.3c3.4,6,16.7,29.2,20.5,36L181.8,76.1z"/>
		<path class="st138" d="M250.8,4.5c-0.5-0.2-1.3-0.1-1.6-0.1l0,0l0,0c-2.7,0-26.6-0.1-27.7,0c-1.1,0.1-2.9,0.1-4.1,2.1
			c-0.1,0.2-1.8,2.7-3.5,5.7c1.7-3,3-5.7,3.1-5.9c1.4-2.2,3.3-2.3,4.5-2.3c1.1,0,25,0,27.7,0c0,0,0,0,0.1,0l0,0
			C249.7,4,250.1,4.2,250.8,4.5z"/>
	</g>
	<path class="st138" d="M276.8,12.6c3.1-4.8,8.2-8.6,15.1-8.7c10.2-0.2,80.4-0.1,82.1-0.1c0.7,0,1.2,0.3,1.7,0.5
		c-0.5-0.1-1.2,0-1.7-0.1c-1.7-0.1-71.8-0.1-82.1,0.1C285.1,4.4,279.8,7.8,276.8,12.6z"/>
	<path class="st138" d="M300.2,58.2c3.8,0.1,52.6-0.1,68.5-0.1l5.5,0.2l-5.5,0.2c-14.1,0-53.5,0.1-65.3,0.1
		C301.9,58.6,300.6,58.4,300.2,58.2z"/>
	<path class="st138" d="M113.3,30.7c0.2,3.3,1,24.8-0.9,31.6c-0.7,2.4-1.1,3.1-1.6,3.8c0,0,1.9-4.2,1.6-17.5
		C112.2,35.3,113.3,30.7,113.3,30.7z"/>
	<path class="st138" d="M227.1,42.7"/>
	<path class="st138" d="M113.6,3.2c0.4,1.8,0,16.2,0.2,19c0.1,1.9-0.3,0.2-0.2,0.6c-0.5-3-0.5-2.3-0.4-6.9
		C113.2,11.4,112.9,7.2,113.6,3.2z"/>
	<path d="M381.7,58.8c-0.2-1.2-0.4-2-0.8-2.6c-0.8-0.6-1.8,0.1-2.9,1c-1.3,1-1.6,1.5-1.5,1.8c1.1,0,3.2-0.7,3.4,1
		c0.1,0.6,0.5,2,0.6,7.3c-0.4,4.7,0.1,7.5-1.2,9.2c-1.3,1.7-24.6,0.9-46.4,1c-42.6,0.2-49.4,1.2-56.3-5.5l1.4,2.3
		c1.4,1.1,4.9,4.6,10.8,4.9c5.5,0.3,89.1-0.1,89.1-0.1l2.6-0.1c1-0.5,1.1-1.6,1.2-3C381.9,74.2,382.2,61.3,381.7,58.8z"/>
	<g>
		<g>
			<path d="M231.4,79.4c-0.5,0.1-2.2,0.5-3.2-0.1c-0.9-0.5-1.2-1.6-1.5-2.7c0-0.8-0.1-31.6-0.1-33c0.6,2.9,0.3,26.3,0.6,30.2
				c1.4-5.8,2.4-42.3-0.2-31.8l2.4-10c0,0,0.8,37.9,0.8,38.4c0,2,2.3,2.9,1.9,3.6c0.1,1.1,1.7,1,1.2,1.4c-0.9,0.6-4.6-1.5-4.2,2.7
				c0.7,1,1.5,0.9,2.4,0.9C232.6,79,231.4,79.4,231.4,79.4z"/>
			<path d="M155.9,30c-2.1-6.8-2.1-9.1-2.1-9.1l-0.3,1c0,0,0,49.9,0.1,51c0.1,1,0,2.1-2,2.2s-15,0.1-15.9-0.2
				c-0.4,0.1-0.8,0,0.4,0.6c3.2,0.3,14.7,0.2,15.6,0.1c1.6-0.1,2.4-0.6,2.8-1.2c2.2,0.2,4,4.8,3.8,4.6c0.7-0.7,0.6-1.7,0.7-2.9
				c0.4-6.4,0.1-32.3-0.1-33.3l-0.2,26.4c-0.1,4.3-2.4-24.5-2.6-25.9c-1.1-7.8,0.5-10.3,3.3-3C159.4,40.4,157.9,36.8,155.9,30z"/>
			<path d="M226.7,38c3-13-1.8-0.4-5.1,4.3c-4.5,8.4-9.7,16.1-19.7,32.2l-0.2,0.3c-0.5,0.5-1,0.9-2.3,0.9l-13.1-0.1h-0.1
				c-0.8-0.3-0.9-0.4-1.6-1.6c0.7,1.1,1.1,1.1,1.6,1.1c0,0,11.5,0,13.1,0c0.9,0,1.2-0.3,1.5-0.6c11.8-18.9,28.8-50.9,29.8-52.7
				c0.3-0.5,0.5-0.7,0.7-0.8L226.7,38z"/>
			<path d="M29.5,55.8c-0.8,0-2.5-0.6-3.5,2c-0.5-0.9-0.6-1.8-0.6-2.2c0-0.5-0.1-8.2-0.1-14.9c0-6.6-0.1-13.4-0.1-15
				c0-1.1,0.3-2.1,0.9-2.9c0.8,1,1,1.9,3.4,2.5c-0.3,0.5-0.4,1.1-0.4,1.4c0,3,0.3,20.2,0.1,27.2c0,0.8,0,1.4,0.1,1.7"/>
			<path d="M114.2,24.2c0.4-0.3,0.6-0.9,0.6-1.7c0,0,0.1-15.1,0-18.4c0-1.4-0.5-2.2-1.3-2.7c-0.1,0.7,0,0.5,0.1,1.9
				c0.1,1.6-0.1,17.7,0.1,18.9C114,23.2,113.8,23.7,114.2,24.2z"/>
			<path d="M130.7,78.9c-0.6-0.6-0.9-1.6-0.9-2.8c-0.1-2.3,0.1-69.4,0-71.2c0.1-1.5,0.5-2.5,1.2-3.2c1.4-0.7,1.8,2.2,2.6,3.5
				c-2.1-1.9-2.6-0.4-2.5,2.4s-0.1,39.1,0.1,61.8c-0.1,8.3,2-0.6,2.4-2.7c0,3.8,0,6,0,6.2V73c0,0.8,0.1,1.7,0.8,2.4
				c-1.2,0.2-1,0.7-1.5,1.6c-0.4,0.8-2.7,0.7,3,0.8c5.7,0.1,17.2,0,17.5,0s3.7,1.6,0,1.8c-3.8,0.2-17.9,0.3-20,0.2
				C131.2,79.7,131.7,79.5,130.7,78.9"/>
			<path d="M61.7,46.4c-0.2-0.5-0.3-1.1-0.4-1.8c-0.1-1.8-0.1-8-0.1-9c-0.6-2.6-2.8-3.7-3.4-1.3c0,2.5-0.2,6.9,0.2,11.3
				c0.1,1,0.3,1.9,0.6,2.6C59.8,49.8,60.9,48.6,61.7,46.4z"/>
			<path d="M87,59.9c1.4-0.6,2.7-1.8,2.8-4.7c0-4.2,0-6.1,0-6.7l0,0c-1.9,3.2-2.4,3-3.7,4.2c0.1,0.8,0.1,1.9,0.1,2.6
				C87.4,57.3,88.2,58.4,87,59.9z"/>
			<path d="M109.2,32.8c-0.4-0.1-0.8-0.2-1.3-0.2H65.1c-1,0.1-1-0.1-2.1,1.6c0.4-0.3,1-0.4,2.1-0.4c1.6,0,41.7-0.1,42.8-0.1
				c1.1,0,1.8,0.1,1.9,2.5s0,21.3,0,22.6c0,4.6-3.5,15.3-15.4,15.6c-11.9,0.4-72.6,0.2-73.8,0.2c-2.3,0-14.3-2.7-15.4-15.3
				c-0.4-4-0.3-35.7-0.3-37.6c0-3,3.3-15.5,15.5-15.8c12.3-0.3,85,0,86.8,0c0.7,0,2.3-0.3,2.5,2.5c0.1,2.9,0,8.1,0,9.3
				c0,1.2-0.6,2.8-1.9,2.9c1,0,1.7-0.3,2.3-0.7c1.2,0.5,1,1.3,3,2.4c-2.3-2.4-1.9-2.4-2.1-4.5c0-0.3,0-0.9,0-1.7
				c0-2.2,0.1-5.5,0-7.7c1.5-1.9,2.5-5,2.5-5c-2.5,5-3.2,2.1-3.8,2c-0.5-0.4-1.3-0.6-2.2-0.6c-0.1,0-0.1,0-0.2,0
				c-2.4-0.1-75.5-0.3-86.9,0C13.4,5,9,9,6.5,13.2c-3.9,2.1-2.9,0.7-5.2,0.8c-0.7,2-1,3.8-0.9,5.2c0.1,2.4-0.3,22,0.1,39
				c0.2,5.9,1.9,10.4,4.4,13.7c3.6,3.9,8.1,7.4,15.4,7.5c1.4,0,10.5-0.2,20.6-0.2c24.3,0,55.4,0.1,58.4-0.3
				c1.4-0.2,8.2-2.3,10.1-5.6l-0.2-1.1c-3.6,3.4-7.2,6.1-13.1,5.5h-3.8C73.6,77.2,26.1,77.8,16,77c-1-0.1-7.2-2.8-8.7-5.6
				c0-1-0.4-0.8,1.8-0.8c4.3,4.1,9.9,4.7,11.5,4.7h1.3c18.5,0,62.6,0.1,72.5-0.2c5.1-0.2,8.7-1.5,11.3-4.1c0.6,0.2,1.7-3.5,3.5,3.1
				c5.4-6,5.6-15.1,5.7-16.8c0.1-2.6,0.1-22.7,0-25.2c-0.1-1.6-0.8-2.6-1.6-3c0.1,2.7-0.1,1.3,0.2,4.4c0.3,3.1,0.9,22.5-1.6,30.7
				c-1.1,3.8-2.4,3.8-3.6,4.8c0.6-0.9,0.8-2.6,1.2-3.5c1.1-2.4,1.5-4.8,1.5-6.6v-1.7c0-5.2,0-18.9,0-20.9c-0.7-3.8,1.1-3.2,1.4-5.7
				C111,33,111.4,31.9,109.2,32.8"/>
			<path d="M135.3,6.8c0.5-1.1,1.2-1.7,2-1.7"/>
			<path d="M135.3,6.8c0.6-0.8,1.8-0.5,2.2-0.5c0.6,0,26.6-0.1,27.6,0s1.4,0.7,2.4,2.4c1,1.7,23.5,41.6,24,42.6
				c0.7,1.3,1.7,2.2,2.8,0.4c1.1-1.9,24.3-43,25-44.1c0.7-1,1.4-1.1,2.4-1.1c1.1,0,27.6,0,27.6,0c1.3,0.1,1.8,0.8,1.9,2.6
				c0.1,1.7,0,63.8,0,63.8c0,1-0.4,2.1-2,2.1s-15.4,0-15.4,0c-0.6,0-1.1,0-1.5-0.8c0.4,1.2,0.7,1.2,1.5,1.4h15.4
				c0.8,0,1.5-0.1,2-0.4c2.4-1.1,3.6,1.4,3.6,2.4c-0.1,1-1.5,0.5-4.2,0.7s-19.6,0-20.4-0.1c-0.8-0.2-1.8,0.6-2.3,0.3
				c-0.6-0.3,0.7,1.3,2,1.4c1.4,0.1,22.3,0,22.3,0s2.3,0.1,3.2-1c0.6-0.8,0.7-2.1,0.7-4c0-3.4,0.1-67.5-0.1-70.7
				c-0.1-1.5-0.3-2.3-1-2.8c-1.4,0.1-2,2.9-0.5,5.6c0.4,9.1,1,66.3-2.9,66.8c0-2.5,0.3-63,0.2-64.7c0-0.8-0.1-1.5-0.3-2.1
				c-0.5-1.3,1.5-1.3,1.7-2.9c0.5-2.5,0.1,0.4-2.7,1.4c-0.3-0.2-0.7-0.1-1.2-0.1l0,0l0,0c-1.1,0-26.5-0.1-27.6,0s-2.4,0.1-3.4,1.7
				c-0.4,0.7-8.4,14.7-17.9,31.6l-7,12.5c-0.2,0.4-0.3,0.5-0.3,0.5c0.1,0-0.1,0,0,0c-0.1,0-0.2-0.3-0.5-0.8
				c-0.4-0.9-22.9-40.7-24-42.6c-1-1.8-1.7-2.8-3.2-3c-1.3-0.1-27.6,0-27.8,0l0,0"/>
			<path d="M378.3,63.9c-0.2,5.8,0.5,7.5-1.1,9.9c-0.5,0.8-1.6,1-3.4,1c-3,0.1-73.8,0.5-82.4,0.3c-3-0.1-5.7-0.9-8.1-2.2
				c-3.4-3.1-6.3-3.1-9-3c-1.5-2.6-2.5-5.6-2.8-8.8c0-3.4-0.1-41.1-0.1-41.1c0-1.9,0.3-3.6,0.8-5.3c3.5-2.6,3.9-1.2,4.8-0.3
				c2-3.7,5.3-6.8,9.6-8.2l0.1,1.2c-6.9,2.5-10.7,9.4-10.6,15.4c0.1,4.6-0.1,26.4-0.1,35.4s6.5,16.1,15.4,16.3s80.1-0.2,82.4-0.3
				c2.3-0.1,2.6-0.6,2.7-2.2s0.1-6.5,0.1-8.5c-0.1-2-0.6-3-2.3-3c-1.6,0-69.3,0.1-73.9,0.1c-4.6-0.1-5.5-3.7-5.7-5.4
				c-0.2-1.7-0.4-26.4-0.4-29.1c-0.1-2.7,2.1-6.1,6.6-6.1s70.5,0.1,72.9,0c2.5-0.1,2.6-0.5,2.8-2.6c0.1-2.1,0.1-6.2,0.1-8.3
				c0.1-2.1-1.1-2.7-2.8-2.8c-1.7-0.1-71.9-0.1-82,0.1c-1.9,0-3.6,0.4-5.1,0.9l-0.1-1.2c1.6-0.5,3.3-0.9,5.2-0.9
				c10.2-0.2,80.3-0.1,82-0.1c3.1-0.6,5.6-1.1,6.7-3.4c0.8,0.8,1.1,2.1,1.3,3.7c0.2,1.7,0.4,13-0.3,16.1c-0.4,2.1-0.7,3-1.6,3.4
				c0.2-0.6,0-1.3-0.3-2.1c-0.2-0.4,2.1-21.2-2-17.2c-1.1,1.1-0.7,1,0.1,2.1c-0.2,2.8,0.1,9.5-0.2,10.5c-0.3,0.5-0.2,0.5-0.6,1.4
				c-0.6,0.6-1.5,0.8-3,0.9c-2,0.1-46.2,0-65,0h-8c-1.7,0-3.1,0.5-4.1,1.6c0.2,2.3,0.5,3.1,3.5,3.7c-0.4,0.5-0.7,1.4-0.6,2.7
				c0.1,2.7,0.2,21.5,0.1,23.5c0,1.1,0.1,1.8,0.4,2.3c-1.5,1.4-2.5,4.5,0.3,5c3.8,0.1,52.4,0,68.4-0.1h5.5
				C375.7,59.5,378.2,60.5,378.3,63.9z"/>
			<path class="st138" d="M132.9,47.1c0.2,9.7,0.7,18.4,0.7,18.4l0.4-43.4V8.4c0-1.1,0.6-2.8,1.2-3.3c-2.2,0.7-2.3,2.1-2.3,3.4
				l-0.3,13.7C132.5,22.3,132.6,35.4,132.9,47.1z"/>
			<path class="st138" d="M7.1,68.2c-1.7-2.4-2.5-5.5-2.8-8.7C3.9,55.4,4,23.3,4,21.8v-0.3c0.2-1.6,0-2.8,1-5.3
				c-1,2.6-1.8,3.6-2,5.3v0.4c0,1.6-0.1,33.7,0.3,37.8C3.6,62.9,5.3,65.7,7.1,68.2z"/>
			<path class="st138" d="M276.9,66.7c-1.3-2.5-1.7-5.6-1.7-8.6V43.6c0-8.9,0.1-18.1,0-20.9c0-2.1,0.1-4.4,0.9-6.4
				c-0.8,2.1-2.4,4.3-2.4,6.4c0,2.8,0,12,0,20.9v14.5C273.7,61.2,275.6,64.1,276.9,66.7z"/>
			<path class="st138" d="M377,6.8c0.7,1.3,0.6,1.4,0.6,2.4c0,0.8,0,2,0,3.3c0,5.1-0.4,6.9-0.4,6.9s1.3-1.5,1.5-6.9
				c0-0.5-0.1-0.6-0.1-2.2C378.6,9.2,378.3,7.8,377,6.8z"/>
			<path class="st138" d="M376.1,59.9c1.1,0.5,1.5,2.7,1.5,3.5c0,2.1-0.2,8.9-0.2,10.4c0-0.7,1.2,0.1,1.3-5.9c0-1.7,0.2-3.5,0.1-4.5
				C378.7,61.2,377.4,60.5,376.1,59.9z"/>
			<path class="st138" d="M295.9,23.6c-0.3,0.8-0.8,1.7-0.8,2.5c0,0.9,0.1,4,0.1,8c0.1,7.4,0.2,19.9,0.3,21c0.2,1.8,1.1,2.9,2.3,3.7
				c-1-0.7-1-1.6-1.2-3.3c-0.1-1.1-0.3-13.5-0.3-20.9c0-4-0.1-7.2-0.1-8.1C296.1,25.9,295.6,24.4,295.9,23.6z"/>
			<path d="M30,19.8c-1.8,0-3.4,0.3-4.6,1.5c-1.1,1.2-1.8,2.8-1.8,4.5c0,1.8,0.1,8.2,0.1,14.9c0.1,7.5,0.1,14.6,0.1,15
				c0.2,2.9,2,5.7,6.4,5.8c-4.1-0.1-5.7-3.2-5.9-5.8c0-0.4-0.1-7.8-0.1-15c0-6.6-0.1-13.4-0.1-14.9s0.5-3,1.6-4.1
				C26.9,20.6,28.3,19.8,30,19.8z"/>
		</g>
		<path d="M183.3,79c1.4,1,1.8,0.6,5.6,0.6c3.7,0,12.7,0.5,13.5-0.2s1.2-1.2,1-1.6c-0.5-0.9-0.9-1.5-0.9-1.5s-0.7,1.7-3.5,2
			c-2.1,0.2-4.2-0.3-5.4-0.3c-2.1,0-3.8,0.3-6.2,0c0,0-3.3,0.7-2.8-0.6c0.3-0.7,0.4-1.3,0.4-1.3s-0.4,0.1-1.1,1
			C182.9,78.4,182.1,78.1,183.3,79z"/>
		<path d="M159.7,31l1.1,6.1c0,0-0.4-3.4,2.3,1.3c1.5,2.6,17.3,30,17.3,30L159.7,31z"/>
	</g>
	<path class="st142" d="M65.2,35.3c-1,0-1.3,0.3-1.3,1.2c0,0.7-0.3,0-0.3,0l0.1-1.4h1.5L65.2,35.3z"/>
	<path class="st113" d="M65.3,36c-0.5,0-0.8,0.2-0.8,0.7v-0.6L65.3,36z"/>
	<path class="st142" d="M106.7,35.3c0.7,0,1.5,0.7,1.5,1.3c0,0.7,0.3,0,0.3,0l-0.1-1.4h-1.5L106.7,35.3z"/>
	<path class="st113" d="M106.7,35.9c0.5,0,0.9,0.2,0.9,0.6l0.1-0.7L106.7,35.9z"/>
	<path class="st81" d="M373.6,62.6c0.5,0,0.9,0.1,0.9,0.6l0.1-0.7L373.6,62.6z"/>
	<g>
		
			<linearGradient id="SVGID_30_" gradientUnits="userSpaceOnUse" x1="-964.2029" y1="11.2648" x2="-964.2029" y2="-374.1035" gradientTransform="matrix(0.1684 0 0 -0.1684 220.0044 1.6135)">
			<stop  offset="0" style="stop-color:#E8E8E8"/>
			<stop  offset="0.29" style="stop-color:#808080"/>
			<stop  offset="0.3373" style="stop-color:#838383"/>
			<stop  offset="0.3794" style="stop-color:#8E8E8E"/>
			<stop  offset="0.4197" style="stop-color:#A0A0A0"/>
			<stop  offset="0.4587" style="stop-color:#BABABA"/>
			<stop  offset="0.4965" style="stop-color:#DADADA"/>
			<stop  offset="0.51" style="stop-color:#E8E8E8"/>
			<stop  offset="0.6214" style="stop-color:#E3E3E3"/>
			<stop  offset="0.7604" style="stop-color:#D3D3D3"/>
			<stop  offset="0.81" style="stop-color:#CCCCCC"/>
			<stop  offset="1" style="stop-color:#595959"/>
		</linearGradient>
		<path class="st143" d="M115.3,31.9c-0.1-2.6-1.7-3.6-3.3-3.6c-8.2-0.5-43.5-0.4-48,0c-3.1,0.2-6.2,2.5-6.2,5.9
			c0,0.7-0.1,8.1,0.2,11.3c0.4,4.2,2.7,6.4,6.8,6.4c6.7,0,20.1,0,20.2,0c0.6,0,1,0.1,1.1,0.6c0.1,0.7,0.1,1.9,0.1,2.5
			c0,0.5-0.2,0.7-0.9,0.7H30.5c-0.3,0-0.6-0.1-0.7-0.2c-0.3-0.3-0.3-0.9-0.3-1.9c0.2-6.1-0.1-27.2-0.1-27.2c0-0.3,0-1,0.6-1.6
			c0.3-0.4,0.9-0.5,1.5-0.5c4.9,0,80,0.1,81.3,0.1c0.8,0,1.4-0.1,1.8-0.5c0.4-0.4,0.5-0.9,0.5-1.8c0-0.2,0.1-15.1,0-18.4
			C115,0.2,112,0,109.6,0c-3.4,0-89.2,0.3-89.8,0.3C11.5,0.8,6.7,4.7,4.2,7.9c-3.1,3.9-4.1,8.4-4.1,11c0,0.6-0.2,26.6,0.1,39
			c0.2,7,2.6,12.7,7.1,16.6c3.6,3.1,8.2,4.9,12.9,4.9c0,0,60.3,0,75.2,0.1c7.9,0.1,13.5-3.2,16.8-9.7c2.6-5.1,2.8-10.6,2.9-12.5
			C115.2,57.4,115.3,34.3,115.3,31.9z M114.3,57.4c-0.1,1.8-0.3,7.2-2.8,12.1c-3.1,6.2-8.5,9.3-16,9.2c-14.7-0.1-74.6-0.1-75.2-0.1
			c-4.4,0-8.9-1.7-12.3-4.7c-4.3-3.7-6.6-9.2-6.8-16C0.9,47.7,1,28.6,1.1,21.5c0-1.8,0-2.5,0-2.6c0-0.4,0-1.1,0.1-1.4
			C1.5,14.4,5,3.4,18.1,1.5c1.2-0.2,1.2-0.1,1.9-0.2c0.7,0,29.6-0.1,52.9-0.2C91.8,1,108.2,1,109.8,1c2.8,0.1,4.6,0.4,4.6,2.9
			c0,3.2,0,17.7,0,18.4c0,0.6-0.1,1-0.3,1.1c-0.2,0.2-0.6,0.3-1.2,0.3c-1.3,0-76.5-0.1-81.3-0.1c-0.9,0-1.6,0.3-2.1,0.8
			c-0.7,0.8-0.8,1.8-0.8,2.2c0,0.2,0.3,21.2,0.1,27.1c0,1.1,0,2,0.5,2.5c0.3,0.3,0.8,0.5,1.4,0.5h54.6h0.1c1.4-0.1,1.7-0.9,1.7-1.6
			c0-0.7,0-1.9-0.2-2.7c-0.2-1.2-1.4-1.2-1.9-1.3c-0.1,0-14.2,0-20.2,0c-3.6,0-5.6-1.9-5.9-5.6c-0.2-2.6-0.2-8.2-0.2-10.4
			c0-0.5,0-0.8,0-0.9c0-2.9,2.7-4.8,5.4-5.1c4.5-0.4,39.7-0.4,47.9,0c0.7,0,2.3,0.4,2.4,2.8C114.5,34.2,114.3,56.7,114.3,57.4z"/>
		
			<linearGradient id="SVGID_31_" gradientUnits="userSpaceOnUse" x1="-163.4597" y1="11.2658" x2="-163.4597" y2="-374.0983" gradientTransform="matrix(0.1684 0 0 -0.1684 220.0044 1.6135)">
			<stop  offset="0" style="stop-color:#E8E8E8"/>
			<stop  offset="0.29" style="stop-color:#808080"/>
			<stop  offset="0.3373" style="stop-color:#838383"/>
			<stop  offset="0.3794" style="stop-color:#8E8E8E"/>
			<stop  offset="0.4197" style="stop-color:#A0A0A0"/>
			<stop  offset="0.4587" style="stop-color:#BABABA"/>
			<stop  offset="0.4965" style="stop-color:#DADADA"/>
			<stop  offset="0.51" style="stop-color:#E8E8E8"/>
			<stop  offset="0.6214" style="stop-color:#E3E3E3"/>
			<stop  offset="0.7604" style="stop-color:#D3D3D3"/>
			<stop  offset="0.81" style="stop-color:#CCCCCC"/>
			<stop  offset="1" style="stop-color:#595959"/>
		</linearGradient>
		<path class="st144" d="M129.5,48.8c0-19.1,0.1-42.8,0-43.8l0,0l0,0c0.2-3.4,2.2-4.4,5.1-4.8c1.1-0.2,17.5-0.1,26.3-0.1
			c2.5,0,4.3,0,4.4,0c3.8-0.2,5.5,2.6,6.4,4c0.1,0.1,18,32,19.3,34.9c1.2,2.5,1.6,2.4,1.8,2.4l0,0c0.1,0,0.1,0,0.2,0
			c0.3,0,0.7-0.1,1.6-2c2-4.3,16.8-30.9,19.6-35.1c2.3-3.5,4.5-3.6,5.8-3.7c0,0,29.7-0.1,31.4,0c3.4,0.1,4.2,0.6,4.4,3.7
			c0.2,2.7,0.1,71,0.1,71c0,3.1,0,4.4-3.6,4.9c-0.4,0-22.6,0-22.6,0c-1.1,0-1.9-0.5-2.3-1c-0.7-0.7-1.2-1.7-1.2-2.5
			c0,0-0.1-31.8-0.1-33c0-0.9-0.3-2.1-0.7-2.3c-0.2-0.1-0.5,0.2-0.8,0.7c-0.7,1-20.6,35.7-20.9,36.1c-1.1,1.5-1.3,1.8-3.4,1.9
			c-1.2,0-13.9,0-14.6,0.1c-0.7,0-3.1-0.1-5-3.1c-1.4-2.3-18.3-32.3-19.7-34.9c-0.4-0.8-1-1.1-1.5-0.9c-0.5,0.2-1,0.9-0.8,1.8
			c0.1,1,0,33.8,0,33.8c-0.1,1.6-0.1,3.2-3.1,3.3c-2.1,0.1-20.8,0.1-23.5,0c-1.3-0.1-2.9-0.8-3-3.8C129.5,75.2,129.5,63,129.5,48.8z
			 M130.4,76.1c0.1,2.6,1.3,2.9,2.2,3c2.7,0.1,21.3,0.1,23.4,0c2.1-0.1,2.2-0.8,2.2-2.4c0,0,0.1-32.5,0-33.7l0,0
			c-0.2-1.2,0.3-2.4,1.3-2.8c0.8-0.3,1.8-0.1,2.6,1.3c1.4,2.6,18.2,32.6,19.6,34.8c1.6,2.6,3.6,2.7,4.2,2.6c0.7,0,13.4,0,14.6-0.1
			c1.6-0.1,1.6-0.1,2.7-1.5c0.3-0.4,20.2-35,20.9-36c0.7-1.1,1.4-1.2,1.8-1c1.1,0.4,1.4,2.3,1.3,3.2c-0.1,1.1,0.1,32.9,0.1,32.9
			c0,0.6,0.4,1.4,0.9,1.9c0.3,0.3,0.9,0.7,1.7,0.7h5.2c6.6,0,16.7,0,17.3,0c2.8-0.4,2.8-0.9,2.8-4c0,0,0.1-68.3-0.1-71
			c-0.2-2.4-0.5-2.7-3.6-2.8c-1.7-0.1-29.9-0.1-31.2,0c0,0-3.2,0.2-5.3,3.3c-2.8,4.2-17.6,30.7-19.5,35c-0.9,2.1-1.5,2.5-2.3,2.6
			h-0.1c0,0,0.5-0.1,0,0c-1,0.2-1.7-0.5-2.8-2.8c-1.4-2.9-19.2-34.7-19.3-34.8c-0.8-1.4-2.3-3.7-5.6-3.6c-0.1,0-29.6-0.1-30.7,0.1
			c-3.1,0.4-4.2,1.4-4.4,4V4.9C130.5,5.9,130.4,75.2,130.4,76.1z"/>
		
			<linearGradient id="SVGID_32_" gradientUnits="userSpaceOnUse" x1="634.1349" y1="11.2668" x2="634.1349" y2="-374.0994" gradientTransform="matrix(0.1684 0 0 -0.1684 220.0044 1.6135)">
			<stop  offset="0" style="stop-color:#E8E8E8"/>
			<stop  offset="0.29" style="stop-color:#808080"/>
			<stop  offset="0.3373" style="stop-color:#838383"/>
			<stop  offset="0.3794" style="stop-color:#8E8E8E"/>
			<stop  offset="0.4197" style="stop-color:#A0A0A0"/>
			<stop  offset="0.4587" style="stop-color:#BABABA"/>
			<stop  offset="0.4965" style="stop-color:#DADADA"/>
			<stop  offset="0.51" style="stop-color:#E8E8E8"/>
			<stop  offset="0.6214" style="stop-color:#E3E3E3"/>
			<stop  offset="0.7604" style="stop-color:#D3D3D3"/>
			<stop  offset="0.81" style="stop-color:#CCCCCC"/>
			<stop  offset="1" style="stop-color:#595959"/>
		</linearGradient>
		<path class="st145" d="M271.3,19.9c0-5.2,2.3-10.1,6.2-13.9c3.5-3.3,7.9-5.3,12-5.5c1.8-0.1,82.6-0.2,87.6-0.2
			c3.8,0,4.8,2,5.1,5.1c0.2,1.7,0.3,13.1-0.3,16.2c-0.6,3.1-1,3.8-3.7,3.8H373c-16,0-64.8,0.1-70.8,0c-1.4,0.1-2.4,0.6-2.3,3.2
			c0.1,2.5,0.2,21.4,0.1,23.6c0,1.3,0.1,2,0.5,2.4c0.2,0.2,0.6,0.4,1,0.4c0.5,0,66.5-0.1,73.8-0.1c5.8,0,6,0.3,6.7,3.5v0.2
			c0.5,2.6,0.1,15.5,0,17.4c-0.1,1.8-0.3,3.6-3.2,3.4c-1.9-0.1-87,0.1-87.8,0.1c-5,0-9.8-1.9-13.4-5.4s-5.8-8.2-6.2-13.2
			C271.3,61.1,271.3,19.9,271.3,19.9z M272.2,61L272.2,61c0.4,4.8,2.5,9.3,6,12.6c3.5,3.3,8,5.2,12.8,5.1c0.8,0,85.9-0.2,87.8-0.1
			c2,0.1,2.1-0.7,2.3-2.6c0.2-2.3,0.5-14.8,0-17.2c0,0,0,0.1,0-0.2c-0.5-2.8-0.5-2.8-5.8-2.8c-7.3,0-73.3,0.1-73.8,0.1
			c-0.7,0-1.3-0.2-1.7-0.6c-0.6-0.6-0.8-1.5-0.8-3.1c0.1-2.1-0.1-21-0.1-23.5c-0.1-2.7,0.9-4,3.2-4.1l0,0c0,0,54.8,0,70.8,0l0,0h5.2
			c2,0,2.2-0.1,2.8-3.1c0.6-2.9,0.4-14.2,0.3-15.9c-0.3-2.9-1-4.3-4.2-4.3c-4.9,0-85.7,0.1-87.5,0.2c-3.8,0.1-8.1,2.1-11.4,5.2
			c-3.8,3.6-5.9,8.3-5.9,13.2C272.1,19.9,272.2,61.1,272.2,61z"/>
	</g>
	<g>
		
			<linearGradient id="SVGID_33_" gradientUnits="userSpaceOnUse" x1="-967.0135" y1="0.4643" x2="-962.3648" y2="-544.5386" gradientTransform="matrix(0.1684 0 0 -0.1684 220.0044 1.6135)">
			<stop  offset="0.18" style="stop-color:#ED1C2E"/>
			<stop  offset="0.3926" style="stop-color:#EB1C2E"/>
			<stop  offset="0.5049" style="stop-color:#E31B2C"/>
			<stop  offset="0.5938" style="stop-color:#D51929"/>
			<stop  offset="0.6704" style="stop-color:#C21726"/>
			<stop  offset="0.7391" style="stop-color:#A91421"/>
			<stop  offset="0.8021" style="stop-color:#8B101B"/>
			<stop  offset="0.8609" style="stop-color:#660C14"/>
			<stop  offset="0.9162" style="stop-color:#3C070C"/>
			<stop  offset="0.9669" style="stop-color:#0D0203"/>
			<stop  offset="0.98" style="stop-color:#000000"/>
		</linearGradient>
		<path class="st146" d="M108.1,16.2c0-2,0.3-4.7,0.2-6.7c0-0.6-0.3-1.5-0.4-1.7l0,0l0,0l0,0c-0.1,0-0.2,0-0.4,0c-0.1,0-0.2,0-0.3,0
			c-2.4-0.1-75.4-0.3-86.8,0C9.1,8.1,6.5,19.8,6.5,22c0,2.6-0.1,33.7,0.3,37.5c1.1,12.6,13.7,13.8,13.8,13.8h1.3
			c18.5,0.1,62.5,0.1,72.4-0.2c11.5-0.4,13.8-11.2,13.8-14v-1.7c0-4.7,0-18.8,0-20.8c0-0.3,0.1-0.6,0.1-0.6l0,0l0,0l0,0l0.1-0.3
			c-0.1,0-0.3-0.1-0.3-0.2l-0.3,0.1c0,0,0,0,0,0.1c-2.8,0-42.6,0-42.6,0c-0.3,0-0.5,0-0.7,0l0,0l-0.3-0.1c0,0.1-0.1,0.2-0.2,0.2
			l0.1,0.3l0,0c0,1,0,7,0.1,8.7c0,0.4,0.1,0.6,0.1,0.7l0,0l0,0l0,0l0,0c0,0,0.1,0,0.1,0.1l0,0c0.1,0,0.3,0,0.5,0h2.8
			c10.1,0,20.6,0,21.7,0c2,0.1,3.1,1,3.2,2.9v0.1c0.1,0.7,0.1,2,0,6.9c-0.1,5.6-4.1,7.8-7.5,7.9c-2.7,0.1-50.3,0-54.7,0
			c-5.3-0.1-7.5-4-7.7-7.3c0-0.4-0.1-4.9-0.1-15.1c0-6.6-0.1-13.4-0.1-14.9c0-2,0.7-4,2.1-5.4c1.4-1.4,3.3-2.2,5.5-2.2
			c26.3,0,76.3,0,77.6,0c0.3,0,0.4-0.1,0.5-0.1l0,0l0,0l0,0l0,0c0,0,0-0.1,0-0.2C108.1,17.5,108.1,16.9,108.1,16.2z M107.5,17.9
			c-1.2,0-51.3,0-77.6,0c-2.3,0-4.3,0.8-5.7,2.3s-2.3,3.5-2.2,5.6c0,1.5,0.1,8.3,0.1,14.9c0.2,10.2,0.2,14.7,0.2,15.1
			c0.2,3.4,2.5,7.4,8,7.6c4.4,0.1,52,0.1,54.7,0c3.6-0.1,7.8-2.3,7.8-8.2c0-4.9,0-6.2,0-6.9l0,0c-0.1-2-1.3-3.1-3.5-3.2
			c-1.2,0-11.6,0-21.7,0h-2.8c-0.2,0-0.3,0-0.4,0c0-0.1,0-0.3-0.1-0.5c0-1.8,0-7.9,0-8.8l0,0c0.2,0,0.4,0,0.7,0c0,0,40.4,0,42.7,0
			c0,0.2,0,0.4,0.1,0.7c0.1,2,0,16.1,0,20.8V59c0,2.8-2.3,13.4-13.5,13.7c-9.9,0.3-53.9,0.2-72.4,0.2h-1.3
			c-0.1,0-12.4-1.2-13.5-13.5C6.8,55.6,6.8,24.6,6.8,22c0-2.1,2.6-13.6,13.7-13.9c11.4-0.3,84.3-0.1,86.7,0c0.1,0,0.2,0,0.4,0
			c0,0,0.1,0,0.2,0c0,0.1,0.1,0.3,0.1,0.7c0.1,2,0,5.4,0,7.5c0,0.7,0,1.3,0,1.7C107.8,17.8,107.7,17.9,107.5,17.9z"/>
		
			<linearGradient id="SVGID_34_" gradientUnits="userSpaceOnUse" x1="-163.0766" y1="7.3239" x2="-158.4279" y2="-537.6829" gradientTransform="matrix(0.1684 0 0 -0.1684 220.0044 1.6135)">
			<stop  offset="0.18" style="stop-color:#ED1C2E"/>
			<stop  offset="0.3926" style="stop-color:#EB1C2E"/>
			<stop  offset="0.5049" style="stop-color:#E31B2C"/>
			<stop  offset="0.5938" style="stop-color:#D51929"/>
			<stop  offset="0.6704" style="stop-color:#C21726"/>
			<stop  offset="0.7391" style="stop-color:#A91421"/>
			<stop  offset="0.8021" style="stop-color:#8B101B"/>
			<stop  offset="0.8609" style="stop-color:#660C14"/>
			<stop  offset="0.9162" style="stop-color:#3C070C"/>
			<stop  offset="0.9669" style="stop-color:#0D0203"/>
			<stop  offset="0.98" style="stop-color:#000000"/>
		</linearGradient>
		<path class="st147" d="M249.3,8.2L249.3,8.2C249.3,8.1,249.2,8.1,249.3,8.2L249.3,8.2c-0.1,0-0.1,0-0.1,0l0,0h-0.1l0,0
			c-10.6,0-26.6-0.1-27.4-0.1c-0.9,0-0.9,0-1.1,0.4c-0.5,0.8-11,19.3-17.9,31.5l-7.1,12.5c-0.9,1.6-2,1.9-2.7,1.9
			c-0.8,0-2-0.4-2.9-2.3c-0.5-1-22.9-40.7-23.9-42.5c-0.4-0.7-0.7-1.2-0.9-1.5V8H165l0,0l0,0l0,0c-1.3-0.1-25.9,0-27.3,0l0,0l0,0
			c-0.2,0-0.4,0-0.6,0c-0.1,0-0.2,0-0.3,0l-0.1-0.1L136.6,8v0.1c0,0.1,0,0.2,0,0.4v13.7c0,17.4-0.1,49.7-0.1,50.7V73
			c0,0.5,0.3,0.5,0.3,0.4c2.7,0.2,12.7,0.2,14.9,0.1c0.1,0,0.2,0,0.2,0h0.1c0,0,0.2-0.1,0.3-0.1l-0.1-0.2c0-0.1,0-0.1,0-0.2
			c-0.1-1.2-0.1-50.5-0.1-51c0-2,1.2-2.5,1.6-2.7c0.4-0.1,1.7-0.4,2.9,1.2c0.4,0.6,6.4,11.1,19.4,34.6l0,0c5.1,9,9.8,17.6,10.1,18.1
			l0,0l0.1,0.3h0.2h12.8h0.4l0,0l0,0l0,0l0.1-0.1c10-16.1,23.6-41.3,28.1-49.6c0.8-1.5,1.3-2.4,1.4-2.7c0.9-1.5,1.9-1.7,2.5-1.6
			c0.9,0.1,1.6,0.9,1.8,2.1c0,0,0,0.1,0,0.2V22c0,1.9,0,47.6,0,50.4c0,0.4,0,0.6,0,0.8c-0.1,0,0,0.3,0.3,0.3h15.1c0.2,0,0.4,0,0.4,0
			s0-0.2,0-0.4c0-17.2,0-62.2,0-63.7C249.4,8.5,249.3,8.3,249.3,8.2z M165,8C165,7.9,164.9,7.9,165,8L165,8L165,8L165,8z M164.9,7.9
			L164.9,7.9L164.9,7.9L164.9,7.9z M233.9,73c0-0.2,0-0.5,0-0.8c0-2.7,0-48.5,0-50.4v-0.2l0,0l0,0v-0.2c-0.3-1.3-1-2.2-2.1-2.3
			c-0.8-0.1-1.9,0.1-2.8,1.8c-0.2,0.3-0.6,1.2-1.4,2.6c-4.5,8.3-18.1,33.6-28.1,49.6c0,0,0,0-0.1,0c0,0-12,0-13,0
			c0,0-0.1-0.1-0.1-0.2c-0.3-0.5-5.1-9.1-10.1-18.1l0,0c-13.1-23.4-19-34-19.5-34.6c-1.3-1.7-2.8-1.4-3.2-1.3
			c-0.4,0.1-1.8,0.8-1.8,2.9c0,0.5,0,49.9,0.1,51.1c0,0.1,0,0.1,0,0.2c-0.1,0-0.1,0-0.2,0c-2.2,0.1-12.4,0.1-14.9-0.1
			c0-0.1,0-0.1,0-0.2v-0.1c0-1,0.1-33.3,0.1-50.7V8.3c0-0.1,0-0.2,0-0.3c0.1,0,0.2,0,0.2,0c0.2,0,0.4,0,0.6,0l0,0
			c1,0,25.2-0.1,27.2,0c0.2,0.2,0.6,0.9,0.9,1.5c1.1,1.8,23.4,41.5,23.9,42.5c1,2,2.3,2.4,3.2,2.4c0.8,0,2-0.3,3-2l7.1-12.5
			c6.9-12.2,17.3-30.7,17.8-31.5c0.1-0.2,0.1-0.2,0.9-0.2c0.8,0,16.8,0,27.4,0c0,0.1,0.1,0.4,0.1,0.8c0.1,1.5,0,46.5,0,63.7
			c0,0.1,0,0.1,0,0.2H249L233.9,73L233.9,73z"/>
		
			<linearGradient id="SVGID_35_" gradientUnits="userSpaceOnUse" x1="918.4137" y1="-360.3709" x2="918.4137" y2="-360.3709" gradientTransform="matrix(0.1684 0 0 -0.1684 220.0044 1.6135)">
			<stop  offset="0.18" style="stop-color:#ED1C2E"/>
			<stop  offset="0.3926" style="stop-color:#EB1C2E"/>
			<stop  offset="0.5049" style="stop-color:#E31B2C"/>
			<stop  offset="0.5938" style="stop-color:#D51929"/>
			<stop  offset="0.6704" style="stop-color:#C21726"/>
			<stop  offset="0.7391" style="stop-color:#A91421"/>
			<stop  offset="0.8021" style="stop-color:#8B101B"/>
			<stop  offset="0.8609" style="stop-color:#660C14"/>
			<stop  offset="0.9162" style="stop-color:#3C070C"/>
			<stop  offset="0.9669" style="stop-color:#0D0203"/>
			<stop  offset="0.98" style="stop-color:#000000"/>
		</linearGradient>
		<path class="st148" d="M374.7,62.3L374.7,62.3L374.7,62.3z"/>
		
			<linearGradient id="SVGID_36_" gradientUnits="userSpaceOnUse" x1="629.8507" y1="14.0831" x2="634.4992" y2="-530.9185" gradientTransform="matrix(0.1684 0 0 -0.1684 220.0044 1.6135)">
			<stop  offset="0.18" style="stop-color:#ED1C2E"/>
			<stop  offset="0.3926" style="stop-color:#EB1C2E"/>
			<stop  offset="0.5049" style="stop-color:#E31B2C"/>
			<stop  offset="0.5938" style="stop-color:#D51929"/>
			<stop  offset="0.6704" style="stop-color:#C21726"/>
			<stop  offset="0.7391" style="stop-color:#A91421"/>
			<stop  offset="0.8021" style="stop-color:#8B101B"/>
			<stop  offset="0.8609" style="stop-color:#660C14"/>
			<stop  offset="0.9162" style="stop-color:#3C070C"/>
			<stop  offset="0.9669" style="stop-color:#0D0203"/>
			<stop  offset="0.98" style="stop-color:#000000"/>
		</linearGradient>
		<path class="st149" d="M373.8,8C372,7.9,302,7.9,291.9,8.1c-8.9,0.2-14.3,7.8-14.2,14.7c0,2.8,0,12,0,20.9v14.5
			c0,8.2,5.9,14.5,13.8,14.7c8.6,0.2,79.3-0.2,82.3-0.3c0.4,0,0.6,0,0.8-0.1l0.3-0.1c0-0.1,0-0.4,0-0.5c0.1-1.6,0.1-6.5,0.1-8.3
			c0-1-0.2-1.3-0.3-1.3l0,0l0,0l0,0l0,0c0,0-0.1-0.1-0.4-0.1h-5.5c-16,0-64.6,0.1-68.4,0.1c-4-0.1-6.8-2.6-7.3-6.8
			c-0.1-1.1-0.2-9.9-0.3-21.3c0-4-0.1-7.1-0.1-8c0-1.9,0.7-3.9,2.1-5.3c1.1-1.1,3-2.4,6.1-2.4h8c18.8,0,62.9,0.1,64.9,0
			c0.3,0,0.6,0,0.8,0l0,0l0,0l0,0l0.3-0.2v-0.2l0,0l0,0c0-0.2,0-0.4,0.1-0.7c0.1-1.2,0.1-3.2,0.1-4.9c0-1.3,0-2.4,0-3.3
			C375.1,8.3,375,8,373.8,8z M373.7,18.2c-2,0.1-46.1,0-64.9,0h-8c-3.2,0-5.2,1.4-6.3,2.5c-1.4,1.5-2.3,3.5-2.2,5.5
			c0,0.9,0.1,4,0.1,8c0.1,11.4,0.2,20.1,0.3,21.3c0.5,4.4,3.4,7,7.6,7.1c3.9,0.1,52.5,0,68.4-0.1h5.5c0.1,0,0.1,0,0.2,0
			c0,0.1,0.1,0.4,0.2,1.1c0.1,1.8,0,6.7-0.1,8.3c0,0.1,0,0.2,0,0.3c-0.2,0-0.4,0.1-0.8,0.1c-3,0.1-73.7,0.5-82.3,0.3
			c-7.7-0.2-13.5-6.4-13.5-14.4V43.7c0-8.9,0.1-18.1,0-20.9c-0.1-6.8,5.2-14.2,13.9-14.4c10.1-0.2,80.1-0.1,81.8-0.1
			c1,0,1,0.1,1,0.8c0,0.9,0,2.1,0,3.3c0,1.7,0,3.7-0.1,4.9c0,0.2,0,0.5-0.1,0.8C374.4,18.2,374.1,18.2,373.7,18.2z"/>
	</g>
	<g>
		<g>
			
				<linearGradient id="SVGID_37_" gradientUnits="userSpaceOnUse" x1="-965.8234" y1="46.5627" x2="-965.8234" y2="-379.6195" gradientTransform="matrix(0.1684 0 0 -0.1684 220.0044 1.6135)">
				<stop  offset="0" style="stop-color:#FFFFFF"/>
				<stop  offset="9.896073e-02" style="stop-color:#FFF8F5"/>
				<stop  offset="0.2228" style="stop-color:#FEEBE3"/>
				<stop  offset="0.36" style="stop-color:#FDD6C8"/>
				<stop  offset="0.5068" style="stop-color:#FABAA7"/>
				<stop  offset="0.6612" style="stop-color:#F6967F"/>
				<stop  offset="0.8222" style="stop-color:#F26C58"/>
				<stop  offset="0.9856" style="stop-color:#EE2730"/>
				<stop  offset="1" style="stop-color:#ED1C2E"/>
			</linearGradient>
			<path class="st150" d="M10.9,68.2c-2-2-3.3-4.9-3.6-9C7,55.5,7,24.4,7,21.8C7,19.7,9.6,8.3,20.5,8.1c9.3-0.2,61.7-0.1,84.8,0
				c0.3,0,0.6,0,1,0s1.2,0,1.3,0.2c0.2,0.2,0.3,7.8,0.3,9.5l0.5-4.7c-0.1-3.8-0.3-5.2-0.6-5.3c-1-0.2-1.5-0.3-1.5-0.3
				C83.7,7.4,30,7.3,20.5,7.5C9.1,7.7,6.4,19.6,6.4,21.8c0,2.6-0.1,33.7,0.3,37.5C7,63.3,8.9,66.2,10.9,68.2z"/>
			
				<linearGradient id="SVGID_38_" gradientUnits="userSpaceOnUse" x1="-964.6028" y1="-47.5643" x2="-964.6028" y2="-507.7369" gradientTransform="matrix(0.1684 0 0 -0.1684 220.0044 1.6135)">
				<stop  offset="0" style="stop-color:#FFFFFF"/>
				<stop  offset="9.896073e-02" style="stop-color:#FFF8F5"/>
				<stop  offset="0.2228" style="stop-color:#FEEBE3"/>
				<stop  offset="0.36" style="stop-color:#FDD6C8"/>
				<stop  offset="0.5068" style="stop-color:#FABAA7"/>
				<stop  offset="0.6612" style="stop-color:#F6967F"/>
				<stop  offset="0.8222" style="stop-color:#F26C58"/>
				<stop  offset="0.9856" style="stop-color:#EE2730"/>
				<stop  offset="1" style="stop-color:#ED1C2E"/>
			</linearGradient>
			<path class="st151" d="M89.4,45.2c1.9,0.1,2.9,1.3,3.1,3v0.1c0.1,0.7,0.1,2,0,6.9c-0.1,5.5-4,7.6-7.4,7.8
				c-2.7,0.1-50.3,0-54.7-0.1c-5.3-0.1-7.4-3.9-7.6-7.1c0-0.3-0.1-8.9-0.1-16.6c0-6.5-0.1-12.7-0.1-13.4c0-2,0.7-3.9,2.1-5.3
				c1.4-1.4,3.2-2.4,5.4-2.4c-2.3,0-4.3,0.5-5.8,2S22,23.7,22,25.8c0,0.7,0.1,6.9,0.1,13.4c0.1,9.9,0.1,16.4,0.1,16.6
				c0.2,3.5,2.5,7.6,8.2,7.7c4.4,0.1,52,0.1,54.8,0c3.6-0.1,7.9-2.4,8-8.3c0-4.9,0-6.2,0-6.9c0,0,0,0,0-0.1
				C92.9,46.1,91.6,45.3,89.4,45.2z"/>
			
				<linearGradient id="SVGID_39_" gradientUnits="userSpaceOnUse" x1="-795.6599" y1="-47.5672" x2="-795.6599" y2="-507.734" gradientTransform="matrix(0.1684 0 0 -0.1684 220.0044 1.6135)">
				<stop  offset="0" style="stop-color:#FFFFFF"/>
				<stop  offset="9.896073e-02" style="stop-color:#FFF8F5"/>
				<stop  offset="0.2228" style="stop-color:#FEEBE3"/>
				<stop  offset="0.36" style="stop-color:#FDD6C8"/>
				<stop  offset="0.5068" style="stop-color:#FABAA7"/>
				<stop  offset="0.6612" style="stop-color:#F6967F"/>
				<stop  offset="0.8222" style="stop-color:#F26C58"/>
				<stop  offset="0.9856" style="stop-color:#EE2730"/>
				<stop  offset="1" style="stop-color:#ED1C2E"/>
			</linearGradient>
			<path class="st152" d="M107.6,35.9c0,2.6,0.1,16.6,0.1,22.9c0,2-1.2,8.3-6,11.7c5.3-3.4,6.6-9.5,6.6-11.7
				c0-7.9-0.1-23.5-0.1-23.5s-43.9,0-44.1,0c-0.1,0-0.3-0.1-0.3,0.3c0,1.2,0,7.2,0.1,8.9c0,0.6,0.2,0.7,0.9,0.7
				c-0.2,0-0.2-0.3-0.2-0.3s-0.1-0.1-0.1-0.4c-0.1-1.5-0.1-6.8-0.1-8.5C68.2,36,103.8,36,107.6,35.9z"/>
			
				<linearGradient id="SVGID_40_" gradientUnits="userSpaceOnUse" x1="-392.1563" y1="-47.5638" x2="-392.1563" y2="-507.7442" gradientTransform="matrix(0.1684 0 0 -0.1684 220.0044 1.6135)">
				<stop  offset="0" style="stop-color:#FFFFFF"/>
				<stop  offset="9.896073e-02" style="stop-color:#FFF8F5"/>
				<stop  offset="0.2228" style="stop-color:#FEEBE3"/>
				<stop  offset="0.36" style="stop-color:#FDD6C8"/>
				<stop  offset="0.5068" style="stop-color:#FABAA7"/>
				<stop  offset="0.6612" style="stop-color:#F6967F"/>
				<stop  offset="0.8222" style="stop-color:#F26C58"/>
				<stop  offset="0.9856" style="stop-color:#EE2730"/>
				<stop  offset="1" style="stop-color:#ED1C2E"/>
			</linearGradient>
			<path class="st153" d="M156.5,20.3c-1.3-1.8-2.7-1.7-3.1-1.5c-0.5,0.1-1.9,0.8-1.9,3.1c0,0.4,0.3,40,0.4,49.5
				c0-7.5,0.2-49,0.2-49.5c0-1.9,1.2-2.4,1.5-2.5C154,19.2,155.4,18.8,156.5,20.3z"/>
			
				<linearGradient id="SVGID_41_" gradientUnits="userSpaceOnUse" x1="-373.7478" y1="46.5617" x2="-373.7478" y2="-379.6182" gradientTransform="matrix(0.1684 0 0 -0.1684 220.0044 1.6135)">
				<stop  offset="0" style="stop-color:#FFFFFF"/>
				<stop  offset="9.896073e-02" style="stop-color:#FFF8F5"/>
				<stop  offset="0.2228" style="stop-color:#FEEBE3"/>
				<stop  offset="0.36" style="stop-color:#FDD6C8"/>
				<stop  offset="0.5068" style="stop-color:#FABAA7"/>
				<stop  offset="0.6612" style="stop-color:#F6967F"/>
				<stop  offset="0.8222" style="stop-color:#F26C58"/>
				<stop  offset="0.9856" style="stop-color:#EE2730"/>
				<stop  offset="1" style="stop-color:#ED1C2E"/>
			</linearGradient>
			<path class="st154" d="M177.8,30.8c-1.4-2.5-2.6-5.3-4-7.7c-4.2-7.4-7.4-13.2-8.1-14.4c0,0-0.1-0.6-0.6-0.9
				c-0.3-0.2-1.3-0.2-1.4-0.2c-3.1-0.1-22.3,0-22.6,0c0,0-4.5-0.3-4.6,0.1c-0.1,0.6-0.1,2.4-0.1,2.4c0,0.5,0.2,51.3,0.2,61.2
				c0,0,0.4-58.3,0.4-63.2c2.9,0,24.5-0.1,27.6,0c0.3,0,0.2,0.1,0.2,0.1c0.1,0.2,2.4,4.2,2.4,4.2l6.1,10.7
				C174.6,25.8,176.3,28.2,177.8,30.8z"/>
			
				<linearGradient id="SVGID_42_" gradientUnits="userSpaceOnUse" x1="49.649" y1="-47.5638" x2="49.649" y2="-507.7304" gradientTransform="matrix(0.1684 0 0 -0.1684 220.0044 1.6135)">
				<stop  offset="0" style="stop-color:#FFFFFF"/>
				<stop  offset="9.896073e-02" style="stop-color:#FFF8F5"/>
				<stop  offset="0.2228" style="stop-color:#FEEBE3"/>
				<stop  offset="0.36" style="stop-color:#FDD6C8"/>
				<stop  offset="0.5068" style="stop-color:#FABAA7"/>
				<stop  offset="0.6612" style="stop-color:#F6967F"/>
				<stop  offset="0.8222" style="stop-color:#F26C58"/>
				<stop  offset="0.9856" style="stop-color:#EE2730"/>
				<stop  offset="1" style="stop-color:#ED1C2E"/>
			</linearGradient>
			<path class="st155" d="M233.8,65.8c0-13.7,0.3-44,0.3-44v-0.2l0,0l0,0v-0.2c-0.3-1.3-1.1-2.3-2.2-2.4c-0.8-0.1-2,0.1-3,1.8
				c0,0-2.5,5-6.2,11.7l6.8-11.4c0.6-1.2,1.5-1.7,2.4-1.5c0.9,0.1,1.5,0.9,1.7,2v0.2v-0.1v0.2C233.5,21.8,233.8,51.2,233.8,65.8z"/>
			
				<linearGradient id="SVGID_43_" gradientUnits="userSpaceOnUse" x1="-137.7412" y1="-150.0929" x2="-135.9984" y2="-528.3309" gradientTransform="matrix(0.1684 0 0 -0.1684 220.0044 1.6135)">
				<stop  offset="0" style="stop-color:#FFFFFF"/>
				<stop  offset="9.896073e-02" style="stop-color:#FFF8F5"/>
				<stop  offset="0.2228" style="stop-color:#FEEBE3"/>
				<stop  offset="0.36" style="stop-color:#FDD6C8"/>
				<stop  offset="0.5068" style="stop-color:#FABAA7"/>
				<stop  offset="0.6612" style="stop-color:#F6967F"/>
				<stop  offset="0.8222" style="stop-color:#F26C58"/>
				<stop  offset="0.9856" style="stop-color:#EE2730"/>
				<stop  offset="1" style="stop-color:#ED1C2E"/>
			</linearGradient>
			<path class="st156" d="M207.3,32c-5.5,9.7-11.4,19.6-11.9,20.4c-0.9,1.5-1.9,1.8-2.6,1.8c-0.8,0-1.9-0.4-2.8-2.2
				c-0.1-0.2-1.6-2.2-3.5-5.7c1.9,3.3,2.9,5.7,3,5.9c1.1,2.1,2.4,2.5,3.3,2.5c0.9,0,2.1-0.3,3.1-2.1C196.1,52.5,201.2,42.7,207.3,32
				z"/>
			
				<linearGradient id="SVGID_44_" gradientUnits="userSpaceOnUse" x1="50.2427" y1="46.5617" x2="50.2427" y2="-379.6215" gradientTransform="matrix(0.1684 0 0 -0.1684 220.0044 1.6135)">
				<stop  offset="0" style="stop-color:#FFFFFF"/>
				<stop  offset="9.896073e-02" style="stop-color:#FFF8F5"/>
				<stop  offset="0.2228" style="stop-color:#FEEBE3"/>
				<stop  offset="0.36" style="stop-color:#FDD6C8"/>
				<stop  offset="0.5068" style="stop-color:#FABAA7"/>
				<stop  offset="0.6612" style="stop-color:#F6967F"/>
				<stop  offset="0.8222" style="stop-color:#F26C58"/>
				<stop  offset="0.9856" style="stop-color:#EE2730"/>
				<stop  offset="1" style="stop-color:#ED1C2E"/>
			</linearGradient>
			<path class="st157" d="M207.3,32c6.2-11,13.3-22.9,13.6-23.3l0.1-0.1l0,0c0.1,0,0.3,0,0.7-0.1c0.8,0,27.2,0.1,27.4,0.1
				c-0.1,0-0.1-0.1-0.2-0.1c0,0,0.1,0.1,0.1,0.7c0,0.9,0,23.7,0.1,42l0.3,13.9c0-3.8,0.3-8.7,0.3-13.9c0-18.3,0-40.8-0.1-41.7
				c0-0.7-1-1.5-1.4-1.5c-1.1,0-25.6-0.2-26.4-0.1c-0.9,0-1.7,1-2,1.4C219.6,9.7,213.8,20.5,207.3,32z"/>
			
				<linearGradient id="SVGID_45_" gradientUnits="userSpaceOnUse" x1="631.0216" y1="46.5627" x2="631.0216" y2="-379.6203" gradientTransform="matrix(0.1684 0 0 -0.1684 220.0044 1.6135)">
				<stop  offset="0" style="stop-color:#FFFFFF"/>
				<stop  offset="9.896073e-02" style="stop-color:#FFF8F5"/>
				<stop  offset="0.2228" style="stop-color:#FEEBE3"/>
				<stop  offset="0.36" style="stop-color:#FDD6C8"/>
				<stop  offset="0.5068" style="stop-color:#FABAA7"/>
				<stop  offset="0.6612" style="stop-color:#F6967F"/>
				<stop  offset="0.8222" style="stop-color:#F26C58"/>
				<stop  offset="0.9856" style="stop-color:#EE2730"/>
				<stop  offset="1" style="stop-color:#ED1C2E"/>
			</linearGradient>
			<path class="st158" d="M374.8,17.4c0.1-0.8,0.3-6.9,0.3-7.2c0.1-1.5-1-2.3-2.3-2.3C371,7.8,302,7.8,292,8
				c-8.9,0.2-14.4,7.9-14.4,14.9c0,2.8-0.1,35.1-0.1,35.4c0,4.6,1.5,7.8,4.5,10.5c-2.2-2.5-3.9-6.7-3.9-10.5
				c0-0.3,0.1-32.6,0.1-35.4c-0.1-6.7,5.2-14.1,13.8-14.3c10.1-0.2,80.1-0.1,81.8-0.1c0.9,0,0.9,0,0.9,0.7
				C374.6,9.4,374.8,16.6,374.8,17.4z"/>
			
				<linearGradient id="SVGID_46_" gradientUnits="userSpaceOnUse" x1="674.9459" y1="-47.5599" x2="674.9459" y2="-507.7414" gradientTransform="matrix(0.1684 0 0 -0.1684 220.0044 1.6135)">
				<stop  offset="0" style="stop-color:#FFFFFF"/>
				<stop  offset="9.896073e-02" style="stop-color:#FFF8F5"/>
				<stop  offset="0.2228" style="stop-color:#FEEBE3"/>
				<stop  offset="0.36" style="stop-color:#FDD6C8"/>
				<stop  offset="0.5068" style="stop-color:#FABAA7"/>
				<stop  offset="0.6612" style="stop-color:#F6967F"/>
				<stop  offset="0.8222" style="stop-color:#F26C58"/>
				<stop  offset="0.9856" style="stop-color:#EE2730"/>
				<stop  offset="1" style="stop-color:#ED1C2E"/>
			</linearGradient>
			<path class="st159" d="M374.7,72c0.1-1.6,0.4-6.5,0.4-8.3c0-1-0.1-1.4-0.4-1.5c0,0-0.3-0.1-0.4-0.1c-0.7,0-70.1,0.1-73.9,0.1
				c-4-0.1-6.6-2.6-7.1-6.7c-0.1-0.9-0.4-29.2-0.4-29.2c-0.1-1.9,0.7-3.8,2.1-5.2c1.1-1.1,3-2.7,6-2.7c-3.2,0-5.3,1.1-6.4,2.3
				c-1.5,1.5-2.3,3.6-2.3,5.6c0,0,0.3,28.4,0.4,29.3c0.6,4.5,3.4,7.2,7.7,7.2c3.8,0.1,73.3-0.1,74-0.1c0.1,0,0,0,0,0s0.1,0.1,0.1,1
				C374.5,65.5,374.8,70.4,374.7,72z"/>
		</g>
		<path class="st138" d="M158.5,41.4c-0.4-1.7-1.4-2.7-1.7-0.5c-0.3,2.3,1.7,24.9,1.9,26.4L158.5,41.4z"/>
		<path class="st138" d="M227,44.5c-0.3,0.8,0.6-5.8,1.2-1c0.2,1.8,1.1,8.7-0.9,28.8L227,44.5z"/>
		<path class="st138" d="M253.3,10.3c0,0-0.2,42.2-0.3,57.3c0.1,3.4-1.4,6.3-1.4,6.3c0-0.4,0.4-2,0.4-3.5c0.1-13.4,0.1-62,0.1-62
			L252,6.9C252.5,7.4,253.3,9.9,253.3,10.3z"/>
	</g>
	<path class="st138" d="M375.1,8.9c-0.1-1.4-1-1.7-1.6-1.8h-82.4c-4.5,0.4-8.9,3.6-11.2,7.3c4.3-5.4,10-6.5,11.3-6.5h43.7h38.6
		c1.5,0,0.8,6.6,1.4,7.1C375,12.4,375.2,10.3,375.1,8.9z"/>
	<path class="st138" d="M164.2,7.3H138c-1.3,0.1-1.7,0.4-1.7,1.8c0,1.2,0.2,4.3,0.2,7.1c0,0,0.2-3.6,0.5-6c0-0.1,0-0.1,0-0.2
		c0.1-1.9,0.9-2,1.4-2c0,0,7.6,0,14.5,0c5.3,0,10.3,0,10.6,0c0.8,0,1.7,0.9,2.2,1.7c0.6,0.9,0.7,1.1,1,1.3
		C166.5,10,165.2,7.3,164.2,7.3z"/>
	<path class="st138" d="M106.8,7.2H20c-4.5,0.4-8.9,3.6-11.2,7.3C13.1,9.1,18.8,8,20.1,8h43.5h43.3c1.5,0,0.8,6.6,1.4,7.1
		c0.1-2.8,0.3-4.9,0.2-6.3C108.2,7.6,107.4,7.3,106.8,7.2z"/>
	<path class="st138" d="M247.9,7.3h-26.2c-1,0-1.9,1.7-2.2,2.7c0.3-0.1,0.5-0.4,0.7-0.6c0,0.1,0.8-1,0.7-0.9
		c0.6-0.4,1.3-0.3,2.2-0.3c0.4,0,5,0,10.3,0c6.9,0,14.5-0.1,14.5-0.1c1.3,0.2,1,1.9,1,2c0.2,1.3,0.1,3,0.2,3.5
		c0.2,2.4,0.3,2.6,0.3,2.6c0.1-2.9,0.1-5.9,0.1-7.1C249.5,7.8,248.5,7.3,247.9,7.3z"/>
	<path class="st142" d="M136.3,10c0-0.3-0.1-2.7,1.3-2.7h-1.9L136.3,10z"/>
	<path d="M386,69.2c0-3.4,2.7-6.1,6.1-6.1s6.1,2.8,6.1,6.1c0,3.4-2.7,6.2-6.1,6.2C388.7,75.4,386,72.7,386,69.2z M397.5,69.2
		c0-2.9-2.3-5.4-5.4-5.4c-3,0-5.4,2.4-5.4,5.4s2.4,5.5,5.4,5.5C395.2,74.7,397.5,72.3,397.5,69.2z M393.2,69.6
		c0.8,0,1.7-0.4,1.7-1.8c0-0.6-0.2-1.3-0.7-1.6c-0.5-0.3-0.9-0.3-1.8-0.3h-2.5v6.9h0.8v-3.2h1.4l2,3.2h1.1L393.2,69.6z M390.7,68.8
		v-2.3h1.8c1.2,0,1.3,0.5,1.3,1.1c0,1.1-0.5,1.2-1.5,1.2C392.3,68.8,390.7,68.8,390.7,68.8z"/>
</g>
</svg>
