<?xml version="1.0" encoding="utf-8"?>
<!-- Generator: Adobe Illustrator 25.0.0, SVG Export Plug-In . SVG Version: 6.00 Build 0)  -->
<svg version="1.1" id="Layer_1" xmlns="http://www.w3.org/2000/svg" xmlns:xlink="http://www.w3.org/1999/xlink" x="0px" y="0px"
	 viewBox="0 0 100 100" style="enable-background:new 0 0 100 100;" xml:space="preserve">
<style type="text/css">
	.st0{fill:#6F84A3;}
</style>
<path class="st0" d="M58.6,69.4c-0.9-4.6,9.2-39.7,15.1-44.2s14.4-2.8,15.3,1.5c0.9,4.3-18,64.5-18,64.5
	C69.5,75.3,59.5,74,58.6,69.4z"/>
<path class="st0" d="M80.8,21.1c-1.9,0-2.7-0.5-3.4-3.1C76.7,15.4,84,3.2,84,3.2C87.9-1,95.4-0.5,97,1.5c1.6,2-6.6,22.6-6.6,22.6
	C88.2,20.4,82.6,21.1,80.8,21.1z"/>
<rect x="7.6" y="95.2" class="st0" width="58" height="4.8"/>
<path class="st0" d="M67.8,93.2c0,0,0-11.4-11.1-19.4c-7.2-5.2-41.6-8.5-48.1-3.2c-6,4.9-8.4,13.4-3.7,22.6H67.8z"/>
</svg>
