<?xml version="1.0" encoding="utf-8"?>
<!-- Generator: Adobe Illustrator 25.0.0, SVG Export Plug-In . SVG Version: 6.00 Build 0)  -->
<svg version="1.1" id="Layer_1" xmlns="http://www.w3.org/2000/svg" xmlns:xlink="http://www.w3.org/1999/xlink" x="0px" y="0px"
	 viewBox="0 0 100 100" style="enable-background:new 0 0 100 100;" xml:space="preserve">
<style type="text/css">
	.st0{fill:#6F84A3;}
</style>
<g>
	<path class="st0" d="M93.8,46.9v21.9c0,0.9-0.7,1.6-1.6,1.6h-6.2c-0.9,0-1.6-0.7-1.6-1.6v-4.7h-3.1v9.4c0,0.4-0.2,0.8-0.5,1.1
		l-6.2,6.2c-0.3,0.3-0.7,0.5-1.1,0.5H39.1c-0.4,0-0.8-0.2-1.1-0.5L32.2,75H20.3c-0.9,0-1.6-0.7-1.6-1.6V62.5h-3.1v4.7
		c0,0.9-0.7,1.6-1.6,1.6H7.8c-0.9,0-1.6-0.7-1.6-1.6V48.4c0-0.9,0.7-1.6,1.6-1.6h6.2c0.9,0,1.6,0.7,1.6,1.6v4.7h3.1V42.2
		c0-0.9,0.7-1.6,1.6-1.6h7l5.8-8.7c0.3-0.4,0.8-0.7,1.3-0.7h10.9v-3.1h-4.7c-0.9,0-1.6-0.7-1.6-1.6v-6.2c0-0.9,0.7-1.6,1.6-1.6h18.8
		c0.9,0,1.6,0.7,1.6,1.6v6.2c0,0.9-0.7,1.6-1.6,1.6h-4.7v3.1h14.1c0.5,0,1,0.3,1.3,0.7l5.8,8.7h3.9c0.9,0,1.6,0.7,1.6,1.6v9.4h3.1
		v-4.7c0-0.9,0.7-1.6,1.6-1.6h6.2C93.1,45.3,93.8,46,93.8,46.9z"/>
</g>
</svg>
