<?xml version="1.0" encoding="utf-8"?>
<!-- Generator: Adobe Illustrator 25.0.0, SVG Export Plug-In . SVG Version: 6.00 Build 0)  -->
<svg version="1.1" id="Layer_1" xmlns="http://www.w3.org/2000/svg" xmlns:xlink="http://www.w3.org/1999/xlink" x="0px" y="0px"
	 viewBox="0 0 32 32" style="enable-background:new 0 0 32 32;" xml:space="preserve">
<style type="text/css">
	.st0{fill:#2C74D8;}
</style>
<g>
	<path class="st0" d="M2,27h15v-2H2c-0.5,0-1,0.4-1,0.9c0,0,0,0.1,0,0.1c0,0.5,0.4,1,0.9,1C1.9,27,2,27,2,27z"/>
	<path class="st0" d="M30,25h-5v-3c0-0.5-0.4-1-0.9-1c0,0-0.1,0-0.1,0h-4c-0.5,0-1,0.4-1,0.9c0,0,0,0.1,0,0.1v8c0,0.5,0.4,1,0.9,1
		c0,0,0.1,0,0.1,0h4c0.5,0,1-0.4,1-0.9c0,0,0-0.1,0-0.1v-3h5c0.5,0,1-0.4,1-0.9c0,0,0-0.1,0-0.1c0-0.5-0.4-1-0.9-1
		C30.1,25,30,25,30,25z"/>
	<path class="st0" d="M2,7h15V5H2C1.4,5,1,5.4,1,6S1.4,7,2,7z"/>
	<path class="st0" d="M30,5h-5V2c0-0.5-0.4-1-0.9-1c0,0-0.1,0-0.1,0h-4c-0.5,0-1,0.4-1,0.9c0,0,0,0.1,0,0.1v8c0,0.5,0.4,1,0.9,1
		c0,0,0.1,0,0.1,0h4c0.5,0,1-0.4,1-0.9c0,0,0-0.1,0-0.1V7h5c0.6,0,1-0.4,1-1S30.6,5,30,5z"/>
	<path class="st0" d="M2,17h4v-2H2c-0.6,0-1,0.4-1,1C1,16.6,1.4,17,2,17z"/>
	<path class="st0" d="M30,15H14v-3c0-0.5-0.4-1-0.9-1c0,0-0.1,0-0.1,0H9c-0.5,0-1,0.4-1,0.9c0,0,0,0.1,0,0.1v8c0,0.5,0.4,1,0.9,1
		c0,0,0.1,0,0.1,0h4c0.5,0,1-0.4,1-0.9c0,0,0-0.1,0-0.1v-3h16c0.6,0,1-0.4,1-1C31,15.4,30.6,15,30,15z"/>
</g>
</svg>
