<svg xmlns="http://www.w3.org/2000/svg" viewBox="0 0 545.79 107.94"><defs><style>.cls-1{fill:#3077d5;}</style></defs><title>Asset 2</title><g id="Layer_2" data-name="Layer 2"><g id="Layer_1-2" data-name="Layer 1"><path class="cls-1" d="M167.77,59.15,156.57,40.2H154V59.15h-8.93v-43h15.6a18.2,18.2,0,0,1,6.26,1,10.83,10.83,0,0,1,4.33,2.77,11.91,11.91,0,0,1,2.45,4.07,15,15,0,0,1,.81,5,10.52,10.52,0,0,1-2.35,7.08,11.92,11.92,0,0,1-6.76,3.71l13,19.39ZM154,23.52V33.8h5.27q6.7,0,6.71-5.12a4.69,4.69,0,0,0-1.64-3.79,7.81,7.81,0,0,0-5.07-1.37Z"/><path class="cls-1" d="M193.44,59.15v-43h8.94v43Z"/><path class="cls-1" d="M249.4,16.11h9.5L243,59.15h-9.83l-15.81-43h9.47l11.29,32.61Z"/><path class="cls-1" d="M298.86,24h-16v9.77h14.15v7.77H282.9v9.74h16v7.9h-25v-43h25Z"/><path class="cls-1" d="M339.33,59.15,328.13,40.2h-2.59V59.15h-8.93v-43h15.6a18.2,18.2,0,0,1,6.26,1,10.83,10.83,0,0,1,4.33,2.77,11.89,11.89,0,0,1,2.44,4.07,14.79,14.79,0,0,1,.82,5,10.52,10.52,0,0,1-2.35,7.08A11.92,11.92,0,0,1,337,39.76l13,19.39ZM325.54,23.52V33.8h5.27q6.7,0,6.71-5.12a4.69,4.69,0,0,0-1.64-3.79,7.83,7.83,0,0,0-5.07-1.37Z"/><path class="cls-1" d="M408.45,59.74a23.94,23.94,0,0,1-8.78-1.58,20.69,20.69,0,0,1-7-4.4,20,20,0,0,1-4.59-7,24.46,24.46,0,0,1-1.66-9.15,23.28,23.28,0,0,1,2.86-11.69,19.5,19.5,0,0,1,7.84-7.73,23.5,23.5,0,0,1,11.31-2.68A22.82,22.82,0,0,1,421.08,19a19.08,19.08,0,0,1,7.71,9.59l-8.34,3a11.74,11.74,0,0,0-4.62-5.8,13.16,13.16,0,0,0-7.38-2.09A12.66,12.66,0,0,0,399,27.48q-3.69,3.76-3.69,10.13t3.71,10.14a12.59,12.59,0,0,0,9.4,3.77,13.14,13.14,0,0,0,7.37-2.1,11.85,11.85,0,0,0,4.63-5.82l8.34,3a19.15,19.15,0,0,1-7.71,9.6A22.74,22.74,0,0,1,408.45,59.74Z"/><path class="cls-1" d="M444.66,59.15v-43h8.93v43Z"/><path class="cls-1" d="M498.2,16.11V24H488V59.15h-8.85V24H468.86V16.11Z"/><path class="cls-1" d="M545.79,16.11,531.64,38.53V59.15h-9V38.74L508.44,16.11h9.89l8.78,14.65,8.82-14.65Z"/><path class="cls-1" d="M156.33,99.5l-1.54-4.35h-8.86l-1.54,4.35h-4.48l7.77-21.1H153l7.77,21.1Zm-9.12-8h6.3l-3.14-9Z"/><path class="cls-1" d="M176.73,99.8a11.1,11.1,0,0,1-3.25-.46A7.77,7.77,0,0,1,170.87,98a6.21,6.21,0,0,1-1.76-2.41,8.79,8.79,0,0,1-.64-3.44V78.4h4.39V91.52a4.61,4.61,0,0,0,1,3.34,4.24,4.24,0,0,0,5.64,0,4.52,4.52,0,0,0,1.08-3.33V78.4H185V92.11a8.62,8.62,0,0,1-.64,3.44A6.21,6.21,0,0,1,182.61,98,7.91,7.91,0,0,1,180,99.34,11.21,11.21,0,0,1,176.73,99.8Z"/><path class="cls-1" d="M207.66,78.4v3.85h-5V99.5h-4.34V82.25h-5V78.4Z"/><path class="cls-1" d="M225,99.8a11.38,11.38,0,0,1-5.54-1.33,9.51,9.51,0,0,1-3.85-3.8,12.43,12.43,0,0,1,0-11.46,9.55,9.55,0,0,1,3.85-3.79,12.37,12.37,0,0,1,11.08,0,9.65,9.65,0,0,1,3.84,3.79,12.43,12.43,0,0,1,0,11.46,9.57,9.57,0,0,1-3.85,3.8A11.36,11.36,0,0,1,225,99.8Zm-4.62-5.87a6.69,6.69,0,0,0,9.24,0,7.74,7.74,0,0,0,0-10,6.72,6.72,0,0,0-9.24,0,7.74,7.74,0,0,0,0,10Z"/><path class="cls-1" d="M269.34,99.5H265l-1.39-15.9-5.35,15.9h-2.83l-5.35-15.9-1.4,15.9h-4.38l1.77-21.1h6.25l4.5,13.25,4.55-13.25h6.26Z"/><path class="cls-1" d="M288.66,99.8a11.38,11.38,0,0,1-5.54-1.33,9.51,9.51,0,0,1-3.85-3.8,12.43,12.43,0,0,1,0-11.46,9.55,9.55,0,0,1,3.85-3.79,12.37,12.37,0,0,1,11.08,0A9.65,9.65,0,0,1,298,83.21a12.43,12.43,0,0,1,0,11.46,9.57,9.57,0,0,1-3.85,3.8A11.34,11.34,0,0,1,288.66,99.8Zm-4.61-5.87a6.68,6.68,0,0,0,9.23,0,7.74,7.74,0,0,0,0-10,6.71,6.71,0,0,0-9.23,0,7.71,7.71,0,0,0,0,10Z"/><path class="cls-1" d="M320.35,78.4v3.85h-5V99.5H311V82.25h-5V78.4Z"/><path class="cls-1" d="M329.05,99.5V78.4h4.38V99.5Z"/><path class="cls-1" d="M357.69,78.4h4.66l-7.8,21.1h-4.82L342,78.4h4.65l5.53,16Z"/><path class="cls-1" d="M383.14,82.25h-7.83v4.8h6.94v3.81h-6.94v4.77h7.83V99.5H370.9V78.4h12.24Z"/><path class="cls-1" d="M114.28,96.83a16.47,16.47,0,0,1-6.35,1.59c-4.76,0-7.93-3.18-12.69-3.18s-7.94,3.18-12.7,3.18-7.94-3.18-12.7-3.18-7.93,3.18-12.7,3.18-7.93-3.18-12.69-3.18-7.94,3.18-12.7,3.18-7.94-3.18-12.7-3.18-7.94,3.18-12.7,3.18A16.56,16.56,0,0,1,0,96.83v9.53a16.74,16.74,0,0,0,6.35,1.58c4.76,0,7.94-3.17,12.7-3.17s7.93,3.17,12.7,3.17,7.93-3.17,12.7-3.17,7.93,3.17,12.69,3.17,7.94-3.17,12.7-3.17,7.94,3.17,12.7,3.17,7.93-3.17,12.7-3.17,7.93,3.17,12.69,3.17a16.51,16.51,0,0,0,6.35-1.59V96.83Z"/><path class="cls-1" d="M104.76,60.32V15.87L84.13,28.57v19h-7.9V22.16H66.66V0H41.27V36.26H28.57V23.81L18.25,17.46,7.94,23.81V46H0V68.26a16.51,16.51,0,0,0,6.35,1.59c4.76,0,7.94-3.18,12.7-3.18s7.93,3.18,12.7,3.18,7.93-3.18,12.69-3.18,7.94,3.18,12.7,3.18,7.94-3.18,12.7-3.18,7.94,3.18,12.7,3.18,7.93-3.18,12.7-3.18,7.93,3.18,12.69,3.18a16.7,16.7,0,0,0,6.35-1.59V60.32Z"/><path class="cls-1" d="M95.24,76.2c-4.76,0-7.94,3.17-12.7,3.17S74.6,76.2,69.84,76.2s-7.93,3.17-12.7,3.17S49.21,76.2,44.45,76.2s-7.94,3.17-12.7,3.17-7.94-3.17-12.7-3.17-7.94,3.17-12.7,3.17A16.69,16.69,0,0,1,0,77.79v9.52A16.7,16.7,0,0,0,6.35,88.9c4.76,0,7.94-3.18,12.7-3.18S27,88.9,31.75,88.9s7.93-3.18,12.69-3.18,7.94,3.18,12.7,3.18,7.94-3.18,12.7-3.18,7.94,3.18,12.7,3.18,7.93-3.18,12.7-3.18,7.93,3.18,12.69,3.18a16.7,16.7,0,0,0,6.35-1.59V77.78a16.51,16.51,0,0,1-6.35,1.59C103.17,79.37,100,76.2,95.24,76.2Z"/><path class="cls-1" d="M400.77,94.22c1.09.87,2.93,2.28,4.69,2.28a2.57,2.57,0,0,0,1.68-.49.94.94,0,0,0-.05-1.41c-1.44-1.22-5.72-2.9-5.72-5.69,0-3.71,4.2-6.88,6.61-7.91,1.3-.54,2.6-.76,3.5,0a5,5,0,0,1,1.35,2.28,3.5,3.5,0,0,1-.78,2.71,28.42,28.42,0,0,0-1.87,3c-.14.24-.3.38-.6.08a2.17,2.17,0,0,1-.27-2.63c.57-1.3,2.6-3.55,1.95-4.23-.92-1-7.59,3.2-7.72,6.59-.09,1.76,3.38,3.2,4.9,4.28,1,.73.9,2-.3,3.36-1.62,1.87-6.34,2.39-10.16-2.22-.3-.35-.19-.54,0-.62A3.11,3.11,0,0,1,400.77,94.22Z"/><path class="cls-1" d="M420.88,86.83c.24-.36.46-.41.65-.17a3,3,0,0,1,0,3c-.59,1.22-1.95,3.25-2.6,4.69s-.7,2.68.22,2.63c1.11-.06,2.6-1.9,3.55-3.77.13-.24.32-.27.43,0a2.42,2.42,0,0,1-.24,1.68c-.71,1.49-2.41,3-3.9,2.9a2.1,2.1,0,0,1-2.23-2.22,4.73,4.73,0,0,1-3.38,2.12c-2.52,0-3-3.45-.79-6.72s4.34-4.42,5.69-4.42a1.64,1.64,0,0,1,1.65,2C420.26,87.83,420.58,87.26,420.88,86.83Zm-2.17,1.11c-.87-.08-2.84,1.68-4.33,4.09s-1.79,4.71-.74,4.74,2.52-1.71,3.91-4.09C419.25,89.7,419.5,88,418.71,87.94Z"/><path class="cls-1" d="M431,86.66a2,2,0,0,1,1.06,2.88c-.57,1.19-1.9,3.19-2.52,4.6-.71,1.57-.55,2.85.43,2.79s2.44-1.84,3.47-3.74c.13-.24.32-.24.46,0s.13.92-.25,1.7a5,5,0,0,1-4,2.9c-2.3,0-2.84-1.68-2.06-4,.9-2.66,3.28-5.53,2.79-5.75-.27-.11-1.84.65-3.57,2.55-1.6,1.73-2.79,4.33-4,6.88-.11.25-.27.35-.51.11-.55-.54-.71-1.44-.27-2.79a42.53,42.53,0,0,1,4.33-8c.19-.29.41-.27.57,0a3.21,3.21,0,0,1,.08,2.58C428.25,88,430.09,86.53,431,86.66Z"/><path class="cls-1" d="M440,93.47a40.75,40.75,0,0,0-2.06,3.9.27.27,0,0,1-.49,0c-.33-.43-.44-1.24.13-2.76a15.57,15.57,0,0,1,.74-1.55,1.89,1.89,0,0,1-.9-.92c-.13-.35-.08-.46.33-.41s.78.11,1.22.14c2.11-3.68,5.88-9,8.75-11.41.43-.35.7-.35,1,0a3.42,3.42,0,0,1,.63,1.11,2.66,2.66,0,0,1,0,2,55,55,0,0,0-2,7.88,1.7,1.7,0,0,1,1.22,1.39c.05.24-.06.32-.3.24a5.79,5.79,0,0,0-1.16-.16c-.19,1.41-.36,2.9-.41,4.33,0,.27-.16.36-.41.25-.54-.25-1-.92-1-2.47,0-.54,0-1.25.11-2.06C443.45,93.17,441.26,93.49,440,93.47Zm5.61-2.09a41.59,41.59,0,0,1,2-8.35A72.09,72.09,0,0,0,441,91.84C442.67,91.7,444.32,91.41,445.6,91.38Z"/><path class="cls-1" d="M457.71,86.66a2,2,0,0,1,1.06,2.88c-.57,1.19-1.9,3.19-2.52,4.6-.71,1.57-.55,2.85.43,2.79s2.44-1.84,3.47-3.74c.13-.24.32-.24.46,0s.13.92-.25,1.7a5,5,0,0,1-4,2.9c-2.3,0-2.84-1.68-2.06-4,.9-2.66,3.28-5.53,2.8-5.75-.28-.11-1.85.65-3.58,2.55-1.6,1.73-2.79,4.33-4,6.88-.11.25-.27.35-.51.11-.55-.54-.71-1.44-.27-2.79a42.53,42.53,0,0,1,4.33-8c.19-.29.41-.27.57,0a3.21,3.21,0,0,1,.08,2.58C455,88,456.81,86.53,457.71,86.66Z"/><path class="cls-1" d="M461.88,86c-.27-.38-.11-.57.3-.54a15.21,15.21,0,0,0,2.25-.11A35.47,35.47,0,0,1,466.49,82c.24-.35.51-.33.65,0a3.69,3.69,0,0,1-.35,3.06,1.71,1.71,0,0,1,1.68.81c.19.33.08.52-.33.52a8.07,8.07,0,0,0-2.11.11c-1.06,1.81-2.6,4.44-3.63,6.72-.9,2-.6,3.66.54,3.71s2.76-1.87,3.77-3.9c.16-.33.46-.38.57,0A2.25,2.25,0,0,1,467,94.6c-.35.79-2.14,3.17-4.31,3.09-1.78,0-3.22-2.06-1.92-5.17.57-1.36,1.71-3.63,2.87-5.78A2.23,2.23,0,0,1,461.88,86Z"/><path class="cls-1" d="M483.45,97.75c-2.25,0-2.82-1.68-2-4,.92-2.65,3.28-5.52,2.82-5.69s-1.84.6-3.58,2.5a25.42,25.42,0,0,0-4,6.85c-.09.19-.28.35-.52.08-.49-.54-.68-1.41-.22-2.76a25.73,25.73,0,0,1,1.71-3.69,4,4,0,0,1-2.52.68c-.54,2.3-2.28,5.1-4.28,5.75a2.92,2.92,0,0,1-3.42-1.14c-1.19-1.6-.78-4,.44-6.1,1.05-1.84,2.68-3.39,4.31-3.52a1.76,1.76,0,0,1,1.81.89c.65.87,1.47,1,1.3,3a4.18,4.18,0,0,1,0,.49c1.7,0,3.47-2,4.93-4.23.19-.3.4-.3.57,0a3.22,3.22,0,0,1,.11,2.55c1.22-1.28,3-2.74,3.93-2.63a2,2,0,0,1,1.05,2.87c-.59,1.22-1.87,3.17-2.52,4.58s-.57,2.76.46,2.74,2.36-1.79,3.42-3.74a.24.24,0,0,1,.46,0,2.18,2.18,0,0,1-.27,1.7A5,5,0,0,1,483.45,97.75Zm-11.81-9a10.18,10.18,0,0,0-2.12,2.57c-1.19,2-1.57,4.55-.84,5.15s2.42-.35,3.72-2.79a14.52,14.52,0,0,0,1-2.31A3.29,3.29,0,0,1,471.64,88.7Zm2.11,0c-.13-.87-.7-.71-.81.08a2.05,2.05,0,0,0,.65,1.81A5.53,5.53,0,0,0,473.75,88.7Z"/><path class="cls-1" d="M487.49,93.74A33.76,33.76,0,0,1,491,87.15c.24-.32.43-.41.65-.16a2.83,2.83,0,0,1,0,3c-.57,1.19-1.7,3-2.27,4.39-.65,1.57-.6,2.63.27,2.58,1.22-.06,2.71-1.85,3.52-3.72.14-.24.33-.21.43,0a1.93,1.93,0,0,1-.18,1.68,4.88,4.88,0,0,1-4,2.82C487.25,97.69,486.73,96,487.49,93.74Zm6-7.08a1,1,0,0,1-1.51-.4,1.69,1.69,0,0,1,.13-2c.44-.46,1.22-.13,1.57.6A1.6,1.6,0,0,1,493.53,86.66Z"/><path class="cls-1" d="M502,91.81c-.57,2.31-2.27,5-4.28,5.72a3,3,0,0,1-3.41-1.19c-1.2-1.57-.79-3.93.43-6.1,1-1.84,2.68-3.41,4.31-3.52a1.83,1.83,0,0,1,1.84.92c.63.84,1.44,1,1.28,3,0,.22,0,.41-.06.62.16,0,.33,0,.54,0s.19.13.08.27A1.1,1.1,0,0,1,502,91.81Zm-2.3-.68a3.37,3.37,0,0,1-1.25-2.38,9.47,9.47,0,0,0-2.08,2.55c-1.14,2.06-1.55,4.55-.84,5.15s2.41-.33,3.74-2.82a14.25,14.25,0,0,0,.94-2.17A1.86,1.86,0,0,1,499.66,91.13Zm.92-2.41c-.14-.86-.68-.7-.81.08a2.23,2.23,0,0,0,.59,1.93A5.19,5.19,0,0,0,500.58,88.72Z"/><path class="cls-1" d="M503,96.45a1.53,1.53,0,0,1,1.4-1.28c.66,0,1.06.87.74,1.85a2,2,0,0,1-2.44,1.46.17.17,0,0,1,0-.33,2.27,2.27,0,0,0,.73-.43A1.11,1.11,0,0,1,503,96.45Z"/><path class="cls-1" d="M520.42,83.25c-1.63,0-2.79-.54-3.09-1.55-.08-.24,0-.38.3-.35,2.41.19,6.91-.81,8.45-.76,1.14,0,2.17.33,2.58,1.39.08.21,0,.43-.33.4a19,19,0,0,0-4.61.41,5.57,5.57,0,0,1-.89,2.87,115.52,115.52,0,0,0-6,11.71c-.11.27-.25.27-.44.08A2.45,2.45,0,0,1,516,95a60.85,60.85,0,0,1,6.07-11.92A14.19,14.19,0,0,1,520.42,83.25Z"/><path class="cls-1" d="M539.82,80.67c.33-.29.54-.16.62.19.17.76-.1,2.14-1.78,3.74-1.25,1.2-2.93,2.8-4.69,4.56.43,3.09,1,6.42,2,8,.19.3,0,.52-.25.49-1.05-.08-2.14-.78-2.79-3.47-.24-1-.46-2.16-.65-3.3a62.62,62.62,0,0,0-5.77,6.64c-.16.21-.35.16-.43-.06a3.06,3.06,0,0,1,.59-2.84,56.16,56.16,0,0,1,5.23-6c-.38-2.6-.76-5.28-1.35-7.64-.06-.27.08-.43.35-.38.68.11,1.57.63,2.09,2.41.21.79.43,2.17.67,3.8C536,84.39,538.36,82,539.82,80.67Z"/></g></g></svg>