<?xml version="1.0" encoding="utf-8"?>
<!-- Generator: Adobe Illustrator 25.0.0, SVG Export Plug-In . SVG Version: 6.00 Build 0)  -->
<svg version="1.1" id="Layer_1" xmlns="http://www.w3.org/2000/svg" xmlns:xlink="http://www.w3.org/1999/xlink" x="0px" y="0px"
	 viewBox="0 0 32 32" style="enable-background:new 0 0 32 32;" xml:space="preserve">
<g>
	<rect x="15" y="4" width="2" height="4"/>
	<rect x="23.2" y="8.8" transform="matrix(0.7071 -0.7071 0.7071 0.7071 0.4438 20.6866)" width="4" height="2"/>
	<rect x="27" y="18" width="4" height="2"/>
	<rect x="1" y="18" width="4" height="2"/>
	<rect x="9.9" y="9.8" transform="matrix(0.7071 -0.7071 0.7071 0.7071 -6.6526 11.8181)" width="2" height="8.3"/>
	<path d="M16,23c-2.2,0-4-1.8-4-4c0-2.2,1.8-4,4-4c2.2,0,4,1.8,4,4C20,21.2,18.2,23,16,23z M16,17c-1.1,0-2,0.9-2,2s0.9,2,2,2
		c1.1,0,2-0.9,2-2S17.1,17,16,17z"/>
	<path d="M28.5,29h-25l-0.3-0.4C1.1,25.8,0,22.5,0,19C0,10.2,7.2,3,16,3s16,7.2,16,16c0,3.5-1.1,6.8-3.2,9.6L28.5,29z M4.5,27h22.9
		c1.7-2.4,2.5-5.1,2.5-8c0-7.7-6.3-14-14-14S2,11.3,2,19C2,21.9,2.9,24.6,4.5,27z"/>
</g>
</svg>
